<svg xmlns="http://www.w3.org/2000/svg" xmlns:xlink="http://www.w3.org/1999/xlink" width="500" zoomAndPan="magnify" viewBox="0 0 375 374.999991" height="500" preserveAspectRatio="xMidYMid meet" version="1.0"><defs><clipPath id="89d2abfcae"><path d="M 14.765625 5 L 360.515625 5 L 360.515625 375 L 14.765625 375 Z M 14.765625 5 " clip-rule="nonzero"/></clipPath></defs><g clip-path="url(#89d2abfcae)"><path fill="#000000" d="M 359.332031 295.644531 C 359.332031 272.761719 337.171875 252.386719 301.414062 242.421875 C 271.863281 234.226562 244.453125 223.746094 233.886719 219.535156 C 233.425781 219.226562 233.074219 218.820312 232.835938 218.316406 C 232.597656 217.816406 232.503906 217.285156 232.558594 216.730469 L 232.558594 180.707031 L 249.992188 159.078125 C 251.492188 157.21875 252.828125 155.25 254.007812 153.171875 C 255.183594 151.09375 256.1875 148.9375 257.015625 146.695312 C 257.84375 144.457031 258.488281 142.164062 258.945312 139.820312 C 259.402344 137.480469 259.671875 135.113281 259.746094 132.726562 L 262.628906 67.988281 C 263.042969 67.65625 263.367188 67.25 263.601562 66.773438 C 263.832031 66.292969 263.953125 65.789062 263.957031 65.257812 L 263.957031 24.4375 C 263.953125 23.710938 263.75 23.046875 263.347656 22.441406 C 262.945312 21.839844 262.410156 21.394531 261.742188 21.113281 C 255.914062 18.554688 249.972656 16.300781 243.914062 14.359375 C 237.851562 12.414062 231.710938 10.789062 225.480469 9.480469 C 219.253906 8.171875 212.976562 7.191406 206.644531 6.53125 C 200.316406 5.875 193.96875 5.546875 187.605469 5.546875 C 181.238281 5.546875 174.890625 5.875 168.5625 6.53125 C 162.234375 7.191406 155.953125 8.171875 149.726562 9.480469 C 143.496094 10.789062 137.355469 12.414062 131.292969 14.359375 C 125.234375 16.300781 119.292969 18.554688 113.46875 21.113281 C 112.796875 21.394531 112.261719 21.839844 111.859375 22.441406 C 111.457031 23.046875 111.253906 23.710938 111.25 24.4375 L 111.25 65.257812 C 111.253906 65.789062 111.375 66.292969 111.609375 66.773438 C 111.839844 67.25 112.164062 67.65625 112.582031 67.988281 L 115.460938 132.726562 C 115.53125 135.121094 115.796875 137.492188 116.253906 139.839844 C 116.707031 142.191406 117.351562 144.488281 118.179688 146.734375 C 119.007812 148.980469 120.011719 151.144531 121.191406 153.230469 C 122.371094 155.3125 123.714844 157.289062 125.214844 159.152344 L 142.648438 180.78125 L 142.648438 216.804688 C 142.703125 217.359375 142.609375 217.886719 142.371094 218.390625 C 142.132812 218.894531 141.78125 219.300781 141.320312 219.609375 C 130.753906 223.746094 103.050781 234.375 73.792969 242.496094 C 38.039062 252.460938 15.875 272.90625 15.875 295.71875 L 15.875 311.808594 C 15.875 319.191406 15.503906 327.164062 14.691406 334.765625 C 14.652344 335.152344 14.679688 335.535156 14.761719 335.914062 C 14.847656 336.289062 14.992188 336.644531 15.191406 336.976562 C 15.390625 337.308594 15.636719 337.601562 15.929688 337.855469 C 16.222656 338.109375 16.550781 338.308594 16.90625 338.457031 C 35.652344 346.535156 54.855469 353.300781 74.527344 358.753906 C 94.195312 364.203125 114.144531 368.289062 134.375 371.011719 C 134.902344 371.304688 135.46875 371.453125 136.074219 371.453125 L 136.738281 371.453125 C 153.640625 373.578125 170.605469 374.636719 187.640625 374.628906 C 222.683594 374.542969 257.160156 370.089844 291.070312 361.269531 C 291.617188 361.265625 292.132812 361.140625 292.621094 360.898438 C 315.011719 355.128906 336.855469 347.75 358.152344 338.753906 C 358.507812 338.605469 358.835938 338.402344 359.128906 338.152344 C 359.421875 337.898438 359.667969 337.605469 359.867188 337.273438 C 360.070312 336.941406 360.210938 336.585938 360.296875 336.207031 C 360.382812 335.828125 360.40625 335.449219 360.367188 335.0625 C 359.554688 327.679688 359.1875 319.632812 359.1875 312.179688 Z M 254.132812 104.308594 C 252.554688 99.789062 251.765625 95.140625 251.765625 90.355469 L 251.765625 69.316406 L 255.683594 69.316406 Z M 118.492188 26.871094 C 123.941406 24.558594 129.496094 22.527344 135.152344 20.769531 C 140.804688 19.015625 146.535156 17.546875 152.339844 16.367188 C 158.140625 15.1875 163.988281 14.304688 169.882812 13.710938 C 175.773438 13.117188 181.679688 12.820312 187.605469 12.820312 C 193.527344 12.820312 199.433594 13.117188 205.324219 13.710938 C 211.21875 14.304688 217.066406 15.1875 222.867188 16.367188 C 228.671875 17.546875 234.402344 19.015625 240.054688 20.769531 C 245.710938 22.527344 251.265625 24.558594 256.714844 26.871094 L 256.714844 39.347656 C 210.640625 35.890625 164.566406 35.890625 118.492188 39.347656 Z M 118.492188 46.582031 C 164.566406 43.089844 210.640625 43.089844 256.714844 46.582031 L 256.714844 51.011719 C 210.640625 48.289062 164.566406 48.289062 118.492188 51.011719 Z M 118.492188 58.316406 C 164.566406 55.578125 210.640625 55.578125 256.714844 58.316406 L 256.714844 61.933594 C 210.640625 64.804688 164.566406 64.804688 118.492188 61.933594 Z M 119.894531 69.097656 L 123.808594 69.097656 L 123.808594 90.207031 C 123.742188 95.085938 122.855469 99.808594 121.148438 104.378906 Z M 130.902344 154.578125 C 128.375 151.425781 126.40625 147.957031 125.003906 144.167969 C 123.601562 140.382812 122.835938 136.46875 122.703125 132.433594 L 122.035156 118.109375 C 123.519531 116.128906 124.835938 114.039062 125.976562 111.84375 C 127.117188 109.644531 128.070312 107.371094 128.835938 105.015625 C 129.601562 102.660156 130.171875 100.261719 130.542969 97.8125 C 130.914062 95.367188 131.082031 92.90625 131.050781 90.429688 L 131.050781 69.6875 C 149.890625 70.644531 168.726562 71.238281 187.566406 71.238281 C 206.40625 71.238281 225.320312 70.644531 244.082031 69.6875 L 244.082031 90.429688 C 244.042969 92.902344 244.207031 95.363281 244.574219 97.808594 C 244.941406 100.253906 245.503906 102.65625 246.261719 105.007812 C 247.023438 107.363281 247.96875 109.640625 249.105469 111.835938 C 250.238281 114.035156 251.542969 116.125 253.023438 118.109375 L 252.359375 132.503906 C 252.226562 136.542969 251.457031 140.453125 250.054688 144.242188 C 248.652344 148.03125 246.6875 151.5 244.15625 154.652344 L 217.488281 187.796875 C 216.855469 188.5625 216.140625 189.246094 215.347656 189.84375 C 214.554688 190.441406 213.703125 190.941406 212.789062 191.339844 C 211.878906 191.738281 210.933594 192.023438 209.953125 192.199219 C 208.976562 192.371094 207.988281 192.429688 206.996094 192.371094 L 189.339844 193.035156 L 185.570312 193.035156 L 167.621094 192.371094 C 166.648438 192.429688 165.683594 192.371094 164.726562 192.199219 C 163.769531 192.023438 162.847656 191.734375 161.957031 191.335938 C 161.070312 190.9375 160.242188 190.441406 159.476562 189.839844 C 158.710938 189.242188 158.027344 188.558594 157.425781 187.796875 Z M 225.320312 190.082031 L 225.320312 207.0625 C 219.203125 208.867188 212.988281 210.226562 206.675781 211.136719 C 200.363281 212.050781 194.019531 212.507812 187.640625 212.507812 C 181.261719 212.507812 174.917969 212.050781 168.605469 211.136719 C 162.292969 210.226562 156.078125 208.867188 149.960938 207.0625 L 149.960938 190.082031 L 151.957031 192.59375 C 152.898438 193.785156 153.96875 194.855469 155.160156 195.796875 C 156.355469 196.742188 157.640625 197.535156 159.019531 198.175781 C 160.398438 198.816406 161.835938 199.289062 163.324219 199.59375 C 164.816406 199.898438 166.320312 200.023438 167.839844 199.976562 L 185.5 200.640625 L 189.855469 200.640625 L 207.21875 199.976562 C 208.761719 200.046875 210.296875 199.9375 211.8125 199.644531 C 213.332031 199.351562 214.796875 198.886719 216.203125 198.242188 C 217.609375 197.601562 218.921875 196.800781 220.136719 195.847656 C 221.355469 194.890625 222.441406 193.808594 223.398438 192.59375 Z M 132.453125 285.160156 L 132.453125 363.410156 C 118.910156 361.539062 105.363281 359.078125 91.820312 356.027344 L 91.820312 309.519531 C 91.820312 309.03125 91.726562 308.5625 91.539062 308.109375 C 91.351562 307.65625 91.085938 307.257812 90.738281 306.910156 C 90.390625 306.566406 89.992188 306.296875 89.539062 306.109375 C 89.085938 305.925781 88.617188 305.832031 88.125 305.832031 C 87.636719 305.832031 87.164062 305.925781 86.714844 306.109375 C 86.261719 306.296875 85.859375 306.566406 85.515625 306.910156 C 85.167969 307.257812 84.902344 307.65625 84.714844 308.109375 C 84.527344 308.5625 84.433594 309.03125 84.433594 309.519531 L 84.433594 353.8125 C 63.140625 348.242188 42.355469 341.179688 22.078125 332.625 C 22.671875 325.613281 23.039062 318.601562 23.039062 311.660156 L 23.039062 295.644531 C 23.039062 276.449219 43.726562 258.292969 75.714844 249.359375 C 105.265625 241.09375 133.265625 230.460938 143.980469 226.253906 C 144.890625 225.84375 145.71875 225.308594 146.472656 224.652344 C 147.222656 223.996094 147.859375 223.242188 148.386719 222.394531 C 148.914062 221.546875 149.304688 220.640625 149.558594 219.675781 C 149.816406 218.710938 149.925781 217.730469 149.890625 216.730469 L 149.890625 214.148438 C 156.015625 215.890625 162.234375 217.203125 168.546875 218.085938 C 174.855469 218.964844 181.195312 219.40625 187.566406 219.40625 C 193.9375 219.40625 200.277344 218.964844 206.589844 218.085938 C 212.898438 217.203125 219.117188 215.890625 225.246094 214.148438 L 225.246094 216.730469 C 225.273438 218.480469 225.695312 220.128906 226.5 221.679688 L 150.703125 256.960938 C 149.355469 257.578125 148.058594 258.285156 146.8125 259.085938 C 145.566406 259.886719 144.382812 260.769531 143.261719 261.738281 C 142.144531 262.707031 141.097656 263.746094 140.125 264.863281 C 139.152344 265.980469 138.265625 267.160156 137.460938 268.402344 C 136.65625 269.644531 135.945312 270.9375 135.324219 272.28125 C 134.703125 273.625 134.183594 275.007812 133.757812 276.425781 C 133.335938 277.84375 133.015625 279.28125 132.796875 280.746094 C 132.578125 282.210938 132.464844 283.683594 132.453125 285.160156 Z M 294.984375 352.777344 L 294.984375 309.519531 C 294.984375 309.03125 294.890625 308.5625 294.703125 308.109375 C 294.515625 307.65625 294.25 307.257812 293.902344 306.910156 C 293.558594 306.566406 293.15625 306.296875 292.707031 306.109375 C 292.253906 305.925781 291.78125 305.832031 291.292969 305.832031 C 290.800781 305.832031 290.332031 305.925781 289.878906 306.109375 C 289.425781 306.296875 289.027344 306.566406 288.679688 306.910156 C 288.332031 307.257812 288.066406 307.65625 287.878906 308.109375 C 287.691406 308.5625 287.597656 309.03125 287.597656 309.519531 L 287.597656 354.699219 C 263.484375 360.863281 239.007812 364.761719 214.167969 366.386719 C 189.332031 368.011719 164.554688 367.339844 139.839844 364.367188 L 139.839844 285.160156 C 139.84375 284.03125 139.925781 282.90625 140.085938 281.789062 C 140.25 280.667969 140.488281 279.566406 140.808594 278.484375 C 141.125 277.398438 141.519531 276.339844 141.984375 275.3125 C 142.453125 274.28125 142.992188 273.292969 143.601562 272.339844 C 144.210938 271.386719 144.882812 270.480469 145.617188 269.625 C 146.355469 268.765625 147.148438 267.964844 148 267.21875 C 148.851562 266.476562 149.75 265.792969 150.699219 265.175781 C 151.644531 264.558594 152.632812 264.011719 153.65625 263.53125 L 232.78125 226.625 C 244.304688 231.125 271.050781 241.386719 299.269531 249.136719 C 331.261719 258.070312 351.945312 276.230469 351.945312 295.421875 L 351.945312 311.515625 C 351.945312 318.378906 351.945312 325.390625 352.90625 332.480469 C 333.996094 340.4375 314.640625 347.105469 294.839844 352.484375 Z M 294.984375 352.777344 " fill-opacity="1" fill-rule="nonzero"/></g><path fill="#000000" d="M 157.644531 277.410156 C 156.917969 277.410156 156.199219 277.480469 155.484375 277.625 C 154.769531 277.765625 154.078125 277.976562 153.40625 278.253906 C 152.734375 278.53125 152.09375 278.871094 151.488281 279.277344 C 150.882812 279.679688 150.324219 280.140625 149.808594 280.652344 C 149.296875 281.167969 148.835938 281.726562 148.433594 282.332031 C 148.027344 282.9375 147.6875 283.574219 147.40625 284.246094 C 147.128906 284.917969 146.917969 285.609375 146.777344 286.324219 C 146.636719 287.035156 146.5625 287.757812 146.5625 288.484375 C 146.5625 289.210938 146.636719 289.929688 146.777344 290.644531 C 146.917969 291.355469 147.128906 292.046875 147.40625 292.71875 C 147.6875 293.390625 148.027344 294.03125 148.433594 294.632812 C 148.835938 295.238281 149.296875 295.796875 149.808594 296.3125 C 150.324219 296.828125 150.882812 297.285156 151.488281 297.691406 C 152.09375 298.09375 152.734375 298.433594 153.40625 298.714844 C 154.078125 298.992188 154.769531 299.203125 155.484375 299.34375 C 156.199219 299.484375 156.917969 299.554688 157.644531 299.554688 C 158.375 299.554688 159.09375 299.484375 159.808594 299.34375 C 160.523438 299.203125 161.214844 298.992188 161.886719 298.714844 C 162.558594 298.433594 163.199219 298.09375 163.804688 297.691406 C 164.40625 297.285156 164.96875 296.828125 165.480469 296.3125 C 165.996094 295.796875 166.457031 295.238281 166.859375 294.632812 C 167.265625 294.03125 167.605469 293.390625 167.882812 292.71875 C 168.164062 292.046875 168.371094 291.355469 168.515625 290.644531 C 168.65625 289.929688 168.726562 289.210938 168.726562 288.484375 C 168.722656 287.757812 168.648438 287.039062 168.503906 286.328125 C 168.359375 285.617188 168.144531 284.925781 167.863281 284.257812 C 167.585938 283.585938 167.242188 282.953125 166.835938 282.347656 C 166.433594 281.746094 165.972656 281.1875 165.460938 280.675781 C 164.945312 280.160156 164.390625 279.703125 163.785156 279.300781 C 163.183594 278.894531 162.546875 278.550781 161.875 278.273438 C 161.207031 277.992188 160.515625 277.78125 159.804688 277.636719 C 159.089844 277.488281 158.371094 277.414062 157.644531 277.410156 Z M 157.644531 292.175781 C 157.136719 292.175781 156.648438 292.078125 156.175781 291.882812 C 155.707031 291.6875 155.289062 291.410156 154.929688 291.050781 C 154.570312 290.691406 154.292969 290.273438 154.097656 289.804688 C 153.902344 289.335938 153.804688 288.84375 153.804688 288.335938 C 153.804688 287.828125 153.902344 287.335938 154.097656 286.867188 C 154.292969 286.394531 154.570312 285.980469 154.929688 285.621094 C 155.289062 285.261719 155.707031 284.984375 156.175781 284.789062 C 156.648438 284.59375 157.136719 284.496094 157.644531 284.496094 C 158.15625 284.496094 158.644531 284.59375 159.117188 284.789062 C 159.585938 284.984375 160.003906 285.261719 160.363281 285.621094 C 160.722656 285.980469 161 286.394531 161.195312 286.867188 C 161.390625 287.335938 161.488281 287.828125 161.488281 288.335938 C 161.496094 288.59375 161.480469 288.851562 161.441406 289.105469 C 161.398438 289.359375 161.332031 289.609375 161.238281 289.851562 C 161.148438 290.089844 161.03125 290.320312 160.894531 290.539062 C 160.753906 290.757812 160.59375 290.960938 160.417969 291.144531 C 160.238281 291.332031 160.039062 291.5 159.828125 291.644531 C 159.613281 291.792969 159.390625 291.914062 159.152344 292.015625 C 158.914062 292.117188 158.667969 292.191406 158.414062 292.246094 C 158.160156 292.296875 157.90625 292.320312 157.644531 292.320312 Z M 157.644531 292.175781 " fill-opacity="1" fill-rule="nonzero"/><path fill="#000000" d="M 157.644531 309.003906 C 156.917969 309.003906 156.199219 309.074219 155.484375 309.21875 C 154.769531 309.359375 154.078125 309.570312 153.40625 309.847656 C 152.734375 310.125 152.09375 310.464844 151.488281 310.871094 C 150.882812 311.273438 150.324219 311.734375 149.808594 312.246094 C 149.296875 312.761719 148.835938 313.320312 148.433594 313.925781 C 148.027344 314.53125 147.6875 315.167969 147.40625 315.839844 C 147.128906 316.511719 146.917969 317.203125 146.777344 317.917969 C 146.636719 318.628906 146.5625 319.351562 146.5625 320.078125 C 146.5625 320.804688 146.636719 321.523438 146.777344 322.238281 C 146.917969 322.949219 147.128906 323.644531 147.40625 324.316406 C 147.6875 324.984375 148.027344 325.625 148.433594 326.230469 C 148.835938 326.832031 149.296875 327.394531 149.808594 327.90625 C 150.324219 328.421875 150.882812 328.878906 151.488281 329.285156 C 152.09375 329.6875 152.734375 330.027344 153.40625 330.308594 C 154.078125 330.585938 154.769531 330.796875 155.484375 330.9375 C 156.199219 331.078125 156.917969 331.148438 157.644531 331.148438 C 158.375 331.148438 159.09375 331.078125 159.808594 330.9375 C 160.523438 330.796875 161.214844 330.585938 161.886719 330.308594 C 162.558594 330.027344 163.199219 329.6875 163.804688 329.285156 C 164.40625 328.878906 164.96875 328.421875 165.480469 327.90625 C 165.996094 327.394531 166.457031 326.832031 166.859375 326.230469 C 167.265625 325.625 167.605469 324.984375 167.882812 324.316406 C 168.164062 323.644531 168.371094 322.949219 168.515625 322.238281 C 168.65625 321.523438 168.726562 320.804688 168.726562 320.078125 C 168.722656 319.351562 168.648438 318.632812 168.503906 317.921875 C 168.359375 317.210938 168.144531 316.519531 167.863281 315.851562 C 167.585938 315.183594 167.242188 314.546875 166.835938 313.941406 C 166.433594 313.339844 165.972656 312.78125 165.460938 312.269531 C 164.945312 311.757812 164.390625 311.296875 163.785156 310.894531 C 163.183594 310.488281 162.546875 310.148438 161.875 309.867188 C 161.207031 309.585938 160.515625 309.375 159.804688 309.230469 C 159.089844 309.085938 158.371094 309.007812 157.644531 309.003906 Z M 157.644531 323.769531 C 157.136719 323.769531 156.648438 323.671875 156.175781 323.476562 C 155.707031 323.28125 155.289062 323.003906 154.929688 322.644531 C 154.570312 322.285156 154.292969 321.867188 154.097656 321.398438 C 153.902344 320.929688 153.804688 320.4375 153.804688 319.929688 C 153.804688 319.421875 153.902344 318.929688 154.097656 318.460938 C 154.292969 317.992188 154.570312 317.574219 154.929688 317.214844 C 155.289062 316.855469 155.707031 316.578125 156.175781 316.382812 C 156.648438 316.1875 157.136719 316.089844 157.644531 316.089844 C 158.15625 316.089844 158.644531 316.1875 159.117188 316.382812 C 159.585938 316.578125 160.003906 316.855469 160.363281 317.214844 C 160.722656 317.574219 161 317.992188 161.195312 318.460938 C 161.390625 318.929688 161.488281 319.421875 161.488281 319.929688 C 161.496094 320.1875 161.480469 320.445312 161.441406 320.699219 C 161.398438 320.953125 161.332031 321.203125 161.238281 321.445312 C 161.148438 321.683594 161.03125 321.914062 160.894531 322.132812 C 160.753906 322.351562 160.59375 322.554688 160.417969 322.738281 C 160.238281 322.925781 160.039062 323.09375 159.828125 323.238281 C 159.613281 323.386719 159.390625 323.507812 159.152344 323.609375 C 158.914062 323.710938 158.667969 323.789062 158.414062 323.839844 C 158.160156 323.890625 157.90625 323.914062 157.644531 323.914062 Z M 157.644531 323.769531 " fill-opacity="1" fill-rule="nonzero"/><path fill="#000000" d="M 157.644531 340.597656 C 156.917969 340.597656 156.199219 340.667969 155.484375 340.8125 C 154.769531 340.953125 154.078125 341.164062 153.40625 341.441406 C 152.734375 341.71875 152.09375 342.0625 151.488281 342.464844 C 150.882812 342.867188 150.324219 343.328125 149.808594 343.84375 C 149.296875 344.355469 148.835938 344.914062 148.433594 345.519531 C 148.027344 346.125 147.6875 346.761719 147.40625 347.433594 C 147.128906 348.105469 146.917969 348.796875 146.777344 349.511719 C 146.636719 350.222656 146.5625 350.945312 146.5625 351.671875 C 146.5625 352.398438 146.636719 353.117188 146.777344 353.832031 C 146.917969 354.542969 147.128906 355.238281 147.40625 355.910156 C 147.6875 356.582031 148.027344 357.21875 148.433594 357.824219 C 148.835938 358.425781 149.296875 358.988281 149.808594 359.5 C 150.324219 360.015625 150.882812 360.472656 151.488281 360.878906 C 152.09375 361.28125 152.734375 361.625 153.40625 361.902344 C 154.078125 362.179688 154.769531 362.390625 155.484375 362.53125 C 156.199219 362.671875 156.917969 362.746094 157.644531 362.746094 C 158.375 362.746094 159.09375 362.671875 159.808594 362.53125 C 160.523438 362.390625 161.214844 362.179688 161.886719 361.902344 C 162.558594 361.625 163.199219 361.28125 163.804688 360.878906 C 164.40625 360.472656 164.96875 360.015625 165.480469 359.5 C 165.996094 358.988281 166.457031 358.425781 166.859375 357.824219 C 167.265625 357.21875 167.605469 356.582031 167.882812 355.910156 C 168.164062 355.238281 168.371094 354.542969 168.515625 353.832031 C 168.65625 353.117188 168.726562 352.398438 168.726562 351.671875 C 168.722656 350.945312 168.648438 350.226562 168.503906 349.515625 C 168.359375 348.804688 168.144531 348.113281 167.863281 347.445312 C 167.585938 346.777344 167.242188 346.140625 166.835938 345.535156 C 166.433594 344.933594 165.972656 344.375 165.460938 343.863281 C 164.945312 343.351562 164.390625 342.890625 163.785156 342.488281 C 163.183594 342.082031 162.546875 341.742188 161.875 341.460938 C 161.207031 341.179688 160.515625 340.96875 159.804688 340.824219 C 159.089844 340.679688 158.371094 340.601562 157.644531 340.597656 Z M 157.644531 355.363281 C 157.136719 355.363281 156.648438 355.265625 156.175781 355.070312 C 155.707031 354.875 155.289062 354.597656 154.929688 354.238281 C 154.570312 353.878906 154.292969 353.464844 154.097656 352.992188 C 153.902344 352.523438 153.804688 352.03125 153.804688 351.523438 C 153.804688 351.015625 153.902344 350.523438 154.097656 350.054688 C 154.292969 349.585938 154.570312 349.167969 154.929688 348.808594 C 155.289062 348.449219 155.707031 348.171875 156.175781 347.976562 C 156.648438 347.78125 157.136719 347.683594 157.644531 347.683594 C 158.15625 347.683594 158.644531 347.78125 159.117188 347.976562 C 159.585938 348.171875 160.003906 348.449219 160.363281 348.808594 C 160.722656 349.167969 161 349.585938 161.195312 350.054688 C 161.390625 350.523438 161.488281 351.015625 161.488281 351.523438 C 161.503906 351.785156 161.492188 352.046875 161.453125 352.304688 C 161.414062 352.5625 161.351562 352.816406 161.261719 353.0625 C 161.171875 353.308594 161.058594 353.539062 160.921875 353.761719 C 160.78125 353.984375 160.625 354.191406 160.445312 354.382812 C 160.265625 354.574219 160.066406 354.742188 159.851562 354.890625 C 159.636719 355.042969 159.410156 355.167969 159.167969 355.273438 C 158.929688 355.375 158.679688 355.453125 158.421875 355.503906 C 158.167969 355.558594 157.90625 355.585938 157.644531 355.582031 Z M 157.644531 355.363281 " fill-opacity="1" fill-rule="nonzero"/><path fill="#000000" d="M 265.140625 284.941406 L 215.714844 284.941406 C 215.234375 284.941406 214.773438 285.03125 214.328125 285.214844 C 213.886719 285.398438 213.492188 285.660156 213.15625 286 C 212.816406 286.339844 212.554688 286.730469 212.371094 287.171875 C 212.1875 287.617188 212.09375 288.078125 212.09375 288.558594 L 212.09375 303.320312 C 212.09375 303.800781 212.1875 304.261719 212.371094 304.703125 C 212.554688 305.148438 212.816406 305.539062 213.15625 305.878906 C 213.492188 306.21875 213.886719 306.480469 214.328125 306.664062 C 214.773438 306.847656 215.234375 306.9375 215.714844 306.9375 L 265.140625 306.9375 C 265.617188 306.9375 266.082031 306.847656 266.523438 306.664062 C 266.96875 306.480469 267.359375 306.21875 267.699219 305.878906 C 268.039062 305.539062 268.300781 305.148438 268.484375 304.703125 C 268.667969 304.261719 268.757812 303.800781 268.757812 303.320312 L 268.757812 288.558594 C 268.757812 288.078125 268.667969 287.617188 268.484375 287.171875 C 268.300781 286.730469 268.039062 286.339844 267.699219 286 C 267.359375 285.660156 266.96875 285.398438 266.523438 285.214844 C 266.082031 285.03125 265.617188 284.941406 265.140625 284.941406 Z M 261.519531 299.703125 L 219.335938 299.703125 L 219.335938 292.320312 L 261.519531 292.320312 Z M 261.519531 299.703125 " fill-opacity="1" fill-rule="nonzero"/></svg>