<svg xmlns="http://www.w3.org/2000/svg" xmlns:xlink="http://www.w3.org/1999/xlink" width="500" zoomAndPan="magnify" viewBox="0 0 375 374.999991" height="500" preserveAspectRatio="xMidYMid meet" version="1.0"><defs><clipPath id="acd31af922"><path d="M 25.078125 0 L 349.828125 0 L 349.828125 375 L 25.078125 375 Z M 25.078125 0 " clip-rule="nonzero"/></clipPath></defs><path fill="#000000" d="M 262.394531 56.3125 L 274.886719 56.3125 L 274.886719 68.808594 L 262.394531 68.808594 Z M 262.394531 56.3125 " fill-opacity="1" fill-rule="nonzero"/><path fill="#000000" d="M 287.375 56.3125 L 299.867188 56.3125 L 299.867188 68.808594 L 287.375 68.808594 Z M 287.375 56.3125 " fill-opacity="1" fill-rule="nonzero"/><path fill="#000000" d="M 312.355469 56.3125 L 324.847656 56.3125 L 324.847656 68.808594 L 312.355469 68.808594 Z M 312.355469 56.3125 " fill-opacity="1" fill-rule="nonzero"/><path fill="#000000" d="M 56.304688 62.558594 L 118.757812 62.558594 C 122.210938 62.558594 125 59.761719 125 56.3125 L 125 31.324219 C 125 27.875 122.210938 25.078125 118.757812 25.078125 L 56.304688 25.078125 C 52.851562 25.078125 50.058594 27.875 50.058594 31.324219 L 50.058594 56.3125 C 50.058594 59.761719 52.851562 62.558594 56.304688 62.558594 Z M 62.550781 37.570312 L 112.511719 37.570312 L 112.511719 50.066406 L 62.550781 50.066406 Z M 62.550781 37.570312 " fill-opacity="1" fill-rule="nonzero"/><path fill="#000000" d="M 187.453125 137.523438 C 135.800781 137.523438 93.773438 179.558594 93.773438 231.230469 C 93.773438 282.898438 135.800781 324.933594 187.453125 324.933594 C 239.105469 324.933594 281.132812 282.898438 281.132812 231.230469 C 281.132812 179.558594 239.105469 137.523438 187.453125 137.523438 Z M 187.453125 312.441406 C 160.0625 312.441406 135.84375 298.765625 121.128906 277.914062 C 131.921875 275.488281 138.105469 266.957031 143.179688 259.847656 C 149.1875 251.4375 153.265625 246.285156 161.203125 246.285156 C 169.140625 246.285156 173.21875 251.4375 179.226562 259.847656 C 185.203125 268.21875 192.644531 278.636719 207.40625 278.636719 C 222.175781 278.636719 229.625 268.21875 235.609375 259.839844 C 241.617188 251.433594 245.703125 246.277344 253.644531 246.277344 C 258.273438 246.277344 261.859375 248.132812 265.761719 252.355469 C 256.417969 286.914062 224.898438 312.441406 187.453125 312.441406 Z M 268.296875 238.039062 C 264.425781 235.539062 259.648438 233.789062 253.640625 233.789062 C 238.871094 233.789062 231.425781 244.210938 225.441406 252.582031 C 219.433594 260.988281 215.351562 266.144531 207.398438 266.144531 C 199.46875 266.144531 195.390625 260.988281 189.382812 252.582031 C 183.40625 244.210938 175.96875 233.785156 161.199219 233.785156 C 146.429688 233.785156 138.992188 244.203125 133.015625 252.574219 C 127.007812 260.984375 122.929688 266.136719 114.984375 266.136719 C 114.734375 266.136719 114.484375 266.105469 114.234375 266.085938 C 109.183594 255.515625 106.265625 243.722656 106.265625 231.230469 C 106.265625 186.449219 142.6875 150.019531 187.453125 150.019531 C 232.21875 150.019531 268.640625 186.449219 268.640625 231.230469 C 268.640625 233.527344 268.484375 235.789062 268.296875 238.039062 Z M 268.296875 238.039062 " fill-opacity="1" fill-rule="nonzero"/><g clip-path="url(#acd31af922)"><path fill="#000000" d="M 50.058594 374.910156 L 324.847656 374.910156 C 338.625 374.910156 349.828125 363.703125 349.828125 349.921875 L 349.828125 25.078125 C 349.828125 11.296875 338.625 0.0898438 324.847656 0.0898438 L 50.058594 0.0898438 C 36.28125 0.0898438 25.078125 11.296875 25.078125 25.078125 L 25.078125 349.921875 C 25.078125 363.703125 36.28125 374.910156 50.058594 374.910156 Z M 324.847656 362.414062 L 50.058594 362.414062 C 43.171875 362.414062 37.570312 356.8125 37.570312 349.921875 L 37.570312 100.042969 L 337.335938 100.042969 L 337.335938 349.921875 C 337.335938 356.8125 331.734375 362.414062 324.847656 362.414062 Z M 50.058594 12.585938 L 324.847656 12.585938 C 331.734375 12.585938 337.335938 18.1875 337.335938 25.078125 L 337.335938 87.546875 L 37.570312 87.546875 L 37.570312 25.078125 C 37.570312 18.1875 43.171875 12.585938 50.058594 12.585938 Z M 50.058594 12.585938 " fill-opacity="1" fill-rule="nonzero"/></g><path fill="#000000" d="M 262.394531 31.324219 L 274.886719 31.324219 L 274.886719 43.820312 L 262.394531 43.820312 Z M 262.394531 31.324219 " fill-opacity="1" fill-rule="nonzero"/><path fill="#000000" d="M 287.375 31.324219 L 299.867188 31.324219 L 299.867188 43.820312 L 287.375 43.820312 Z M 287.375 31.324219 " fill-opacity="1" fill-rule="nonzero"/><path fill="#000000" d="M 312.355469 31.324219 L 324.847656 31.324219 L 324.847656 43.820312 L 312.355469 43.820312 Z M 312.355469 31.324219 " fill-opacity="1" fill-rule="nonzero"/><path fill="#000000" d="M 224.925781 75.054688 C 238.703125 75.054688 249.90625 63.847656 249.90625 50.066406 C 249.90625 36.285156 238.703125 25.078125 224.925781 25.078125 C 211.148438 25.078125 199.945312 36.285156 199.945312 50.066406 C 199.945312 63.847656 211.148438 75.054688 224.925781 75.054688 Z M 224.925781 37.570312 C 231.8125 37.570312 237.414062 43.175781 237.414062 50.066406 C 237.414062 56.957031 231.8125 62.558594 224.925781 62.558594 C 218.035156 62.558594 212.433594 56.957031 212.433594 50.066406 C 212.433594 43.175781 218.035156 37.570312 224.925781 37.570312 Z M 224.925781 37.570312 " fill-opacity="1" fill-rule="nonzero"/><path fill="#000000" d="M 187.453125 156.265625 L 187.453125 168.757812 C 211.027344 168.757812 232.351562 181.816406 243.097656 202.835938 L 254.21875 197.152344 C 241.332031 171.933594 215.742188 156.265625 187.453125 156.265625 Z M 187.453125 156.265625 " fill-opacity="1" fill-rule="nonzero"/><path fill="#000000" d="M 187.453125 112.535156 C 122.023438 112.535156 68.792969 165.777344 68.792969 231.230469 C 68.792969 296.679688 122.023438 349.921875 187.453125 349.921875 C 252.882812 349.921875 306.113281 296.679688 306.113281 231.230469 C 306.113281 165.777344 252.882812 112.535156 187.453125 112.535156 Z M 187.453125 337.429688 C 128.910156 337.429688 81.285156 289.789062 81.285156 231.230469 C 81.285156 172.667969 128.910156 125.03125 187.453125 125.03125 C 245.996094 125.03125 293.621094 172.667969 293.621094 231.230469 C 293.621094 289.789062 245.996094 337.429688 187.453125 337.429688 Z M 187.453125 337.429688 " fill-opacity="1" fill-rule="nonzero"/></svg>