<svg xmlns="http://www.w3.org/2000/svg" xmlns:xlink="http://www.w3.org/1999/xlink" width="500" zoomAndPan="magnify" viewBox="0 0 375 374.999991" height="500" preserveAspectRatio="xMidYMid meet" version="1.0"><defs><clipPath id="a8183c0809"><path d="M 0 75.988281 L 375 75.988281 L 375 291.238281 L 0 291.238281 Z M 0 75.988281 " clip-rule="nonzero"/></clipPath></defs><g clip-path="url(#a8183c0809)"><path fill="#000000" d="M 337.585938 187.738281 C 317.644531 180.761719 290.128906 175.660156 255.945312 172.660156 L 255.945312 99.535156 C 255.945312 94.8125 259.84375 90.835938 264.640625 90.835938 C 269.4375 90.835938 273.261719 94.8125 273.261719 99.535156 L 273.261719 114.988281 C 273.261719 119.113281 276.5625 122.410156 280.683594 122.410156 C 284.808594 122.410156 288.105469 119.113281 288.105469 114.988281 L 288.105469 99.535156 C 288.179688 86.5625 277.609375 75.988281 264.640625 75.988281 C 251.671875 75.988281 241.101562 86.5625 241.101562 99.535156 L 241.101562 122.035156 L 201.292969 122.035156 L 201.292969 99.535156 C 201.292969 94.8125 205.191406 90.835938 209.988281 90.835938 C 214.789062 90.835938 218.6875 94.738281 218.6875 99.535156 L 218.6875 107.785156 C 218.6875 111.910156 221.984375 115.210938 226.109375 115.210938 C 230.230469 115.210938 233.53125 111.910156 233.53125 107.785156 L 233.53125 99.535156 C 233.53125 86.5625 222.960938 75.988281 209.988281 75.988281 C 197.019531 75.988281 186.449219 86.5625 186.449219 99.535156 L 186.449219 217.585938 C 186.375 221.710938 189.675781 225.011719 193.871094 225.011719 C 197.996094 225.011719 201.292969 221.710938 201.292969 217.585938 L 201.292969 209.335938 L 241.101562 209.335938 L 241.101562 224.785156 C 241.101562 228.910156 244.398438 232.210938 248.523438 232.210938 C 252.648438 232.210938 255.945312 228.910156 255.945312 224.785156 L 255.945312 187.585938 C 287.957031 190.511719 314.417969 195.386719 332.710938 201.835938 C 350.105469 207.910156 360.148438 215.488281 360.148438 222.535156 C 360.148438 225.535156 360.148438 231.761719 340.433594 235.960938 C 324.691406 239.335938 300.925781 240.3125 273.414062 241.511719 C 267.039062 241.8125 260.367188 242.035156 253.472656 242.410156 C 237.054688 243.160156 221.984375 250.285156 210.964844 262.363281 C 202.867188 271.285156 191.324219 276.386719 179.253906 276.386719 L 179.027344 276.386719 C 128.574219 276.386719 85.84375 271.136719 55.40625 261.085938 C 29.769531 252.6875 15.074219 241.4375 15.074219 230.335938 C 15.074219 210.6875 61.703125 188.710938 150.914062 184.960938 C 155.039062 184.8125 158.1875 181.285156 158.039062 177.238281 C 157.886719 173.113281 154.363281 169.886719 150.316406 170.113281 C 57.582031 174.011719 0.0820312 197.113281 0.0820312 230.335938 C 0.0820312 243.238281 8.851562 261.460938 50.683594 275.1875 C 82.621094 285.6875 126.925781 291.238281 178.953125 291.238281 L 179.179688 291.238281 C 195.371094 291.238281 210.964844 284.335938 221.910156 272.335938 C 230.230469 263.1875 241.703125 257.785156 254.070312 257.261719 C 260.96875 256.960938 267.566406 256.660156 273.9375 256.363281 C 303.324219 255.085938 326.488281 254.113281 343.433594 250.511719 C 351.230469 248.863281 374.917969 243.761719 374.917969 222.535156 C 374.917969 208.0625 362.324219 196.363281 337.585938 187.738281 Z M 241.027344 194.410156 L 201.21875 194.410156 L 201.21875 173.113281 L 241.027344 173.113281 Z M 241.027344 158.261719 L 201.21875 158.261719 L 201.21875 136.960938 L 241.027344 136.960938 Z M 241.027344 158.261719 " fill-opacity="1" fill-rule="nonzero"/></g></svg>