<svg xmlns="http://www.w3.org/2000/svg" xmlns:xlink="http://www.w3.org/1999/xlink" width="500" zoomAndPan="magnify" viewBox="0 0 375 374.999991" height="500" preserveAspectRatio="xMidYMid meet" version="1.0"><defs><clipPath id="6c323dfdbc"><path d="M 0 6.476562 L 375 6.476562 L 375 368.726562 L 0 368.726562 Z M 0 6.476562 " clip-rule="nonzero"/></clipPath></defs><g clip-path="url(#6c323dfdbc)"><path fill="#000000" d="M 368.746094 213.644531 L 368.714844 213.617188 C 365.164062 210.070312 360.367188 207.773438 355.070312 207.464844 C 355.164062 205.042969 355.210938 202.953125 355.210938 201.191406 C 355.210938 155.117188 336.375 113.230469 306.035156 82.875 C 281.472656 58.296875 249.355469 41.265625 213.574219 35.667969 C 213.582031 35.605469 213.589844 35.546875 213.589844 35.492188 L 213.675781 33.558594 C 213.675781 26.167969 210.769531 19.4375 206.09375 14.550781 C 201.351562 9.570312 194.773438 6.476562 187.539062 6.476562 L 187.460938 6.476562 C 180.226562 6.476562 173.65625 9.570312 168.898438 14.550781 C 164.21875 19.445312 161.316406 26.179688 161.316406 33.570312 L 161.34375 33.570312 L 161.398438 35.5 C 161.398438 35.566406 161.410156 35.621094 161.417969 35.679688 C 125.636719 41.265625 93.519531 58.296875 68.953125 82.882812 C 38.617188 113.238281 19.777344 155.128906 19.777344 201.199219 C 19.777344 202.960938 19.824219 205.042969 19.917969 207.472656 C 14.605469 207.78125 9.796875 210.078125 6.265625 213.644531 C 2.441406 217.460938 0.0625 222.730469 0.0625 228.523438 C 0.0625 233.730469 2 238.511719 5.179688 242.214844 C 5.09375 242.292969 5.007812 242.367188 4.933594 242.441406 C 1.925781 245.453125 0.0625 249.605469 0.0625 254.183594 L 0.0625 317.675781 C 0.0625 322.253906 1.925781 326.40625 4.933594 329.417969 L 4.960938 329.417969 C 7.96875 332.425781 12.113281 334.292969 16.667969 334.292969 L 39.292969 334.292969 L 39.292969 352.945312 C 39.292969 357.285156 41.074219 361.242188 43.921875 364.09375 C 46.78125 366.953125 50.714844 368.726562 55.066406 368.726562 L 147.199219 368.726562 C 151.539062 368.726562 155.484375 366.953125 158.34375 364.09375 C 161.203125 361.234375 162.972656 357.285156 162.972656 352.945312 L 162.972656 324.183594 L 250.039062 324.183594 C 257.894531 324.183594 265.316406 320.734375 271.699219 316.296875 C 277.648438 312.171875 282.644531 307.238281 286.113281 303.695312 C 291.726562 298.019531 316.167969 273.566406 316.167969 273.554688 C 320.273438 269.449219 322.324219 264.046875 322.324219 258.664062 C 322.324219 255.578125 321.632812 252.492188 320.28125 249.644531 L 353.851562 249.644531 C 359.449219 249.644531 364.554688 247.421875 368.351562 243.808594 L 368.746094 243.445312 C 372.566406 239.617188 374.9375 234.347656 374.9375 228.535156 C 374.9375 222.75 372.578125 217.488281 368.746094 213.644531 Z M 173.347656 33.558594 L 173.367188 33.558594 C 173.367188 29.367188 174.988281 25.570312 177.601562 22.832031 C 180.132812 20.175781 183.628906 18.527344 187.460938 18.527344 L 187.539062 18.527344 C 191.371094 18.527344 194.855469 20.175781 197.398438 22.832031 C 200.011719 25.570312 201.632812 29.367188 201.632812 33.558594 C 201.640625 33.804688 201.632812 34.027344 201.625 34.242188 C 197.058594 33.867188 192.449219 33.664062 187.800781 33.664062 L 187.199219 33.664062 C 182.542969 33.664062 177.929688 33.867188 173.375 34.242188 Z M 77.472656 91.398438 C 105.636719 63.21875 144.484375 45.730469 187.199219 45.730469 L 187.800781 45.730469 C 230.527344 45.730469 269.363281 63.21875 297.527344 91.398438 C 325.691406 119.578125 343.167969 158.4375 343.167969 201.191406 C 343.167969 203.515625 343.140625 205.503906 343.074219 207.117188 L 343.066406 207.417969 L 31.933594 207.417969 L 31.925781 207.117188 C 31.867188 205.503906 31.832031 203.515625 31.832031 201.191406 C 31.832031 158.449219 49.308594 119.578125 77.472656 91.398438 Z M 16.660156 322.222656 C 15.402344 322.222656 14.257812 321.71875 13.445312 320.882812 C 12.617188 320.058594 12.105469 318.914062 12.105469 317.667969 L 12.105469 254.171875 C 12.105469 252.925781 12.617188 251.789062 13.445312 250.957031 C 14.269531 250.132812 15.410156 249.613281 16.660156 249.613281 L 39.28125 249.613281 L 39.28125 322.214844 L 16.660156 322.214844 Z M 149.824219 355.550781 C 149.148438 356.226562 148.210938 356.648438 147.199219 356.648438 L 55.054688 356.648438 C 54.042969 356.648438 53.105469 356.226562 52.429688 355.550781 C 51.757812 354.875 51.335938 353.9375 51.335938 352.925781 L 51.335938 328.253906 C 51.335938 328.253906 51.335938 328.246094 51.335938 328.246094 C 51.335938 328.246094 51.335938 328.234375 51.335938 328.234375 L 51.335938 249.613281 L 150.921875 249.613281 L 150.921875 352.925781 C 150.910156 353.949219 150.488281 354.875 149.824219 355.550781 Z M 307.648438 252.25 L 307.902344 252.492188 C 309.484375 254.210938 310.273438 256.421875 310.273438 258.644531 C 310.273438 260.980469 309.402344 263.296875 307.648438 265.042969 C 297.582031 275.113281 287.566406 285.230469 277.5 295.292969 C 274.386719 298.480469 269.9375 302.878906 264.875 306.386719 C 260.246094 309.59375 255.070312 312.105469 250.039062 312.105469 L 162.972656 312.105469 L 162.972656 249.625 L 258.175781 249.625 C 260.667969 249.625 262.925781 250.636719 264.546875 252.257812 L 264.574219 252.289062 C 266.195312 253.910156 267.207031 256.171875 267.207031 258.671875 C 267.207031 261.167969 266.195312 263.429688 264.574219 265.050781 L 264.546875 265.078125 C 262.925781 266.699219 260.667969 267.714844 258.175781 267.714844 L 210.46875 267.714844 C 207.144531 267.714844 204.445312 270.414062 204.445312 273.742188 C 204.445312 277.070312 207.144531 279.773438 210.46875 279.773438 L 258.175781 279.773438 C 260.3125 279.773438 262.382812 279.445312 264.332031 278.84375 C 266.28125 279.285156 268.398438 278.75 269.917969 277.230469 C 278.25 268.894531 287.066406 260.539062 295.109375 252.015625 C 296.824219 250.429688 299.046875 249.632812 301.265625 249.632812 C 303.582031 249.625 305.90625 250.496094 307.648438 252.25 Z M 278.136719 251.941406 C 277.863281 251.144531 277.554688 250.375 277.199219 249.625 L 280.460938 249.625 Z M 360.234375 234.902344 L 359.992188 235.164062 C 358.386719 236.65625 356.234375 237.566406 353.863281 237.566406 L 301.277344 237.566406 C 301.277344 237.566406 301.265625 237.566406 301.265625 237.566406 C 301.265625 237.566406 301.257812 237.566406 301.257812 237.566406 L 258.191406 237.566406 C 258.183594 237.566406 258.183594 237.566406 258.175781 237.566406 C 258.175781 237.566406 258.164062 237.566406 258.164062 237.566406 L 156.949219 237.566406 C 156.949219 237.566406 156.9375 237.566406 156.9375 237.566406 L 21.148438 237.566406 C 18.671875 237.566406 16.414062 236.542969 14.773438 234.902344 L 14.511719 234.65625 C 13.03125 233.054688 12.113281 230.898438 12.113281 228.515625 C 12.113281 226.023438 13.125 223.761719 14.746094 222.140625 L 14.773438 222.140625 C 16.414062 220.5 18.671875 219.476562 21.15625 219.476562 L 353.863281 219.476562 C 356.355469 219.476562 358.613281 220.488281 360.234375 222.109375 L 360.261719 222.140625 C 361.882812 223.761719 362.894531 226.023438 362.894531 228.523438 C 362.886719 231 361.875 233.261719 360.234375 234.902344 Z M 360.234375 234.902344 " fill-opacity="1" fill-rule="nonzero"/></g></svg>