<svg xmlns="http://www.w3.org/2000/svg" xmlns:xlink="http://www.w3.org/1999/xlink" width="500" zoomAndPan="magnify" viewBox="0 0 375 374.999991" height="500" preserveAspectRatio="xMidYMid meet" version="1.0"><defs><clipPath id="86bcbf8890"><path d="M 4 0 L 372.046875 0 L 372.046875 367 L 4 367 Z M 4 0 " clip-rule="nonzero"/></clipPath></defs><path fill="#000000" d="M 333.449219 27.039062 C 333.449219 26.425781 333.390625 25.820312 333.273438 25.21875 C 333.152344 24.621094 332.976562 24.035156 332.742188 23.472656 C 332.507812 22.90625 332.222656 22.367188 331.882812 21.859375 C 331.542969 21.347656 331.160156 20.878906 330.726562 20.445312 C 330.292969 20.011719 329.824219 19.625 329.316406 19.28125 C 328.808594 18.941406 328.273438 18.652344 327.707031 18.417969 C 327.140625 18.179688 326.558594 18.003906 325.960938 17.882812 C 325.359375 17.761719 324.753906 17.699219 324.140625 17.699219 L 320.296875 17.699219 C 319.757812 17.695312 319.234375 17.785156 318.722656 17.960938 C 318.214844 18.136719 317.746094 18.390625 317.324219 18.726562 C 316.898438 19.058594 316.542969 19.453125 316.25 19.90625 C 315.960938 20.359375 315.75 20.847656 315.625 21.371094 C 315.496094 21.898438 315.460938 22.425781 315.511719 22.964844 C 315.5625 23.5 315.703125 24.015625 315.925781 24.503906 C 316.152344 24.992188 316.449219 25.433594 316.824219 25.824219 C 317.195312 26.210938 317.625 26.53125 318.101562 26.777344 L 251.351562 26.777344 C 251.039062 26.777344 250.726562 26.808594 250.414062 26.867188 C 250.105469 26.929688 249.804688 27.019531 249.515625 27.140625 C 249.222656 27.261719 248.945312 27.410156 248.683594 27.585938 C 248.421875 27.761719 248.179688 27.960938 247.957031 28.183594 C 247.734375 28.40625 247.535156 28.648438 247.359375 28.910156 C 247.183594 29.171875 247.035156 29.449219 246.914062 29.742188 C 246.792969 30.03125 246.703125 30.332031 246.640625 30.640625 C 246.578125 30.953125 246.546875 31.265625 246.546875 31.578125 C 246.546875 31.894531 246.578125 32.207031 246.640625 32.515625 C 246.703125 32.824219 246.792969 33.125 246.914062 33.417969 C 247.035156 33.710938 247.183594 33.984375 247.359375 34.25 C 247.535156 34.511719 247.734375 34.753906 247.957031 34.976562 C 248.179688 35.199219 248.421875 35.398438 248.683594 35.574219 C 248.945312 35.75 249.222656 35.898438 249.515625 36.015625 C 249.804688 36.136719 250.105469 36.230469 250.414062 36.289062 C 250.726562 36.351562 251.039062 36.382812 251.351562 36.382812 L 324.140625 36.382812 C 324.753906 36.382812 325.359375 36.320312 325.960938 36.199219 C 326.558594 36.078125 327.140625 35.898438 327.707031 35.664062 C 328.273438 35.425781 328.808594 35.140625 329.316406 34.796875 C 329.824219 34.457031 330.296875 34.070312 330.726562 33.636719 C 331.160156 33.203125 331.546875 32.730469 331.886719 32.21875 C 332.222656 31.710938 332.511719 31.171875 332.742188 30.605469 C 332.976562 30.042969 333.152344 29.457031 333.273438 28.859375 C 333.390625 28.257812 333.449219 27.652344 333.449219 27.039062 Z M 333.449219 27.039062 " fill-opacity="1" fill-rule="nonzero"/><path fill="#000000" d="M 324.140625 79.289062 C 324.753906 79.289062 325.363281 79.226562 325.964844 79.109375 C 326.566406 78.988281 327.148438 78.8125 327.714844 78.578125 C 328.285156 78.339844 328.820312 78.054688 329.332031 77.714844 C 329.84375 77.371094 330.3125 76.984375 330.746094 76.550781 C 331.179688 76.117188 331.570312 75.644531 331.910156 75.136719 C 332.25 74.625 332.539062 74.085938 332.773438 73.519531 C 333.007812 72.953125 333.183594 72.371094 333.304688 71.769531 C 333.425781 71.167969 333.484375 70.558594 333.484375 69.945312 C 333.484375 69.332031 333.425781 68.726562 333.304688 68.125 C 333.183594 67.523438 333.007812 66.9375 332.773438 66.371094 C 332.539062 65.804688 332.25 65.265625 331.910156 64.757812 C 331.570312 64.246094 331.179688 63.773438 330.746094 63.339844 C 330.3125 62.90625 329.84375 62.519531 329.332031 62.179688 C 328.820312 61.839844 328.285156 61.550781 327.714844 61.316406 C 327.148438 61.082031 326.566406 60.90625 325.964844 60.785156 C 325.363281 60.664062 324.753906 60.605469 324.140625 60.605469 L 320.296875 60.605469 C 319.757812 60.605469 319.234375 60.691406 318.722656 60.867188 C 318.214844 61.042969 317.75 61.300781 317.324219 61.632812 C 316.902344 61.964844 316.542969 62.359375 316.25 62.8125 C 315.960938 63.265625 315.75 63.753906 315.625 64.277344 C 315.496094 64.800781 315.460938 65.332031 315.511719 65.867188 C 315.5625 66.402344 315.699219 66.917969 315.925781 67.40625 C 316.148438 67.898438 316.445312 68.335938 316.820312 68.726562 C 317.191406 69.117188 317.617188 69.433594 318.097656 69.679688 L 251.351562 69.679688 C 251.039062 69.679688 250.726562 69.710938 250.414062 69.773438 C 250.105469 69.835938 249.804688 69.925781 249.515625 70.046875 C 249.222656 70.167969 248.945312 70.316406 248.683594 70.488281 C 248.421875 70.664062 248.179688 70.863281 247.957031 71.085938 C 247.734375 71.308594 247.535156 71.554688 247.359375 71.816406 C 247.183594 72.078125 247.035156 72.355469 246.914062 72.644531 C 246.792969 72.9375 246.703125 73.238281 246.640625 73.546875 C 246.578125 73.855469 246.546875 74.167969 246.546875 74.484375 C 246.546875 74.800781 246.578125 75.113281 246.640625 75.421875 C 246.703125 75.730469 246.792969 76.03125 246.914062 76.320312 C 247.035156 76.613281 247.183594 76.890625 247.359375 77.152344 C 247.535156 77.414062 247.734375 77.65625 247.957031 77.878906 C 248.179688 78.105469 248.421875 78.300781 248.683594 78.476562 C 248.945312 78.652344 249.222656 78.800781 249.515625 78.921875 C 249.804688 79.042969 250.105469 79.132812 250.414062 79.195312 C 250.726562 79.257812 251.039062 79.289062 251.351562 79.289062 Z M 324.140625 79.289062 " fill-opacity="1" fill-rule="nonzero"/><path fill="#000000" d="M 324.140625 103.507812 L 320.296875 103.507812 C 319.757812 103.507812 319.234375 103.59375 318.722656 103.769531 C 318.214844 103.945312 317.746094 104.203125 317.324219 104.535156 C 316.898438 104.867188 316.542969 105.261719 316.25 105.714844 C 315.960938 106.167969 315.75 106.65625 315.625 107.183594 C 315.496094 107.707031 315.460938 108.234375 315.511719 108.773438 C 315.5625 109.308594 315.703125 109.824219 315.925781 110.3125 C 316.152344 110.804688 316.449219 111.242188 316.824219 111.632812 C 317.195312 112.023438 317.625 112.339844 318.101562 112.585938 L 251.351562 112.585938 C 251.039062 112.585938 250.726562 112.617188 250.414062 112.675781 C 250.105469 112.738281 249.804688 112.828125 249.515625 112.949219 C 249.222656 113.070312 248.945312 113.21875 248.683594 113.394531 C 248.421875 113.570312 248.179688 113.769531 247.957031 113.992188 C 247.734375 114.214844 247.535156 114.457031 247.359375 114.71875 C 247.183594 114.980469 247.035156 115.257812 246.914062 115.550781 C 246.792969 115.839844 246.703125 116.140625 246.640625 116.453125 C 246.578125 116.761719 246.546875 117.074219 246.546875 117.386719 C 246.546875 117.703125 246.578125 118.015625 246.640625 118.324219 C 246.703125 118.636719 246.792969 118.933594 246.914062 119.226562 C 247.035156 119.519531 247.183594 119.796875 247.359375 120.058594 C 247.535156 120.320312 247.734375 120.5625 247.957031 120.785156 C 248.179688 121.007812 248.421875 121.207031 248.683594 121.382812 C 248.945312 121.558594 249.222656 121.707031 249.515625 121.828125 C 249.804688 121.945312 250.105469 122.039062 250.414062 122.101562 C 250.726562 122.160156 251.039062 122.191406 251.351562 122.191406 L 324.140625 122.191406 C 324.746094 122.179688 325.347656 122.109375 325.941406 121.984375 C 326.53125 121.855469 327.105469 121.671875 327.664062 121.433594 C 328.222656 121.191406 328.75 120.902344 329.25 120.558594 C 329.75 120.214844 330.214844 119.828125 330.636719 119.394531 C 331.0625 118.960938 331.441406 118.492188 331.773438 117.988281 C 332.109375 117.480469 332.390625 116.945312 332.621094 116.386719 C 332.847656 115.824219 333.023438 115.246094 333.140625 114.652344 C 333.257812 114.054688 333.316406 113.457031 333.316406 112.847656 C 333.316406 112.242188 333.257812 111.640625 333.140625 111.046875 C 333.023438 110.453125 332.847656 109.875 332.621094 109.3125 C 332.390625 108.753906 332.109375 108.21875 331.773438 107.710938 C 331.441406 107.207031 331.0625 106.734375 330.636719 106.304688 C 330.214844 105.871094 329.75 105.484375 329.25 105.140625 C 328.75 104.796875 328.222656 104.507812 327.664062 104.265625 C 327.105469 104.027344 326.53125 103.84375 325.941406 103.714844 C 325.347656 103.585938 324.746094 103.519531 324.140625 103.507812 Z M 324.140625 103.507812 " fill-opacity="1" fill-rule="nonzero"/><g clip-path="url(#86bcbf8890)"><path fill="#000000" d="M 367.304688 129.5 L 354.617188 129.5 C 364.136719 118.613281 361.519531 99.226562 349.492188 91.390625 C 363.976562 81.734375 363.976562 58.140625 349.492188 48.480469 C 369.855469 34.207031 359.902344 0.691406 334.453125 0.765625 L 245.523438 0.765625 C 220.019531 0.804688 210.101562 34.042969 230.484375 48.480469 C 215.996094 58.136719 216.003906 81.730469 230.484375 91.390625 C 218.464844 99.222656 215.851562 118.613281 225.359375 129.5 L 208.703125 129.5 C 208.976562 128.972656 209.21875 128.429688 209.429688 127.871094 C 209.640625 127.316406 209.820312 126.75 209.96875 126.171875 C 210.117188 125.597656 210.230469 125.015625 210.3125 124.425781 C 210.394531 123.835938 210.445312 123.246094 210.460938 122.648438 C 210.476562 122.054688 210.460938 121.460938 210.410156 120.871094 C 210.359375 120.277344 210.277344 119.6875 210.160156 119.105469 C 210.042969 118.523438 209.894531 117.945312 209.714844 117.378906 C 209.535156 116.8125 209.324219 116.257812 209.078125 115.714844 C 208.835938 115.171875 208.5625 114.644531 208.261719 114.132812 C 207.960938 113.621094 207.628906 113.125 207.273438 112.648438 C 206.914062 112.175781 206.53125 111.71875 206.125 111.289062 C 205.714844 110.855469 205.285156 110.445312 204.832031 110.0625 C 204.375 109.675781 203.902344 109.320312 203.410156 108.988281 C 202.914062 108.65625 202.402344 108.355469 201.875 108.082031 C 201.347656 107.808594 200.804688 107.5625 200.25 107.351562 C 199.695312 107.136719 199.128906 106.953125 198.554688 106.804688 C 198.597656 105.28125 198.570312 103.753906 198.46875 102.234375 C 198.367188 100.710938 198.191406 99.195312 197.941406 97.691406 C 197.691406 96.183594 197.367188 94.695312 196.972656 93.21875 C 196.578125 91.746094 196.113281 90.292969 195.578125 88.867188 C 195.042969 87.4375 194.4375 86.039062 193.765625 84.667969 C 193.09375 83.296875 192.355469 81.964844 191.550781 80.664062 C 190.75 79.367188 189.886719 78.109375 188.960938 76.894531 C 188.039062 75.679688 187.054688 74.515625 186.019531 73.394531 C 184.980469 72.277344 183.890625 71.210938 182.746094 70.199219 C 181.605469 69.1875 180.417969 68.230469 179.183594 67.335938 C 177.945312 66.4375 176.671875 65.601562 175.355469 64.828125 C 174.039062 64.054688 172.6875 63.347656 171.304688 62.707031 C 169.917969 62.066406 168.503906 61.492188 167.0625 60.988281 C 165.621094 60.484375 164.160156 60.054688 162.679688 59.691406 C 161.195312 59.328125 159.699219 59.039062 158.1875 58.824219 C 156.675781 58.609375 155.15625 58.46875 153.632812 58.398438 L 153.632812 52.878906 C 153.632812 52.5625 153.601562 52.25 153.539062 51.941406 C 153.476562 51.632812 153.386719 51.332031 153.265625 51.039062 C 153.144531 50.75 152.996094 50.472656 152.824219 50.210938 C 152.648438 49.945312 152.449219 49.703125 152.226562 49.480469 C 152 49.257812 151.757812 49.058594 151.496094 48.882812 C 151.234375 48.707031 150.957031 48.5625 150.667969 48.441406 C 150.375 48.320312 150.074219 48.226562 149.765625 48.167969 C 149.457031 48.105469 149.144531 48.074219 148.828125 48.074219 C 148.511719 48.074219 148.199219 48.105469 147.890625 48.167969 C 147.582031 48.226562 147.28125 48.320312 146.988281 48.441406 C 146.699219 48.5625 146.421875 48.707031 146.15625 48.882812 C 145.894531 49.058594 145.652344 49.257812 145.429688 49.480469 C 145.207031 49.703125 145.007812 49.945312 144.832031 50.210938 C 144.65625 50.472656 144.507812 50.75 144.386719 51.039062 C 144.269531 51.332031 144.175781 51.632812 144.113281 51.941406 C 144.054688 52.25 144.023438 52.5625 144.023438 52.878906 L 144.023438 58.398438 C 142.496094 58.464844 140.980469 58.609375 139.46875 58.824219 C 137.957031 59.039062 136.460938 59.328125 134.976562 59.691406 C 133.492188 60.050781 132.03125 60.484375 130.589844 60.988281 C 129.148438 61.492188 127.734375 62.0625 126.347656 62.707031 C 124.964844 63.347656 123.613281 64.054688 122.296875 64.828125 C 120.980469 65.597656 119.703125 66.433594 118.46875 67.332031 C 117.234375 68.226562 116.042969 69.183594 114.902344 70.195312 C 113.761719 71.207031 112.667969 72.273438 111.632812 73.394531 C 110.59375 74.511719 109.609375 75.679688 108.6875 76.894531 C 107.761719 78.105469 106.898438 79.363281 106.09375 80.660156 C 105.292969 81.960938 104.554688 83.292969 103.882812 84.664062 C 103.210938 86.035156 102.605469 87.433594 102.070312 88.863281 C 101.53125 90.292969 101.066406 91.746094 100.671875 93.21875 C 100.277344 94.691406 99.953125 96.183594 99.707031 97.6875 C 99.457031 99.195312 99.277344 100.710938 99.175781 102.230469 C 99.074219 103.753906 99.046875 105.28125 99.09375 106.804688 C 98.515625 106.953125 97.949219 107.136719 97.394531 107.351562 C 96.839844 107.5625 96.296875 107.808594 95.769531 108.082031 C 95.242188 108.355469 94.730469 108.65625 94.238281 108.988281 C 93.742188 109.320312 93.269531 109.675781 92.8125 110.0625 C 92.359375 110.445312 91.929688 110.855469 91.519531 111.289062 C 91.113281 111.71875 90.730469 112.175781 90.371094 112.648438 C 90.015625 113.125 89.683594 113.621094 89.382812 114.132812 C 89.082031 114.644531 88.808594 115.171875 88.566406 115.714844 C 88.324219 116.257812 88.109375 116.8125 87.929688 117.378906 C 87.75 117.945312 87.601562 118.523438 87.484375 119.105469 C 87.367188 119.6875 87.285156 120.277344 87.234375 120.871094 C 87.183594 121.460938 87.167969 122.054688 87.183594 122.648438 C 87.199219 123.246094 87.25 123.835938 87.332031 124.425781 C 87.414062 125.015625 87.53125 125.597656 87.679688 126.171875 C 87.824219 126.75 88.003906 127.316406 88.214844 127.871094 C 88.429688 128.429688 88.667969 128.972656 88.941406 129.5 L 74.476562 129.5 L 74.476562 103.304688 C 74.46875 101.039062 74.242188 98.796875 73.796875 96.574219 C 73.351562 94.351562 72.691406 92.195312 71.824219 90.105469 C 70.957031 88.011719 69.894531 86.023438 68.636719 84.136719 C 67.378906 82.25 65.953125 80.507812 64.355469 78.898438 L 38.890625 53.445312 C 38.429688 52.984375 37.945312 52.546875 37.441406 52.132812 C 36.9375 51.71875 36.414062 51.332031 35.871094 50.96875 C 35.328125 50.609375 34.769531 50.273438 34.191406 49.964844 C 33.617188 49.660156 33.027344 49.378906 32.425781 49.128906 C 31.820312 48.882812 31.207031 48.664062 30.582031 48.472656 C 29.960938 48.285156 29.328125 48.125 28.6875 48 C 28.046875 47.871094 27.402344 47.777344 26.753906 47.714844 C 26.105469 47.648438 25.453125 47.617188 24.800781 47.617188 C 24.148438 47.617188 23.496094 47.652344 22.847656 47.714844 C 22.199219 47.78125 21.554688 47.875 20.914062 48.003906 C 20.273438 48.132812 19.640625 48.289062 19.019531 48.480469 C 18.394531 48.667969 17.78125 48.890625 17.175781 49.136719 C 16.574219 49.386719 15.984375 49.667969 15.410156 49.976562 C 14.835938 50.28125 14.277344 50.617188 13.734375 50.980469 C 13.191406 51.34375 12.667969 51.730469 12.164062 52.144531 C 11.660156 52.558594 11.179688 52.996094 10.714844 53.460938 C 10.253906 53.921875 9.816406 54.402344 9.40625 54.90625 C 8.992188 55.414062 8.601562 55.9375 8.242188 56.480469 C 7.878906 57.019531 7.542969 57.582031 7.238281 58.15625 C 6.929688 58.730469 6.652344 59.320312 6.402344 59.921875 C 6.152344 60.527344 5.933594 61.140625 5.742188 61.761719 C 5.554688 62.386719 5.398438 63.019531 5.269531 63.660156 C 5.144531 64.300781 5.046875 64.945312 4.984375 65.59375 C 4.921875 66.242188 4.890625 66.894531 4.890625 67.546875 C 4.890625 68.199219 4.921875 68.847656 4.984375 69.496094 C 5.050781 70.144531 5.144531 70.789062 5.273438 71.429688 C 5.402344 72.070312 5.558594 72.703125 5.75 73.328125 C 5.941406 73.949219 6.160156 74.5625 6.410156 75.167969 C 6.660156 75.769531 6.9375 76.355469 7.246094 76.933594 C 7.554688 77.507812 7.890625 78.066406 8.253906 78.609375 C 8.613281 79.152344 9.003906 79.671875 9.417969 80.175781 C 9.832031 80.683594 10.269531 81.164062 10.730469 81.625 L 33.214844 104.105469 C 33.667969 104.554688 34.015625 105.070312 34.257812 105.660156 C 34.503906 106.246094 34.625 106.859375 34.625 107.496094 L 34.625 312.476562 C 34.628906 313.445312 34.675781 314.414062 34.769531 315.378906 C 34.867188 316.34375 35.007812 317.300781 35.199219 318.25 C 35.386719 319.199219 35.621094 320.140625 35.902344 321.066406 C 36.1875 321.996094 36.511719 322.90625 36.882812 323.800781 C 37.253906 324.699219 37.667969 325.574219 38.125 326.429688 C 38.582031 327.28125 39.078125 328.113281 39.617188 328.917969 C 40.15625 329.726562 40.734375 330.503906 41.347656 331.253906 C 41.960938 332.003906 42.613281 332.71875 43.296875 333.40625 C 43.984375 334.09375 44.699219 334.742188 45.449219 335.359375 C 46.199219 335.972656 46.976562 336.550781 47.78125 337.089844 C 48.585938 337.628906 49.417969 338.128906 50.273438 338.585938 C 51.125 339.042969 52 339.457031 52.898438 339.828125 C 53.792969 340.203125 54.703125 340.527344 55.632812 340.8125 C 56.558594 341.09375 57.496094 341.332031 58.449219 341.519531 C 59.398438 341.710938 60.355469 341.855469 61.320312 341.949219 C 62.285156 342.046875 63.253906 342.097656 64.222656 342.097656 L 110.992188 342.097656 C 121.171875 374.253906 166.726562 374.234375 176.878906 342.097656 L 260.089844 342.097656 C 270.269531 374.253906 315.804688 374.234375 325.972656 342.097656 L 340.976562 342.097656 C 341.996094 342.097656 343.011719 342.046875 344.027344 341.945312 C 345.042969 341.84375 346.046875 341.695312 347.046875 341.492188 C 348.046875 341.292969 349.035156 341.046875 350.011719 340.75 C 350.984375 340.453125 351.945312 340.109375 352.886719 339.71875 C 353.828125 339.328125 354.746094 338.894531 355.644531 338.414062 C 356.546875 337.929688 357.417969 337.40625 358.265625 336.839844 C 359.113281 336.273438 359.929688 335.667969 360.71875 335.023438 C 361.507812 334.375 362.261719 333.691406 362.980469 332.972656 C 363.703125 332.25 364.386719 331.496094 365.03125 330.707031 C 365.679688 329.921875 366.285156 329.101562 366.851562 328.257812 C 367.417969 327.410156 367.941406 326.535156 368.425781 325.636719 C 368.90625 324.738281 369.339844 323.820312 369.730469 322.878906 C 370.121094 321.9375 370.464844 320.976562 370.761719 320.003906 C 371.058594 319.027344 371.308594 318.039062 371.507812 317.042969 C 371.707031 316.042969 371.855469 315.035156 371.957031 314.019531 C 372.058594 313.007812 372.109375 311.992188 372.109375 310.972656 L 372.109375 134.304688 C 372.109375 133.988281 372.082031 133.675781 372.019531 133.367188 C 371.957031 133.054688 371.867188 132.753906 371.746094 132.464844 C 371.625 132.171875 371.476562 131.894531 371.300781 131.632812 C 371.125 131.371094 370.925781 131.128906 370.703125 130.90625 C 370.480469 130.683594 370.238281 130.484375 369.972656 130.308594 C 369.710938 130.132812 369.433594 129.984375 369.144531 129.863281 C 368.851562 129.742188 368.550781 129.652344 368.242188 129.589844 C 367.929688 129.53125 367.617188 129.5 367.304688 129.5 Z M 109.023438 101.519531 C 113.9375 53.566406 189.824219 57.824219 188.941406 106.234375 L 108.710938 106.234375 C 108.78125 104.640625 108.882812 103.066406 109.023438 101.519531 Z M 103.054688 115.84375 L 194.59375 115.84375 C 195.011719 115.84375 195.425781 115.882812 195.832031 115.964844 C 196.242188 116.046875 196.640625 116.164062 197.023438 116.324219 C 197.410156 116.484375 197.777344 116.679688 198.121094 116.910156 C 198.46875 117.144531 198.789062 117.40625 199.085938 117.703125 C 199.378906 117.996094 199.644531 118.316406 199.875 118.664062 C 200.105469 119.011719 200.300781 119.375 200.460938 119.761719 C 200.621094 120.148438 200.742188 120.542969 200.824219 120.953125 C 200.90625 121.363281 200.945312 121.773438 200.945312 122.191406 C 200.945312 122.609375 200.90625 123.023438 200.824219 123.429688 C 200.742188 123.839844 200.621094 124.238281 200.460938 124.621094 C 200.300781 125.007812 200.105469 125.375 199.875 125.71875 C 199.644531 126.066406 199.378906 126.386719 199.085938 126.683594 C 198.789062 126.976562 198.46875 127.242188 198.121094 127.472656 C 197.777344 127.703125 197.410156 127.898438 197.023438 128.058594 C 196.640625 128.21875 196.242188 128.339844 195.832031 128.421875 C 195.425781 128.5 195.011719 128.542969 194.59375 128.542969 L 103.054688 128.542969 C 102.648438 128.523438 102.25 128.46875 101.855469 128.375 C 101.464844 128.277344 101.082031 128.148438 100.714844 127.980469 C 100.34375 127.8125 99.996094 127.613281 99.664062 127.378906 C 99.332031 127.144531 99.027344 126.878906 98.75 126.585938 C 98.46875 126.292969 98.21875 125.976562 98 125.636719 C 97.78125 125.296875 97.59375 124.9375 97.445312 124.5625 C 97.292969 124.1875 97.179688 123.800781 97.101562 123.402344 C 97.027344 123.003906 96.988281 122.601562 96.988281 122.199219 C 96.988281 121.792969 97.027344 121.390625 97.101562 120.996094 C 97.179688 120.597656 97.292969 120.210938 97.445312 119.835938 C 97.59375 119.457031 97.78125 119.101562 98 118.761719 C 98.21875 118.417969 98.46875 118.101562 98.75 117.808594 C 99.027344 117.515625 99.332031 117.253906 99.664062 117.019531 C 99.996094 116.785156 100.34375 116.585938 100.714844 116.417969 C 101.082031 116.25 101.464844 116.117188 101.855469 116.023438 C 102.25 115.929688 102.648438 115.871094 103.054688 115.855469 Z M 315.933594 306.15625 C 315.152344 305.464844 314.339844 304.8125 313.496094 304.199219 C 312.65625 303.582031 311.789062 303.003906 310.894531 302.46875 C 310 301.929688 309.082031 301.433594 308.144531 300.980469 C 307.207031 300.523438 306.246094 300.113281 305.273438 299.746094 C 304.296875 299.378906 303.304688 299.054688 302.300781 298.773438 C 301.296875 298.496094 300.277344 298.261719 299.253906 298.074219 C 298.226562 297.886719 297.195312 297.746094 296.15625 297.652344 C 295.117188 297.558594 294.074219 297.511719 293.03125 297.511719 C 291.988281 297.511719 290.949219 297.558594 289.910156 297.652344 C 288.871094 297.746094 287.835938 297.886719 286.8125 298.074219 C 285.785156 298.261719 284.769531 298.496094 283.765625 298.773438 C 282.757812 299.054688 281.769531 299.378906 280.792969 299.746094 C 279.816406 300.113281 278.859375 300.523438 277.921875 300.980469 C 276.980469 301.433594 276.066406 301.929688 275.171875 302.46875 C 274.277344 303.003906 273.410156 303.582031 272.566406 304.199219 C 271.726562 304.8125 270.914062 305.464844 270.128906 306.15625 L 246.449219 306.15625 L 246.449219 253.71875 C 246.449219 253.140625 246.507812 252.574219 246.621094 252.007812 C 246.734375 251.445312 246.902344 250.898438 247.125 250.367188 C 247.347656 249.835938 247.617188 249.332031 247.9375 248.855469 C 248.257812 248.378906 248.621094 247.9375 249.027344 247.53125 C 249.4375 247.125 249.878906 246.765625 250.359375 246.445312 C 250.835938 246.125 251.34375 245.859375 251.875 245.636719 C 252.40625 245.417969 252.953125 245.253906 253.515625 245.140625 C 254.082031 245.03125 254.652344 244.976562 255.226562 244.976562 L 330.851562 244.976562 C 331.425781 244.976562 331.992188 245.03125 332.554688 245.144531 C 333.121094 245.257812 333.664062 245.425781 334.195312 245.644531 C 334.726562 245.863281 335.230469 246.132812 335.707031 246.453125 C 336.183594 246.769531 336.625 247.132812 337.03125 247.539062 C 337.4375 247.945312 337.800781 248.386719 338.117188 248.863281 C 338.4375 249.339844 338.707031 249.84375 338.925781 250.375 C 339.148438 250.902344 339.3125 251.449219 339.425781 252.011719 C 339.539062 252.574219 339.59375 253.144531 339.597656 253.71875 L 339.597656 306.167969 Z M 330.851562 235.375 L 255.226562 235.375 C 254.625 235.375 254.023438 235.402344 253.425781 235.464844 C 252.828125 235.523438 252.234375 235.609375 251.644531 235.726562 C 251.054688 235.84375 250.46875 235.992188 249.894531 236.164062 C 249.320312 236.339844 248.753906 236.542969 248.199219 236.773438 C 247.640625 237 247.097656 237.257812 246.566406 237.542969 C 246.039062 237.824219 245.523438 238.132812 245.023438 238.464844 C 244.519531 238.800781 244.039062 239.15625 243.574219 239.539062 C 243.109375 239.921875 242.664062 240.324219 242.238281 240.746094 C 241.8125 241.171875 241.40625 241.617188 241.027344 242.082031 C 240.644531 242.546875 240.285156 243.027344 239.949219 243.527344 C 239.617188 244.027344 239.304688 244.542969 239.023438 245.070312 C 238.738281 245.601562 238.480469 246.144531 238.25 246.699219 C 238.019531 247.253906 237.816406 247.820312 237.640625 248.394531 C 237.464844 248.96875 237.316406 249.554688 237.199219 250.140625 C 237.082031 250.730469 236.992188 251.324219 236.929688 251.925781 C 236.871094 252.523438 236.839844 253.121094 236.839844 253.722656 L 236.839844 306.175781 L 200.101562 306.175781 L 200.101562 253.71875 C 200.097656 253.117188 200.070312 252.515625 200.011719 251.917969 C 199.949219 251.320312 199.863281 250.726562 199.742188 250.140625 C 199.625 249.550781 199.480469 248.96875 199.304688 248.394531 C 199.128906 247.816406 198.929688 247.253906 198.699219 246.699219 C 198.46875 246.144531 198.210938 245.601562 197.925781 245.070312 C 197.644531 244.542969 197.335938 244.027344 197 243.527344 C 196.667969 243.027344 196.308594 242.546875 195.929688 242.082031 C 195.546875 241.617188 195.144531 241.171875 194.71875 240.75 C 194.292969 240.324219 193.847656 239.921875 193.382812 239.539062 C 192.921875 239.15625 192.4375 238.800781 191.9375 238.464844 C 191.4375 238.132812 190.925781 237.824219 190.394531 237.539062 C 189.863281 237.257812 189.320312 237 188.765625 236.769531 C 188.210938 236.539062 187.648438 236.335938 187.070312 236.164062 C 186.496094 235.988281 185.914062 235.839844 185.324219 235.722656 C 184.734375 235.605469 184.140625 235.519531 183.542969 235.457031 C 182.945312 235.398438 182.347656 235.367188 181.746094 235.367188 L 106.121094 235.367188 C 105.519531 235.367188 104.917969 235.398438 104.320312 235.457031 C 103.722656 235.515625 103.128906 235.605469 102.539062 235.722656 C 101.949219 235.839844 101.363281 235.984375 100.789062 236.160156 C 100.214844 236.332031 99.648438 236.535156 99.09375 236.765625 C 98.535156 236.996094 97.992188 237.25 97.460938 237.535156 C 96.933594 237.816406 96.417969 238.125 95.917969 238.460938 C 95.414062 238.792969 94.933594 239.152344 94.46875 239.53125 C 94.003906 239.914062 93.558594 240.316406 93.132812 240.742188 C 92.707031 241.167969 92.300781 241.609375 91.921875 242.074219 C 91.539062 242.539062 91.179688 243.023438 90.84375 243.519531 C 90.511719 244.019531 90.199219 244.535156 89.917969 245.066406 C 89.632812 245.59375 89.375 246.136719 89.144531 246.695312 C 88.914062 247.25 88.710938 247.8125 88.535156 248.390625 C 88.359375 248.964844 88.210938 249.546875 88.09375 250.136719 C 87.976562 250.726562 87.886719 251.320312 87.824219 251.917969 C 87.765625 252.515625 87.734375 253.117188 87.734375 253.71875 L 87.734375 306.167969 L 78.640625 306.167969 C 78.367188 306.167969 78.097656 306.140625 77.828125 306.089844 C 77.558594 306.035156 77.300781 305.957031 77.046875 305.851562 C 76.792969 305.746094 76.554688 305.617188 76.328125 305.464844 C 76.101562 305.316406 75.890625 305.140625 75.695312 304.949219 C 75.503906 304.753906 75.332031 304.546875 75.179688 304.316406 C 75.027344 304.089844 74.898438 303.851562 74.792969 303.597656 C 74.6875 303.34375 74.609375 303.085938 74.554688 302.816406 C 74.503906 302.550781 74.476562 302.277344 74.476562 302.003906 L 74.476562 175.277344 L 362.5 175.277344 L 362.5 306.167969 L 349.207031 306.167969 L 349.207031 253.71875 C 349.207031 253.117188 349.175781 252.515625 349.117188 251.917969 C 349.058594 251.320312 348.96875 250.726562 348.851562 250.140625 C 348.734375 249.550781 348.585938 248.96875 348.414062 248.394531 C 348.238281 247.820312 348.035156 247.253906 347.804688 246.699219 C 347.574219 246.144531 347.316406 245.601562 347.03125 245.074219 C 346.75 244.542969 346.441406 244.027344 346.105469 243.53125 C 345.773438 243.03125 345.414062 242.546875 345.035156 242.085938 C 344.652344 241.621094 344.25 241.175781 343.824219 240.75 C 343.398438 240.328125 342.953125 239.921875 342.488281 239.542969 C 342.023438 239.160156 341.542969 238.804688 341.042969 238.46875 C 340.542969 238.136719 340.027344 237.828125 339.5 237.542969 C 338.96875 237.261719 338.425781 237.003906 337.871094 236.773438 C 337.316406 236.542969 336.75 236.34375 336.175781 236.167969 C 335.601562 235.992188 335.019531 235.847656 334.429688 235.730469 C 333.839844 235.613281 333.246094 235.523438 332.648438 235.464844 C 332.050781 235.40625 331.453125 235.375 330.851562 235.375 Z M 166.828125 306.167969 C 166.046875 305.480469 165.234375 304.828125 164.390625 304.210938 C 163.550781 303.59375 162.679688 303.019531 161.789062 302.480469 C 160.894531 301.945312 159.976562 301.449219 159.039062 300.992188 C 158.097656 300.539062 157.140625 300.128906 156.167969 299.757812 C 155.191406 299.390625 154.199219 299.066406 153.195312 298.789062 C 152.1875 298.507812 151.171875 298.277344 150.148438 298.089844 C 149.121094 297.902344 148.089844 297.761719 147.050781 297.667969 C 146.011719 297.574219 144.96875 297.527344 143.925781 297.527344 C 142.882812 297.527344 141.84375 297.574219 140.804688 297.667969 C 139.765625 297.761719 138.730469 297.902344 137.707031 298.089844 C 136.679688 298.277344 135.664062 298.507812 134.660156 298.789062 C 133.652344 299.066406 132.664062 299.390625 131.6875 299.757812 C 130.710938 300.128906 129.753906 300.539062 128.816406 300.992188 C 127.875 301.449219 126.960938 301.945312 126.066406 302.480469 C 125.171875 303.019531 124.304688 303.59375 123.460938 304.210938 C 122.621094 304.828125 121.808594 305.480469 121.023438 306.167969 L 97.34375 306.167969 L 97.34375 253.71875 C 97.34375 253.140625 97.402344 252.574219 97.515625 252.007812 C 97.628906 251.445312 97.796875 250.898438 98.019531 250.367188 C 98.242188 249.835938 98.511719 249.332031 98.832031 248.855469 C 99.152344 248.378906 99.515625 247.9375 99.921875 247.53125 C 100.332031 247.125 100.773438 246.765625 101.253906 246.445312 C 101.730469 246.125 102.238281 245.859375 102.769531 245.636719 C 103.300781 245.417969 103.847656 245.253906 104.410156 245.140625 C 104.976562 245.03125 105.546875 244.976562 106.121094 244.976562 L 181.746094 244.976562 C 182.320312 244.976562 182.886719 245.03125 183.453125 245.144531 C 184.015625 245.257812 184.5625 245.421875 185.089844 245.644531 C 185.621094 245.863281 186.125 246.132812 186.601562 246.453125 C 187.078125 246.769531 187.519531 247.132812 187.925781 247.539062 C 188.332031 247.945312 188.695312 248.386719 189.015625 248.863281 C 189.332031 249.339844 189.601562 249.84375 189.824219 250.375 C 190.042969 250.902344 190.207031 251.449219 190.320312 252.011719 C 190.433594 252.574219 190.488281 253.144531 190.492188 253.71875 L 190.492188 306.167969 Z M 229.15625 113.125 C 229.136719 112.578125 229.148438 112.03125 229.1875 111.488281 C 229.226562 110.941406 229.289062 110.398438 229.382812 109.859375 C 229.472656 109.320312 229.59375 108.785156 229.738281 108.257812 C 229.882812 107.730469 230.054688 107.210938 230.253906 106.699219 C 230.449219 106.191406 230.671875 105.691406 230.917969 105.203125 C 231.167969 104.714844 231.4375 104.238281 231.734375 103.777344 C 232.027344 103.316406 232.34375 102.871094 232.683594 102.441406 C 233.023438 102.011719 233.382812 101.601562 233.765625 101.207031 C 234.144531 100.8125 234.542969 100.441406 234.960938 100.085938 C 235.378906 99.734375 235.8125 99.402344 236.265625 99.09375 C 236.714844 98.78125 237.179688 98.496094 237.660156 98.230469 C 238.140625 97.96875 238.632812 97.730469 239.136719 97.515625 C 239.640625 97.300781 240.152344 97.109375 240.675781 96.949219 C 241.199219 96.785156 241.726562 96.648438 242.265625 96.539062 C 242.800781 96.429688 243.339844 96.34375 243.886719 96.289062 C 244.429688 96.234375 244.976562 96.203125 245.523438 96.203125 C 245.839844 96.203125 246.152344 96.171875 246.460938 96.109375 C 246.769531 96.046875 247.070312 95.957031 247.363281 95.835938 C 247.652344 95.714844 247.929688 95.566406 248.191406 95.390625 C 248.453125 95.21875 248.699219 95.019531 248.921875 94.796875 C 249.144531 94.570312 249.34375 94.328125 249.519531 94.066406 C 249.695312 93.804688 249.839844 93.527344 249.960938 93.238281 C 250.082031 92.945312 250.175781 92.644531 250.234375 92.335938 C 250.296875 92.027344 250.328125 91.714844 250.328125 91.398438 C 250.328125 91.082031 250.296875 90.769531 250.234375 90.460938 C 250.175781 90.152344 250.082031 89.851562 249.960938 89.558594 C 249.839844 89.269531 249.695312 88.992188 249.519531 88.730469 C 249.34375 88.46875 249.144531 88.226562 248.921875 88.003906 C 248.699219 87.777344 248.453125 87.578125 248.191406 87.40625 C 247.929688 87.230469 247.652344 87.082031 247.363281 86.960938 C 247.070312 86.839844 246.769531 86.75 246.460938 86.6875 C 246.152344 86.625 245.839844 86.59375 245.523438 86.59375 C 223.824219 85.972656 223.792969 53.929688 245.523438 53.292969 L 304.78125 53.292969 C 305.097656 53.292969 305.410156 53.261719 305.71875 53.199219 C 306.027344 53.136719 306.328125 53.046875 306.621094 52.925781 C 306.910156 52.804688 307.1875 52.65625 307.449219 52.480469 C 307.710938 52.304688 307.957031 52.105469 308.179688 51.882812 C 308.402344 51.660156 308.601562 51.417969 308.777344 51.15625 C 308.953125 50.894531 309.097656 50.617188 309.21875 50.324219 C 309.339844 50.035156 309.433594 49.734375 309.492188 49.425781 C 309.554688 49.117188 309.585938 48.804688 309.585938 48.488281 C 309.585938 48.171875 309.554688 47.859375 309.492188 47.550781 C 309.433594 47.242188 309.339844 46.941406 309.21875 46.648438 C 309.097656 46.359375 308.953125 46.082031 308.777344 45.820312 C 308.601562 45.558594 308.402344 45.3125 308.179688 45.089844 C 307.957031 44.867188 307.710938 44.667969 307.449219 44.492188 C 307.1875 44.320312 306.910156 44.171875 306.621094 44.050781 C 306.328125 43.929688 306.027344 43.839844 305.71875 43.777344 C 305.410156 43.714844 305.097656 43.683594 304.78125 43.683594 L 245.523438 43.683594 C 223.832031 43.074219 223.785156 11.019531 245.523438 10.378906 L 334.453125 10.378906 C 356.152344 11.003906 356.1875 43.042969 334.453125 43.683594 C 334.136719 43.683594 333.824219 43.714844 333.515625 43.777344 C 333.203125 43.839844 332.90625 43.929688 332.613281 44.050781 C 332.320312 44.171875 332.042969 44.320312 331.78125 44.492188 C 331.519531 44.667969 331.277344 44.867188 331.054688 45.089844 C 330.832031 45.3125 330.632812 45.558594 330.457031 45.820312 C 330.28125 46.082031 330.132812 46.359375 330.011719 46.648438 C 329.890625 46.941406 329.800781 47.242188 329.738281 47.550781 C 329.679688 47.859375 329.648438 48.171875 329.648438 48.488281 C 329.648438 48.804688 329.679688 49.117188 329.738281 49.425781 C 329.800781 49.734375 329.890625 50.035156 330.011719 50.324219 C 330.132812 50.617188 330.28125 50.894531 330.457031 51.15625 C 330.632812 51.417969 330.832031 51.660156 331.054688 51.882812 C 331.277344 52.105469 331.519531 52.304688 331.78125 52.480469 C 332.042969 52.65625 332.320312 52.804688 332.613281 52.925781 C 332.90625 53.046875 333.203125 53.136719 333.515625 53.199219 C 333.824219 53.261719 334.136719 53.292969 334.453125 53.292969 C 356.644531 54.105469 355.964844 86.648438 333.671875 86.667969 C 332.421875 86.402344 272.511719 86.695312 271.351562 86.589844 C 271.039062 86.589844 270.726562 86.621094 270.417969 86.679688 C 270.105469 86.742188 269.804688 86.832031 269.515625 86.953125 C 269.222656 87.074219 268.945312 87.222656 268.683594 87.398438 C 268.421875 87.574219 268.179688 87.773438 267.957031 87.996094 C 267.734375 88.21875 267.535156 88.460938 267.359375 88.722656 C 267.183594 88.984375 267.035156 89.261719 266.914062 89.554688 C 266.792969 89.84375 266.703125 90.144531 266.640625 90.457031 C 266.578125 90.765625 266.546875 91.078125 266.546875 91.390625 C 266.546875 91.707031 266.578125 92.019531 266.640625 92.328125 C 266.703125 92.636719 266.792969 92.9375 266.914062 93.230469 C 267.035156 93.523438 267.183594 93.796875 267.359375 94.0625 C 267.535156 94.324219 267.734375 94.566406 267.957031 94.789062 C 268.179688 95.011719 268.421875 95.210938 268.683594 95.386719 C 268.945312 95.5625 269.222656 95.710938 269.515625 95.828125 C 269.804688 95.949219 270.105469 96.042969 270.417969 96.101562 C 270.726562 96.164062 271.039062 96.195312 271.351562 96.195312 L 332.90625 96.195312 C 333.167969 96.191406 333.425781 96.164062 333.683594 96.117188 C 355.945312 96.117188 356.683594 128.664062 334.460938 129.492188 L 245.523438 129.492188 C 244.988281 129.492188 244.453125 129.464844 243.917969 129.410156 C 243.386719 129.359375 242.855469 129.277344 242.332031 129.175781 C 241.804688 129.070312 241.289062 128.9375 240.773438 128.78125 C 240.261719 128.625 239.757812 128.445312 239.261719 128.238281 C 238.769531 128.035156 238.285156 127.804688 237.8125 127.550781 C 237.339844 127.300781 236.882812 127.023438 236.4375 126.726562 C 235.992188 126.429688 235.558594 126.109375 235.144531 125.769531 C 234.730469 125.429688 234.335938 125.070312 233.957031 124.691406 C 233.578125 124.3125 233.21875 123.914062 232.878906 123.5 C 232.539062 123.085938 232.21875 122.65625 231.921875 122.210938 C 231.625 121.765625 231.347656 121.308594 231.09375 120.835938 C 230.84375 120.363281 230.613281 119.878906 230.40625 119.386719 C 230.203125 118.890625 230.023438 118.386719 229.867188 117.875 C 229.710938 117.363281 229.578125 116.84375 229.472656 116.316406 C 229.367188 115.792969 229.289062 115.261719 229.238281 114.730469 C 229.183594 114.195312 229.15625 113.660156 229.15625 113.125 Z M 362.496094 139.105469 L 362.496094 165.6875 L 74.476562 165.6875 L 74.476562 139.105469 Z M 64.226562 332.492188 C 63.570312 332.488281 62.917969 332.457031 62.265625 332.390625 C 61.613281 332.324219 60.96875 332.230469 60.324219 332.101562 C 59.683594 331.972656 59.050781 331.8125 58.421875 331.621094 C 57.796875 331.429688 57.179688 331.207031 56.578125 330.957031 C 55.972656 330.707031 55.378906 330.425781 54.804688 330.117188 C 54.226562 329.804688 53.664062 329.46875 53.121094 329.105469 C 52.578125 328.742188 52.050781 328.351562 51.546875 327.933594 C 51.039062 327.519531 50.554688 327.078125 50.09375 326.617188 C 49.628906 326.152344 49.191406 325.667969 48.777344 325.160156 C 48.359375 324.65625 47.972656 324.128906 47.609375 323.585938 C 47.246094 323.039062 46.910156 322.480469 46.601562 321.902344 C 46.292969 321.324219 46.011719 320.730469 45.761719 320.128906 C 45.511719 319.523438 45.289062 318.90625 45.101562 318.28125 C 44.910156 317.652344 44.75 317.019531 44.625 316.375 C 44.496094 315.734375 44.398438 315.085938 44.335938 314.4375 C 44.273438 313.785156 44.238281 313.132812 44.238281 312.476562 L 44.238281 107.496094 C 44.242188 105.585938 43.878906 103.746094 43.148438 101.980469 C 42.414062 100.214844 41.371094 98.660156 40.015625 97.3125 L 17.527344 74.832031 C 17.046875 74.355469 16.621094 73.832031 16.242188 73.269531 C 15.867188 72.707031 15.546875 72.109375 15.289062 71.484375 C 15.027344 70.859375 14.832031 70.214844 14.699219 69.550781 C 14.566406 68.882812 14.5 68.210938 14.5 67.535156 C 14.5 66.855469 14.566406 66.1875 14.699219 65.519531 C 14.832031 64.855469 15.027344 64.210938 15.289062 63.585938 C 15.546875 62.957031 15.867188 62.363281 16.242188 61.800781 C 16.621094 61.238281 17.046875 60.714844 17.527344 60.238281 C 18.015625 59.773438 18.539062 59.359375 19.105469 58.996094 C 19.671875 58.632812 20.265625 58.324219 20.886719 58.074219 C 21.511719 57.824219 22.15625 57.636719 22.8125 57.507812 C 23.472656 57.382812 24.140625 57.320312 24.8125 57.320312 C 25.484375 57.320312 26.148438 57.382812 26.808594 57.507812 C 27.46875 57.636719 28.113281 57.824219 28.734375 58.074219 C 29.359375 58.324219 29.953125 58.632812 30.519531 58.996094 C 31.085938 59.359375 31.609375 59.773438 32.097656 60.238281 L 57.5625 85.691406 C 58.714844 86.851562 59.746094 88.109375 60.652344 89.472656 C 61.558594 90.832031 62.328125 92.265625 62.953125 93.777344 C 63.578125 95.289062 64.054688 96.84375 64.375 98.449219 C 64.699219 100.050781 64.863281 101.667969 64.867188 103.304688 L 64.867188 134.207031 C 64.847656 134.40625 64.847656 170.367188 64.867188 170.566406 L 64.867188 310.972656 C 64.867188 311.285156 64.898438 311.597656 64.960938 311.910156 C 65.019531 312.21875 65.113281 312.519531 65.234375 312.808594 C 65.355469 313.101562 65.5 313.378906 65.675781 313.640625 C 65.851562 313.902344 66.050781 314.144531 66.273438 314.367188 C 66.496094 314.589844 66.738281 314.789062 67.003906 314.964844 C 67.265625 315.140625 67.542969 315.289062 67.832031 315.410156 C 68.125 315.53125 68.425781 315.621094 68.734375 315.683594 C 69.042969 315.746094 69.355469 315.773438 69.671875 315.773438 L 113.453125 315.773438 C 112.078125 318.34375 111.054688 321.042969 110.378906 323.875 C 109.703125 326.707031 109.398438 329.578125 109.46875 332.492188 Z M 143.925781 356.742188 C 142.488281 356.738281 141.0625 356.613281 139.648438 356.363281 C 138.230469 356.117188 136.847656 355.746094 135.496094 355.257812 C 134.144531 354.769531 132.84375 354.167969 131.59375 353.453125 C 130.347656 352.742188 129.171875 351.925781 128.0625 351.007812 C 126.957031 350.089844 125.9375 349.085938 125.003906 347.992188 C 124.074219 346.898438 123.242188 345.730469 122.511719 344.492188 C 121.78125 343.257812 121.164062 341.964844 120.65625 340.621094 C 120.148438 339.273438 119.761719 337.894531 119.492188 336.484375 C 119.492188 336.410156 119.472656 336.332031 119.457031 336.261719 C 119.300781 335.371094 119.191406 334.472656 119.132812 333.570312 C 119.070312 332.664062 119.0625 331.761719 119.101562 330.855469 C 119.140625 329.953125 119.226562 329.050781 119.363281 328.15625 C 119.5 327.261719 119.6875 326.375 119.917969 325.5 C 120.152344 324.625 120.433594 323.765625 120.761719 322.921875 C 121.085938 322.074219 121.460938 321.25 121.875 320.449219 C 122.292969 319.644531 122.753906 318.863281 123.253906 318.109375 C 123.757812 317.355469 124.300781 316.632812 124.878906 315.9375 C 125.460938 315.242188 126.078125 314.582031 126.730469 313.953125 C 127.382812 313.324219 128.070312 312.734375 128.789062 312.179688 C 129.503906 311.628906 130.25 311.117188 131.023438 310.644531 C 131.796875 310.171875 132.59375 309.742188 133.414062 309.359375 C 134.234375 308.972656 135.074219 308.632812 135.929688 308.339844 C 136.785156 308.046875 137.65625 307.800781 138.539062 307.601562 C 139.425781 307.402344 140.316406 307.253906 141.21875 307.152344 C 142.117188 307.050781 143.019531 306.996094 143.925781 306.996094 C 176.882812 308.253906 176.878906 355.507812 143.925781 356.742188 Z M 178.382812 332.480469 C 178.449219 329.570312 178.148438 326.699219 177.472656 323.867188 C 176.796875 321.03125 175.773438 318.332031 174.398438 315.765625 L 262.558594 315.765625 C 261.183594 318.332031 260.160156 321.035156 259.484375 323.867188 C 258.808594 326.699219 258.503906 329.570312 258.574219 332.480469 Z M 293.03125 356.742188 C 291.585938 356.738281 290.152344 356.613281 288.726562 356.359375 C 287.300781 356.109375 285.910156 355.734375 284.550781 355.242188 C 283.191406 354.746094 281.886719 354.136719 280.632812 353.414062 C 279.378906 352.695312 278.199219 351.867188 277.089844 350.941406 C 275.980469 350.011719 274.960938 348.996094 274.027344 347.890625 C 273.09375 346.785156 272.265625 345.605469 271.539062 344.355469 C 270.8125 343.105469 270.199219 341.800781 269.699219 340.445312 C 269.203125 339.085938 268.824219 337.695312 268.566406 336.273438 C 264.15625 312.464844 293.746094 297.222656 310.589844 314.261719 L 310.71875 314.402344 C 326.179688 329.5 314.871094 357.0625 293.03125 356.742188 Z M 340.972656 332.480469 L 327.492188 332.480469 C 327.558594 329.570312 327.253906 326.699219 326.578125 323.867188 C 325.902344 321.035156 324.878906 318.332031 323.507812 315.765625 L 361.945312 315.765625 C 361.671875 316.945312 361.304688 318.089844 360.84375 319.207031 C 360.378906 320.324219 359.824219 321.394531 359.179688 322.414062 C 358.535156 323.4375 357.8125 324.402344 357.003906 325.300781 C 356.199219 326.203125 355.324219 327.03125 354.378906 327.785156 C 353.433594 328.539062 352.433594 329.207031 351.375 329.792969 C 350.316406 330.378906 349.21875 330.871094 348.078125 331.273438 C 346.9375 331.671875 345.769531 331.976562 344.578125 332.179688 C 343.386719 332.386719 342.1875 332.488281 340.976562 332.492188 Z M 340.972656 332.480469 " fill-opacity="1" fill-rule="nonzero"/></g></svg>