<svg xmlns="http://www.w3.org/2000/svg" xmlns:xlink="http://www.w3.org/1999/xlink" width="500" zoomAndPan="magnify" viewBox="0 0 375 374.999991" height="500" preserveAspectRatio="xMidYMid meet" version="1.0"><defs><clipPath id="3035585a11"><path d="M 0 9.886719 L 375 9.886719 L 375 365.386719 L 0 365.386719 Z M 0 9.886719 " clip-rule="nonzero"/></clipPath></defs><g clip-path="url(#3035585a11)"><path fill="#000000" d="M 346.003906 279.894531 C 328.117188 261.992188 303.421875 250.875 276.273438 250.875 L 242.128906 250.875 C 242.136719 250.421875 242.164062 249.972656 242.164062 249.523438 L 242.164062 233.121094 C 243.648438 231.835938 245.082031 230.496094 246.46875 229.105469 C 250.6875 224.882812 254.464844 220.203125 257.71875 215.164062 C 274.808594 213.203125 288.160156 207.234375 291.570312 191.351562 C 297 190.28125 301.855469 187.597656 305.625 183.828125 C 310.585938 178.863281 313.667969 172.003906 313.667969 164.472656 L 313.667969 134.101562 C 313.667969 126.558594 310.585938 119.707031 305.625 114.746094 L 305.242188 114.386719 C 301.96875 111.234375 297.929688 108.898438 293.445312 107.660156 C 293.457031 107.546875 293.464844 107.445312 293.464844 107.332031 C 293.464844 80.488281 281.792969 56.113281 262.988281 38.457031 C 244.265625 20.882812 218.492188 9.980469 190.171875 9.980469 L 184.835938 9.980469 C 156.515625 9.980469 130.742188 20.882812 112.03125 38.457031 C 93.226562 56.113281 81.554688 80.488281 81.554688 107.332031 C 81.554688 107.445312 81.5625 107.546875 81.570312 107.660156 C 76.929688 108.9375 72.757812 111.402344 69.421875 114.734375 L 69.394531 114.761719 C 64.433594 119.734375 61.351562 126.585938 61.351562 134.101562 L 61.351562 164.472656 C 61.351562 171.808594 64.285156 178.496094 69.039062 183.441406 L 69.394531 183.828125 C 74.351562 188.789062 81.195312 191.878906 88.734375 191.878906 C 95.070312 191.878906 100.914062 189.691406 105.5625 186.050781 C 108.804688 202.667969 117 217.566406 128.539062 229.117188 C 130.707031 231.285156 132.984375 233.320312 135.375 235.242188 L 135.375 249.542969 C 135.375 249.992188 135.394531 250.441406 135.414062 250.894531 L 98.738281 250.894531 C 71.578125 250.894531 46.894531 262.011719 29.007812 279.914062 C 11.109375 297.796875 0 322.507812 0 349.679688 L 0 359.230469 C 0 362.570312 2.710938 365.28125 6.046875 365.28125 L 368.953125 365.28125 C 372.289062 365.28125 375 362.570312 375 359.230469 L 375 349.679688 C 375 322.507812 363.890625 297.796875 346.003906 279.894531 Z M 264.871094 201.363281 C 266.859375 196.464844 268.40625 191.332031 269.4375 186.03125 C 272.222656 188.21875 275.445312 189.878906 278.945312 190.855469 C 276.648438 196.191406 271.613281 199.4375 264.871094 201.363281 Z M 297.054688 123.292969 C 299.832031 126.070312 301.554688 129.886719 301.554688 134.089844 L 301.554688 164.460938 C 301.554688 168.664062 299.832031 172.492188 297.054688 175.261719 C 294.28125 178.039062 290.457031 179.765625 286.257812 179.765625 C 282.054688 179.765625 278.230469 178.039062 275.464844 175.261719 L 275.4375 175.261719 C 272.679688 172.503906 270.964844 168.675781 270.964844 164.460938 L 270.964844 134.089844 C 270.964844 129.867188 272.679688 126.050781 275.4375 123.292969 L 275.464844 123.261719 C 278.222656 120.503906 282.046875 118.789062 286.265625 118.789062 C 290.34375 118.789062 294.066406 120.390625 296.792969 123 Z M 120.289062 47.246094 C 136.828125 31.71875 159.664062 22.082031 184.828125 22.082031 L 190.164062 22.082031 C 215.316406 22.082031 238.164062 31.71875 254.699219 47.246094 C 271.097656 62.644531 281.296875 83.847656 281.34375 107.144531 C 277.40625 107.867188 273.757812 109.441406 270.589844 111.675781 C 268.714844 91.824219 259.828125 73.929688 246.449219 60.542969 C 231.328125 45.410156 210.449219 36.007812 187.492188 36.007812 C 164.53125 36.007812 143.652344 45.410156 128.53125 60.542969 C 115.152344 73.929688 106.265625 91.824219 104.390625 111.675781 C 101.222656 109.441406 97.574219 107.867188 93.636719 107.144531 C 93.703125 83.847656 103.894531 62.644531 120.289062 47.246094 Z M 258.328125 110.851562 C 244.078125 110.792969 230.390625 108.964844 217.292969 105.378906 C 202.292969 101.269531 187.976562 94.816406 174.367188 86.023438 C 172.03125 84.523438 168.871094 84.796875 166.835938 86.851562 C 160.808594 92.894531 153.074219 97.929688 143.625 101.957031 C 135.84375 105.269531 126.890625 107.875 116.8125 109.808594 C 118.988281 94.039062 126.335938 79.859375 137.101562 69.089844 C 150.039062 56.140625 167.886719 48.101562 187.507812 48.101562 C 207.132812 48.101562 224.980469 56.140625 237.917969 69.089844 C 248.90625 80.09375 256.339844 94.664062 258.328125 110.851562 Z M 88.734375 179.765625 C 84.535156 179.765625 80.710938 178.039062 77.945312 175.261719 L 77.664062 175 C 75.054688 172.257812 73.453125 168.542969 73.453125 164.460938 L 73.453125 134.089844 C 73.453125 129.867188 75.167969 126.050781 77.925781 123.292969 L 77.953125 123.261719 C 80.710938 120.503906 84.535156 118.789062 88.753906 118.789062 C 92.972656 118.789062 96.789062 120.503906 99.542969 123.261719 L 99.542969 123.292969 C 102.320312 126.070312 104.042969 129.886719 104.042969 134.089844 L 104.042969 164.460938 C 104.042969 168.664062 102.320312 172.492188 99.542969 175.261719 C 96.757812 178.039062 92.933594 179.765625 88.734375 179.765625 Z M 116.117188 170.101562 L 116.117188 122.230469 C 128.242188 120.101562 138.984375 117.050781 148.332031 113.066406 C 157.480469 109.171875 165.308594 104.367188 171.824219 98.679688 C 185.242188 106.84375 199.339844 112.960938 214.125 117.003906 C 228.449219 120.925781 243.367188 122.898438 258.882812 122.90625 L 258.882812 170.089844 C 258.882812 182.183594 255.824219 193.59375 250.472656 203.605469 C 241.179688 204.222656 230.632812 203.839844 220.257812 203.445312 L 218.136719 203.371094 C 217.191406 200.265625 215.523438 197.476562 213.328125 195.226562 C 209.773438 191.585938 204.863281 189.324219 199.460938 189.324219 C 194.0625 189.324219 189.148438 191.578125 185.597656 195.226562 C 182.089844 198.820312 179.914062 203.773438 179.914062 209.226562 C 179.914062 214.675781 182.089844 219.628906 185.597656 223.222656 C 189.148438 226.863281 194.0625 229.125 199.460938 229.125 C 204.863281 229.125 209.773438 226.875 213.328125 223.222656 C 215.4375 221.054688 217.050781 218.402344 218.015625 215.445312 L 219.835938 215.511719 C 227.296875 215.792969 234.824219 216.074219 242.0625 216.019531 C 240.742188 217.585938 239.363281 219.105469 237.917969 220.558594 C 224.980469 233.507812 207.132812 241.546875 187.507812 241.546875 C 175.59375 241.546875 164.34375 238.574219 154.445312 233.347656 C 151.164062 231.566406 148.039062 229.519531 145.117188 227.25 C 144.722656 226.949219 144.300781 226.703125 143.867188 226.507812 C 141.496094 224.660156 139.226562 222.679688 137.101562 220.558594 C 124.152344 207.601562 116.117188 189.738281 116.117188 170.101562 Z M 206.90625 209.226562 C 206.90625 211.421875 206.054688 213.402344 204.675781 214.808594 C 203.34375 216.175781 201.488281 217.023438 199.445312 217.023438 C 197.398438 217.023438 195.542969 216.175781 194.210938 214.808594 C 192.835938 213.402344 191.980469 211.421875 191.980469 209.226562 C 191.980469 207.03125 192.835938 205.050781 194.210938 203.644531 C 195.542969 202.273438 197.398438 201.429688 199.445312 201.429688 C 201.488281 201.429688 203.34375 202.273438 204.675781 203.644531 C 206.054688 205.050781 206.90625 207.03125 206.90625 209.226562 Z M 153.308594 246.265625 C 155.765625 247.402344 158.277344 248.433594 160.855469 249.316406 C 168.542969 251.960938 176.757812 253.445312 185.269531 253.605469 C 185.351562 253.605469 185.4375 253.605469 185.523438 253.613281 C 185.925781 253.621094 186.320312 253.640625 186.722656 253.640625 L 190.789062 253.640625 C 199.820312 253.640625 208.527344 252.121094 216.664062 249.324219 C 221.324219 247.722656 225.804688 245.683594 230.054688 243.273438 L 230.054688 249.523438 C 230.054688 260.539062 225.542969 270.546875 218.289062 277.8125 C 211.03125 285.074219 201.019531 289.585938 190.023438 289.585938 L 187.5 289.585938 C 176.492188 289.585938 166.492188 285.074219 159.234375 277.8125 C 151.976562 270.550781 147.46875 260.527344 147.46875 249.523438 L 147.46875 243.339844 C 149.371094 244.382812 151.320312 245.367188 153.308594 246.265625 Z M 12.09375 349.679688 C 12.09375 325.839844 21.84375 304.167969 37.546875 288.441406 C 53.25 272.726562 74.914062 262.96875 98.738281 262.96875 L 137.15625 262.96875 C 139.566406 271.9375 144.300781 279.96875 150.683594 286.359375 C 158.773438 294.457031 169.519531 299.914062 181.453125 301.3125 L 181.453125 353.171875 L 12.09375 353.171875 Z M 362.90625 353.179688 L 193.546875 353.179688 L 193.546875 301.558594 C 206.492188 300.683594 218.183594 295.046875 226.847656 286.367188 C 233.230469 279.976562 237.964844 271.9375 240.375 262.976562 L 276.261719 262.976562 C 300.085938 262.976562 321.742188 272.734375 337.445312 288.449219 C 353.148438 304.167969 362.898438 325.847656 362.898438 349.691406 L 362.898438 353.179688 Z M 362.90625 353.179688 " fill-opacity="1" fill-rule="nonzero"/></g></svg>