<svg xmlns="http://www.w3.org/2000/svg" xmlns:xlink="http://www.w3.org/1999/xlink" width="500" zoomAndPan="magnify" viewBox="0 0 375 374.999991" height="500" preserveAspectRatio="xMidYMid meet" version="1.0"><path fill="#000000" d="M 341.398438 334.859375 L 341.480469 334.859375 Z M 66.785156 30.003906 C 63.3125 30.003906 60.027344 31.578125 56.457031 34.703125 C 56.066406 35.074219 50.960938 39.917969 47.640625 43.078125 L 44.738281 45.820312 C 27.800781 61.660156 20.121094 90.164062 25.175781 118.460938 C 26.800781 127.597656 29.425781 137.070312 32.976562 146.597656 C 50.882812 194.683594 84.871094 236.488281 110.238281 263.101562 C 135.488281 289.890625 175.421875 326.070312 222.472656 346.519531 C 231.804688 350.574219 241.117188 353.707031 250.152344 355.824219 C 278.136719 362.378906 307.019531 356.238281 323.726562 340.175781 L 326.511719 337.527344 C 329.746094 334.472656 334.792969 329.695312 335.527344 328.992188 C 345.933594 318.289062 340.734375 309.390625 319.863281 288.164062 L 314.640625 282.804688 C 301.421875 269.085938 279.238281 246.113281 260.484375 248.351562 C 255.386719 248.957031 250.066406 252.675781 244.429688 256.605469 C 238.839844 260.507812 233.058594 264.539062 226.125 266.738281 C 207.511719 272.640625 188.636719 268.757812 172.949219 255.835938 C 163.574219 248.105469 154.03125 239.0625 145.363281 229.710938 C 136.597656 220.671875 128.082031 210.667969 120.875 200.898438 C 108.816406 184.554688 105.960938 165.496094 112.839844 147.222656 C 115.40625 140.410156 119.746094 134.855469 123.941406 129.484375 C 128.171875 124.066406 132.167969 118.953125 133.035156 113.890625 C 136.265625 95.242188 114.523438 71.914062 101.527344 57.96875 L 96.464844 52.46875 C 82.695312 37.410156 74.320312 30.003906 66.785156 30.003906 Z M 272.734375 374.996094 C 263.378906 374.996094 254.386719 373.859375 246.367188 371.980469 C 236.367188 369.644531 226.097656 366.195312 215.851562 361.742188 C 166.21875 340.175781 124.472656 302.40625 98.191406 274.523438 C 71.78125 246.824219 36.304688 203.109375 17.421875 152.390625 C 13.523438 141.925781 10.636719 131.492188 8.828125 121.375 C 4.042969 94.566406 7.980469 57.453125 33.40625 33.703125 L 36.210938 31.035156 C 39.75 27.675781 45.253906 22.449219 45.480469 22.253906 C 70.910156 -0.0742188 93.667969 24.804688 108.714844 41.273438 L 113.675781 46.65625 C 128.765625 62.847656 154.023438 89.953125 149.398438 116.71875 C 147.808594 125.878906 142.078125 133.226562 137.023438 139.699219 C 133.4375 144.292969 130.042969 148.636719 128.375 153.074219 C 123.472656 166.082031 125.503906 179.214844 134.234375 191.042969 C 141.007812 200.214844 149.019531 209.636719 157.410156 218.289062 C 165.714844 227.25 174.699219 235.757812 183.507812 243.03125 C 194.859375 252.386719 207.859375 255.105469 221.117188 250.921875 C 225.632812 249.476562 230.144531 246.332031 234.921875 242.996094 C 241.667969 238.296875 249.296875 232.957031 258.535156 231.871094 C 285.589844 228.679688 311.234375 255.351562 326.59375 271.289062 L 331.703125 276.527344 C 347.339844 292.4375 370.972656 316.484375 347.339844 340.660156 C 346.96875 341.015625 341.421875 346.28125 337.917969 349.585938 L 335.222656 352.148438 C 317.738281 368.957031 294.308594 374.996094 272.734375 374.996094 " fill-opacity="1" fill-rule="nonzero"/></svg>