<svg xmlns="http://www.w3.org/2000/svg" xmlns:xlink="http://www.w3.org/1999/xlink" width="500" zoomAndPan="magnify" viewBox="0 0 375 374.999991" height="500" preserveAspectRatio="xMidYMid meet" version="1.0"><defs><clipPath id="e98b190e01"><path d="M 166 199 L 334 199 L 334 358.921875 L 166 358.921875 Z M 166 199 " clip-rule="nonzero"/></clipPath><clipPath id="20840611ba"><path d="M 8 304 L 221 304 L 221 358.921875 L 8 358.921875 Z M 8 304 " clip-rule="nonzero"/></clipPath><clipPath id="8aa8e20e12"><path d="M 279 16.171875 L 334 16.171875 L 334 71 L 279 71 Z M 279 16.171875 " clip-rule="nonzero"/></clipPath></defs><path fill="#000000" d="M 145.035156 280.207031 L 83.863281 280.207031 C 80.96875 280.207031 78.621094 277.859375 78.621094 274.964844 L 78.621094 261.265625 C 78.621094 246.644531 90.511719 234.75 105.128906 234.75 L 123.773438 234.75 C 138.390625 234.75 150.28125 246.644531 150.28125 261.265625 L 150.28125 274.964844 C 150.28125 277.859375 147.933594 280.207031 145.035156 280.207031 Z M 89.105469 269.71875 L 139.792969 269.71875 L 139.792969 261.265625 C 139.792969 252.429688 132.605469 245.242188 123.773438 245.242188 L 105.128906 245.242188 C 96.292969 245.242188 89.105469 252.429688 89.105469 261.265625 Z M 89.105469 269.71875 " fill-opacity="1" fill-rule="nonzero"/><path fill="#000000" d="M 127.558594 245.242188 L 101.339844 245.242188 C 98.445312 245.242188 96.097656 242.894531 96.097656 239.996094 L 96.097656 43.308594 C 96.097656 33.1875 104.332031 24.953125 114.449219 24.953125 C 124.570312 24.953125 132.804688 33.1875 132.804688 43.308594 L 132.804688 239.996094 C 132.804688 242.894531 130.457031 245.242188 127.558594 245.242188 Z M 106.585938 234.75 L 122.316406 234.75 L 122.316406 43.308594 C 122.316406 38.972656 118.785156 35.441406 114.449219 35.441406 C 110.113281 35.441406 106.585938 38.972656 106.585938 43.308594 Z M 106.585938 234.75 " fill-opacity="1" fill-rule="nonzero"/><g clip-path="url(#e98b190e01)"><path fill="#000000" d="M 302.34375 358.882812 L 214.953125 358.882812 C 212.058594 358.882812 209.707031 356.535156 209.707031 353.636719 L 209.707031 309.929688 C 209.707031 307.035156 212.058594 304.683594 214.953125 304.683594 L 218.449219 304.683594 L 218.449219 280.207031 L 184.363281 280.207031 C 181.839844 280.207031 179.675781 278.410156 179.210938 275.929688 L 166.101562 205.996094 C 165.816406 204.460938 166.226562 202.882812 167.222656 201.679688 C 168.21875 200.480469 169.695312 199.785156 171.257812 199.785156 L 328.5625 199.785156 C 330.113281 199.785156 331.582031 200.46875 332.578125 201.660156 C 333.574219 202.84375 333.996094 204.414062 333.726562 205.941406 L 307.507812 354.546875 C 307.066406 357.054688 304.890625 358.882812 302.34375 358.882812 Z M 220.195312 348.390625 L 297.945312 348.390625 L 322.3125 210.273438 L 177.574219 210.273438 L 188.714844 269.71875 L 223.691406 269.71875 C 226.585938 269.71875 228.933594 272.066406 228.933594 274.964844 L 228.933594 309.929688 C 228.933594 312.824219 226.585938 315.175781 223.691406 315.175781 L 220.195312 315.175781 Z M 220.195312 348.390625 " fill-opacity="1" fill-rule="nonzero"/></g><path fill="#000000" d="M 223.691406 315.175781 L 5.210938 315.175781 C 2.316406 315.175781 -0.03125 312.824219 -0.03125 309.929688 L -0.03125 274.964844 C -0.03125 272.066406 2.316406 269.71875 5.210938 269.71875 L 223.691406 269.71875 C 226.585938 269.71875 228.933594 272.066406 228.933594 274.964844 L 228.933594 309.929688 C 228.933594 312.824219 226.585938 315.175781 223.691406 315.175781 Z M 10.453125 304.683594 L 218.449219 304.683594 L 218.449219 280.207031 L 10.453125 280.207031 Z M 10.453125 304.683594 " fill-opacity="1" fill-rule="nonzero"/><g clip-path="url(#20840611ba)"><path fill="#000000" d="M 214.953125 358.882812 L 13.949219 358.882812 C 11.054688 358.882812 8.707031 356.535156 8.707031 353.636719 L 8.707031 309.929688 C 8.707031 307.035156 11.054688 304.683594 13.949219 304.683594 L 214.953125 304.683594 C 217.847656 304.683594 220.195312 307.035156 220.195312 309.929688 L 220.195312 353.636719 C 220.195312 356.535156 217.847656 358.882812 214.953125 358.882812 Z M 19.191406 348.390625 L 209.707031 348.390625 L 209.707031 315.175781 L 19.191406 315.175781 Z M 19.191406 348.390625 " fill-opacity="1" fill-rule="nonzero"/></g><path fill="#000000" d="M 328.5625 210.273438 L 171.257812 210.273438 C 158.726562 210.273438 148.535156 200.078125 148.535156 187.546875 C 148.535156 175.015625 158.726562 164.820312 171.257812 164.820312 L 328.5625 164.820312 C 341.09375 164.820312 351.285156 175.015625 351.285156 187.546875 C 351.285156 200.078125 341.089844 210.273438 328.5625 210.273438 Z M 171.257812 175.308594 C 164.507812 175.308594 159.023438 180.796875 159.023438 187.546875 C 159.023438 194.296875 164.507812 199.785156 171.257812 199.785156 L 328.5625 199.785156 C 335.308594 199.785156 340.796875 194.296875 340.796875 187.546875 C 340.796875 180.796875 335.308594 175.308594 328.5625 175.308594 Z M 171.257812 175.308594 " fill-opacity="1" fill-rule="nonzero"/><path fill="#000000" d="M 337.90625 313.195312 C 329.207031 313.195312 320.808594 310.007812 314.210938 304.066406 L 237.664062 235.152344 C 235.511719 233.214844 235.335938 229.898438 237.273438 227.746094 C 239.210938 225.59375 242.523438 225.417969 244.679688 227.355469 L 321.226562 296.269531 C 326.925781 301.398438 334.527344 303.613281 342.089844 302.359375 C 349.722656 301.085938 356.226562 296.460938 359.941406 289.667969 C 363.652344 282.878906 364.03125 274.90625 360.984375 267.792969 L 349.960938 242.0625 C 348.820312 239.398438 350.054688 236.316406 352.714844 235.175781 C 355.378906 234.035156 358.460938 235.265625 359.601562 237.929688 L 370.625 263.660156 C 374.949219 273.753906 374.40625 285.066406 369.140625 294.703125 C 363.875 304.335938 354.644531 310.898438 343.816406 312.703125 C 341.839844 313.035156 339.863281 313.195312 337.90625 313.195312 Z M 337.90625 313.195312 " fill-opacity="1" fill-rule="nonzero"/><path fill="#000000" d="M 179.996094 131.601562 C 167.464844 131.601562 157.273438 121.40625 157.273438 108.871094 C 157.273438 96.339844 167.464844 86.144531 179.996094 86.144531 C 192.523438 86.144531 202.714844 96.339844 202.714844 108.871094 C 202.714844 121.40625 192.523438 131.601562 179.996094 131.601562 Z M 179.996094 96.632812 C 173.25 96.632812 167.761719 102.125 167.761719 108.871094 C 167.761719 115.621094 173.25 121.109375 179.996094 121.109375 C 186.742188 121.109375 192.230469 115.621094 192.230469 108.871094 C 192.230469 102.125 186.742188 96.632812 179.996094 96.632812 Z M 179.996094 96.632812 " fill-opacity="1" fill-rule="nonzero"/><path fill="#000000" d="M 35.796875 210.273438 C 25.675781 210.273438 17.445312 202.039062 17.445312 191.917969 C 17.445312 181.796875 25.675781 173.558594 35.796875 173.558594 C 45.917969 173.558594 54.148438 181.796875 54.148438 191.917969 C 54.148438 202.039062 45.917969 210.273438 35.796875 210.273438 Z M 35.796875 184.050781 C 31.460938 184.050781 27.933594 187.578125 27.933594 191.917969 C 27.933594 196.257812 31.460938 199.785156 35.796875 199.785156 C 40.132812 199.785156 43.664062 196.257812 43.664062 191.917969 C 43.664062 187.578125 40.132812 184.050781 35.796875 184.050781 Z M 35.796875 184.050781 " fill-opacity="1" fill-rule="nonzero"/><g clip-path="url(#8aa8e20e12)"><path fill="#000000" d="M 306.714844 70.410156 C 291.777344 70.410156 279.621094 58.253906 279.621094 43.308594 C 279.621094 28.367188 291.777344 16.210938 306.714844 16.210938 C 321.652344 16.210938 333.804688 28.367188 333.804688 43.308594 C 333.804688 58.253906 321.652344 70.410156 306.714844 70.410156 Z M 306.714844 26.703125 C 297.558594 26.703125 290.109375 34.152344 290.109375 43.308594 C 290.109375 52.46875 297.558594 59.917969 306.714844 59.917969 C 315.871094 59.917969 323.320312 52.46875 323.320312 43.308594 C 323.320312 34.152344 315.871094 26.703125 306.714844 26.703125 Z M 306.714844 26.703125 " fill-opacity="1" fill-rule="nonzero"/></g></svg>