<svg xmlns="http://www.w3.org/2000/svg" xmlns:xlink="http://www.w3.org/1999/xlink" width="500" zoomAndPan="magnify" viewBox="0 0 375 374.999991" height="500" preserveAspectRatio="xMidYMid meet" version="1.0"><defs><clipPath id="e989642a69"><path d="M 0 99 L 375 99 L 375 276.9375 L 0 276.9375 Z M 0 99 " clip-rule="nonzero"/></clipPath></defs><g clip-path="url(#e989642a69)"><path fill="#ffffff" d="M 88.871094 99.039062 C 40.011719 99.039062 0.40625 138.730469 0.40625 187.6875 C 0.40625 236.644531 40.011719 276.335938 88.871094 276.335938 C 108.59375 276.335938 266.40625 276.335938 286.128906 276.335938 C 334.988281 276.335938 374.59375 236.644531 374.59375 187.6875 C 374.503906 138.875 335.125 99.285156 286.414062 99.039062 C 286.414062 99.039062 108.628906 99.039062 88.871094 99.039062 Z M 88.871094 268.183594 C 44.519531 268.136719 8.589844 232.128906 8.542969 187.6875 C 8.589844 143.246094 44.519531 107.238281 88.871094 107.191406 C 99.117188 107.191406 150.367188 107.191406 242.609375 107.191406 L 241.636719 107.558594 L 238.828125 108.699219 L 236.835938 109.472656 L 233.988281 110.777344 L 232.238281 111.671875 L 229.269531 113.183594 L 227.480469 114.160156 L 224.308594 115.992188 C 223.382812 116.53125 222.867188 116.832031 222.761719 116.890625 C 221.460938 117.707031 220.160156 118.601562 218.898438 119.5 C 218.824219 119.546875 218.207031 119.9375 218.125 119.988281 C 216.621094 121.089844 215.117188 122.230469 213.613281 123.453125 C 213.53125 123.527344 212.847656 124.113281 212.757812 124.1875 C 211.578125 125.164062 210.4375 126.183594 209.339844 127.203125 C 209.195312 127.347656 208.054688 128.492188 207.917969 128.628906 C 207.023438 129.527344 206.085938 130.421875 205.234375 131.359375 C 204.378906 132.296875 204.214844 132.5 203.726562 133.113281 C 203.242188 133.722656 202.140625 134.945312 201.371094 135.882812 C 201.222656 136.085938 200.050781 137.683594 199.90625 137.882812 C 199.171875 138.859375 198.480469 139.835938 197.789062 140.855469 C 197.652344 141.078125 196.546875 142.835938 196.40625 143.058594 C 195.757812 144.117188 195.144531 145.136719 194.535156 146.238281 C 193.925781 147.335938 193.683594 147.824219 193.277344 148.640625 C 192.867188 149.457031 192.136719 150.921875 191.648438 152.066406 C 191.160156 153.207031 190.875 153.777344 190.507812 154.671875 C 190.144531 155.570312 189.535156 157.160156 189.085938 158.421875 C 188.640625 159.6875 188.433594 160.214844 188.152344 161.152344 C 187.867188 162.089844 187.378906 163.925781 186.972656 165.230469 C 186.566406 166.535156 186.484375 167.023438 186.28125 167.960938 C 185.914062 169.550781 185.589844 171.222656 185.304688 172.933594 C 185.304688 173.75 184.976562 174.5625 184.855469 175.417969 C 184.488281 177.988281 184.164062 180.59375 183.960938 183.367188 C 183.945312 183.546875 183.945312 183.71875 183.960938 183.898438 C 183.960938 186.097656 183.757812 188.378906 183.757812 190.703125 C 183.757812 190.703125 183.757812 190.703125 183.757812 190.988281 C 178.1875 266.148438 98.347656 268.183594 89.277344 268.183594 C 89.195312 268.183594 88.949219 268.183594 88.871094 268.183594 Z M 285.96875 268.183594 C 270.644531 268.183594 148.007812 268.183594 132.671875 268.183594 C 159.027344 258.566406 188.109375 237.617188 191.566406 191.925781 C 191.582031 191.738281 191.582031 191.542969 191.566406 191.355469 C 191.566406 189.15625 191.769531 186.871094 191.769531 184.550781 C 191.769531 184.550781 191.769531 184.550781 191.769531 184.265625 C 197.097656 109.351562 276.980469 107.191406 286.007812 107.191406 C 286.050781 107.191406 286.375 107.191406 286.414062 107.191406 C 330.632812 107.433594 366.371094 143.375 366.457031 187.6875 C 366.539062 209.054688 358.054688 229.546875 342.910156 244.585938 C 327.867188 259.804688 307.34375 268.308594 285.96875 268.183594 Z M 285.96875 268.183594 " fill-opacity="1" fill-rule="nonzero"/></g><path fill="#ffffff" d="M 114.859375 155.570312 C 114.019531 158.40625 109.832031 172.605469 102.292969 198.164062 C 94.847656 172.605469 90.714844 158.40625 89.886719 155.570312 C 89.367188 153.769531 87.691406 152.5625 85.820312 152.636719 C 83.949219 152.5625 82.273438 153.769531 81.75 155.570312 C 80.914062 158.40625 76.707031 172.605469 69.144531 198.164062 C 61.699219 172.605469 57.566406 158.40625 56.738281 155.570312 C 56.09375 153.410156 53.835938 152.179688 51.671875 152.824219 C 49.515625 153.457031 48.285156 155.734375 48.929688 157.894531 C 50.582031 163.46875 63.824219 208.105469 65.484375 213.691406 C 66.148438 215.84375 68.425781 217.042969 70.574219 216.371094 C 71.851562 215.972656 72.851562 214.972656 73.25 213.691406 C 74.089844 210.855469 78.277344 196.652344 85.820312 171.097656 C 93.359375 196.652344 97.546875 210.855469 98.386719 213.691406 C 99.011719 215.851562 101.273438 217.089844 103.429688 216.460938 C 104.765625 216.070312 105.804688 215.027344 106.195312 213.691406 C 107.839844 208.117188 121.015625 163.476562 122.667969 157.894531 C 123.292969 155.734375 122.058594 153.46875 119.902344 152.839844 C 117.753906 152.203125 115.5 153.425781 114.859375 155.570312 Z M 114.859375 155.570312 " fill-opacity="1" fill-rule="nonzero"/><path fill="#ffffff" d="M 142.761719 156.710938 C 142.761719 162.296875 142.761719 206.933594 142.761719 212.507812 C 142.761719 214.757812 144.582031 216.585938 146.828125 216.585938 C 149.074219 216.585938 150.894531 214.757812 150.894531 212.507812 C 150.894531 206.933594 150.894531 162.296875 150.894531 156.710938 C 150.894531 154.460938 149.074219 152.636719 146.828125 152.636719 C 144.582031 152.636719 142.761719 154.460938 142.761719 156.710938 Z M 142.761719 156.710938 " fill-opacity="1" fill-rule="nonzero"/><path fill="#ffffff" d="M 248.507812 152.636719 C 246.261719 152.636719 244.441406 154.460938 244.441406 156.710938 C 244.441406 162.296875 244.441406 206.933594 244.441406 212.507812 C 244.441406 214.757812 246.261719 216.585938 248.507812 216.585938 C 250.753906 216.585938 252.574219 214.757812 252.574219 212.507812 C 252.574219 210.917969 252.574219 202.988281 252.574219 188.707031 C 263.851562 188.707031 270.113281 188.707031 271.367188 188.707031 C 273.613281 188.707031 275.433594 186.878906 275.433594 184.628906 C 275.433594 182.378906 273.613281 180.554688 271.367188 180.554688 C 270.113281 180.554688 263.851562 180.554688 252.574219 180.554688 L 252.574219 160.789062 C 269.828125 160.789062 279.410156 160.789062 281.332031 160.789062 C 283.578125 160.789062 285.398438 158.960938 285.398438 156.710938 C 285.398438 154.460938 283.578125 152.636719 281.332031 152.636719 C 274.765625 152.636719 251.796875 152.636719 248.507812 152.636719 Z M 248.507812 152.636719 " fill-opacity="1" fill-rule="nonzero"/><path fill="#ffffff" d="M 300.121094 156.710938 C 300.121094 162.296875 300.121094 206.933594 300.121094 212.507812 C 300.121094 214.757812 301.945312 216.585938 304.1875 216.585938 C 306.433594 216.585938 308.257812 214.757812 308.257812 212.507812 C 308.257812 206.933594 308.257812 162.296875 308.257812 156.710938 C 308.257812 154.460938 306.433594 152.636719 304.1875 152.636719 C 301.945312 152.636719 300.121094 154.460938 300.121094 156.710938 Z M 300.121094 156.710938 " fill-opacity="1" fill-rule="nonzero"/></svg>