<svg xmlns="http://www.w3.org/2000/svg" xmlns:xlink="http://www.w3.org/1999/xlink" width="500" zoomAndPan="magnify" viewBox="0 0 375 374.999991" height="500" preserveAspectRatio="xMidYMid meet" version="1.0"><defs><clipPath id="ffa4b95b9f"><path d="M 0 99 L 375 99 L 375 276.9375 L 0 276.9375 Z M 0 99 " clip-rule="nonzero"/></clipPath><clipPath id="415975cd20"><path d="M 297.203125 99.746094 L 300.714844 100.261719 L 304.1875 100.914062 L 307.605469 101.703125 L 310.972656 102.625 L 314.285156 103.667969 L 317.539062 104.835938 L 320.726562 106.128906 L 323.859375 107.539062 L 326.925781 109.074219 L 329.917969 110.710938 L 332.847656 112.464844 L 335.695312 114.324219 L 338.46875 116.296875 L 341.160156 118.359375 L 343.773438 120.527344 L 346.300781 122.792969 L 348.734375 125.148438 L 351.085938 127.601562 L 353.335938 130.136719 L 355.484375 132.761719 L 357.542969 135.46875 L 359.496094 138.257812 L 361.34375 141.117188 L 363.082031 144.050781 L 364.710938 147.058594 L 366.230469 150.132812 L 367.628906 153.28125 L 368.90625 156.484375 L 370.0625 159.75 L 371.09375 163.070312 L 372 166.445312 L 372.777344 169.875 L 373.414062 173.347656 L 373.925781 176.871094 L 374.292969 180.441406 L 374.511719 184.042969 L 374.59375 187.6875 L 374.519531 191.339844 L 374.300781 194.957031 L 373.933594 198.539062 L 373.4375 202.066406 L 372.796875 205.554688 L 372.023438 208.988281 L 371.121094 212.378906 L 370.085938 215.703125 L 368.921875 218.980469 L 367.636719 222.191406 L 366.238281 225.339844 L 364.71875 228.429688 L 363.082031 231.4375 L 361.34375 234.378906 L 359.488281 237.25 L 357.527344 240.046875 L 355.460938 242.75 L 353.296875 245.375 L 351.035156 247.917969 L 348.683594 250.375 L 346.238281 252.730469 L 343.699219 254.996094 L 341.078125 257.164062 L 338.378906 259.234375 L 335.589844 261.199219 L 332.726562 263.058594 L 329.789062 264.800781 L 326.785156 266.441406 L 323.703125 267.964844 L 320.5625 269.367188 L 317.359375 270.65625 L 314.089844 271.820312 L 310.769531 272.855469 L 307.386719 273.761719 L 303.960938 274.535156 L 300.480469 275.179688 L 296.957031 275.675781 L 293.386719 276.042969 L 289.773438 276.261719 L 286.128906 276.335938 L 88.871094 276.335938 L 85.226562 276.261719 L 81.613281 276.042969 L 78.042969 275.675781 L 74.519531 275.179688 L 71.039062 274.535156 L 67.613281 273.761719 L 64.230469 272.855469 L 60.910156 271.820312 L 57.640625 270.65625 L 54.4375 269.367188 L 51.296875 267.964844 L 48.214844 266.441406 L 45.210938 264.800781 L 42.273438 263.058594 L 39.410156 261.199219 L 36.621094 259.234375 L 33.921875 257.164062 L 31.300781 254.996094 L 28.761719 252.730469 L 26.316406 250.375 L 23.964844 247.917969 L 21.703125 245.375 L 19.539062 242.75 L 17.472656 240.046875 L 15.511719 237.25 L 13.65625 234.378906 L 11.917969 231.4375 L 10.28125 228.429688 L 8.761719 225.339844 L 7.363281 222.191406 L 6.078125 218.980469 L 4.914062 215.703125 L 3.878906 212.378906 L 2.976562 208.988281 L 2.203125 205.554688 L 1.5625 202.066406 L 1.066406 198.539062 L 0.699219 194.957031 L 0.480469 191.339844 L 0.40625 187.6875 L 0.480469 184.035156 L 0.699219 180.417969 L 1.066406 176.835938 L 1.5625 173.308594 L 2.203125 169.820312 L 2.976562 166.386719 L 3.878906 162.996094 L 4.914062 159.671875 L 6.078125 156.394531 L 7.363281 153.183594 L 8.761719 150.035156 L 10.28125 146.945312 L 11.917969 143.9375 L 13.65625 140.996094 L 15.511719 138.125 L 17.472656 135.328125 L 19.539062 132.625 L 21.703125 130 L 23.964844 127.457031 L 26.316406 125 L 28.761719 122.644531 L 31.300781 120.378906 L 33.921875 118.210938 L 36.621094 116.140625 L 39.410156 114.175781 L 42.273438 112.316406 L 45.210938 110.574219 L 48.214844 108.933594 L 51.296875 107.410156 L 54.4375 106.007812 L 57.640625 104.71875 L 60.910156 103.554688 L 64.230469 102.519531 L 67.613281 101.613281 L 71.039062 100.839844 L 74.519531 100.195312 L 78.042969 99.699219 L 81.613281 99.332031 L 85.226562 99.113281 L 88.871094 99.039062 L 286.414062 99.039062 L 290.050781 99.128906 L 293.648438 99.363281 Z M 82.28125 107.460938 L 79.042969 107.792969 L 75.847656 108.257812 L 72.691406 108.835938 L 69.574219 109.546875 L 66.507812 110.371094 L 63.488281 111.316406 L 60.527344 112.367188 L 57.617188 113.539062 L 54.761719 114.8125 L 51.972656 116.199219 L 49.238281 117.691406 L 46.578125 119.269531 L 43.976562 120.964844 L 41.453125 122.742188 L 38.996094 124.625 L 36.613281 126.589844 L 34.3125 128.644531 L 32.089844 130.789062 L 29.953125 133.015625 L 27.902344 135.320312 L 25.941406 137.710938 L 24.0625 140.171875 L 22.289062 142.699219 L 20.597656 145.308594 L 19.019531 147.972656 L 17.53125 150.710938 L 16.148438 153.507812 L 14.878906 156.367188 L 13.707031 159.289062 L 12.65625 162.253906 L 11.714844 165.277344 L 10.890625 168.351562 L 10.183594 171.472656 L 9.605469 174.636719 L 9.144531 177.839844 L 8.808594 181.085938 L 8.613281 184.371094 L 8.542969 187.6875 L 8.613281 191.003906 L 8.808594 194.289062 L 9.144531 197.535156 L 9.605469 200.738281 L 10.183594 203.902344 L 10.890625 207.023438 L 11.714844 210.097656 L 12.65625 213.121094 L 13.707031 216.085938 L 14.878906 219.007812 L 16.148438 221.867188 L 17.53125 224.664062 L 19.019531 227.402344 L 20.597656 230.066406 L 22.289062 232.675781 L 24.0625 235.203125 L 25.941406 237.664062 L 27.902344 240.054688 L 29.953125 242.359375 L 32.089844 244.585938 L 34.3125 246.730469 L 36.613281 248.785156 L 38.996094 250.75 L 41.453125 252.632812 L 43.976562 254.410156 L 46.578125 256.105469 L 49.238281 257.683594 L 51.972656 259.175781 L 54.761719 260.5625 L 57.617188 261.835938 L 60.527344 263.007812 L 63.488281 264.058594 L 66.507812 265.003906 L 69.574219 265.828125 L 72.691406 266.539062 L 75.847656 267.117188 L 79.042969 267.582031 L 82.28125 267.914062 L 85.558594 268.109375 L 88.871094 268.183594 L 89.277344 268.183594 L 90.089844 268.175781 L 91.148438 268.160156 L 92.449219 268.121094 L 93.976562 268.054688 L 95.710938 267.949219 L 97.644531 267.808594 L 99.761719 267.613281 L 102.046875 267.371094 L 104.496094 267.066406 L 107.082031 266.691406 L 109.800781 266.246094 L 112.628906 265.714844 L 115.566406 265.09375 L 118.59375 264.386719 L 121.683594 263.578125 L 124.847656 262.65625 L 128.054688 261.621094 L 131.296875 260.472656 L 134.5625 259.183594 L 137.832031 257.773438 L 141.09375 256.210938 L 144.339844 254.507812 L 147.542969 252.648438 L 150.707031 250.625 L 153.808594 248.441406 L 156.832031 246.078125 L 159.769531 243.535156 L 162.609375 240.8125 L 165.324219 237.886719 L 167.921875 234.753906 L 170.367188 231.429688 L 172.664062 227.875 L 174.785156 224.109375 L 176.730469 220.113281 L 178.46875 215.882812 L 180 211.417969 L 181.308594 206.695312 L 182.382812 201.722656 L 183.203125 196.492188 L 183.757812 190.988281 L 183.757812 190.183594 L 183.765625 190.011719 L 183.765625 189.832031 L 183.773438 189.660156 L 183.773438 189.488281 L 183.78125 189.316406 L 183.78125 189.136719 L 183.789062 188.96875 L 183.796875 188.796875 L 183.796875 188.625 L 183.808594 188.453125 L 183.816406 188.28125 L 183.824219 188.113281 L 183.855469 187.425781 L 183.855469 187.253906 L 183.863281 187.085938 L 183.886719 186.570312 L 183.894531 186.40625 L 183.90625 186.238281 L 183.914062 186.066406 L 183.921875 185.902344 L 183.921875 185.730469 L 183.929688 185.558594 L 183.9375 185.398438 L 183.9375 185.226562 L 183.945312 185.0625 L 183.945312 184.890625 L 183.953125 184.726562 L 183.953125 184.558594 L 183.960938 184.394531 L 183.960938 183.855469 L 183.953125 183.847656 L 183.953125 183.75 L 183.945312 183.742188 L 183.945312 183.523438 L 183.953125 183.515625 L 183.953125 183.417969 L 183.960938 183.40625 L 183.960938 183.367188 L 183.976562 183.164062 L 183.992188 182.953125 L 184.011719 182.746094 L 184.027344 182.542969 L 184.042969 182.332031 L 184.074219 181.925781 L 184.101562 181.71875 L 184.117188 181.515625 L 184.132812 181.320312 L 184.15625 181.117188 L 184.171875 180.914062 L 184.199219 180.710938 L 184.214844 180.515625 L 184.238281 180.308594 L 184.261719 180.113281 L 184.277344 179.910156 L 184.304688 179.714844 L 184.328125 179.511719 L 184.351562 179.316406 L 184.367188 179.121094 L 184.394531 178.925781 L 184.417969 178.71875 L 184.488281 178.132812 L 184.515625 177.9375 L 184.585938 177.351562 L 184.613281 177.164062 L 184.644531 176.96875 L 184.667969 176.773438 L 184.695312 176.578125 L 184.71875 176.382812 L 184.75 176.195312 L 184.773438 176 L 184.800781 175.800781 L 184.832031 175.613281 L 184.855469 175.417969 L 184.863281 175.355469 L 184.871094 175.289062 L 184.890625 175.222656 L 184.898438 175.167969 L 184.914062 175.101562 L 184.921875 175.035156 L 184.9375 174.972656 L 184.945312 174.914062 L 184.960938 174.847656 L 184.976562 174.785156 L 184.996094 174.71875 L 185.003906 174.660156 L 185.019531 174.597656 L 185.035156 174.53125 L 185.050781 174.472656 L 185.066406 174.410156 L 185.085938 174.34375 L 185.101562 174.285156 L 185.109375 174.222656 L 185.125 174.164062 L 185.140625 174.097656 L 185.15625 174.035156 L 185.164062 173.976562 L 185.183594 173.910156 L 185.199219 173.855469 L 185.207031 173.789062 L 185.222656 173.730469 L 185.230469 173.667969 L 185.238281 173.609375 L 185.253906 173.542969 L 185.261719 173.488281 L 185.269531 173.421875 L 185.277344 173.363281 L 185.289062 173.300781 L 185.289062 173.242188 L 185.296875 173.175781 L 185.296875 173.121094 L 185.304688 173.054688 L 185.304688 172.933594 L 185.328125 172.800781 L 185.34375 172.679688 L 185.367188 172.550781 L 185.394531 172.417969 L 185.410156 172.289062 L 185.433594 172.167969 L 185.457031 172.035156 L 185.484375 171.914062 L 185.5 171.785156 L 185.523438 171.660156 L 185.570312 171.402344 L 185.597656 171.277344 L 185.621094 171.15625 L 185.636719 171.027344 L 185.660156 170.902344 L 185.6875 170.773438 L 185.710938 170.652344 L 185.734375 170.527344 L 185.757812 170.398438 L 185.785156 170.277344 L 185.808594 170.152344 L 185.832031 170.03125 L 185.855469 169.902344 L 185.882812 169.777344 L 185.914062 169.65625 L 185.9375 169.535156 L 185.960938 169.410156 L 185.988281 169.289062 L 186.011719 169.167969 L 186.035156 169.042969 L 186.066406 168.921875 L 186.09375 168.800781 L 186.117188 168.679688 L 186.140625 168.5625 L 186.175781 168.441406 L 186.199219 168.320312 L 186.222656 168.195312 L 186.253906 168.082031 L 186.28125 167.960938 L 186.296875 167.886719 L 186.3125 167.820312 L 186.320312 167.757812 L 186.351562 167.625 L 186.359375 167.5625 L 186.378906 167.503906 L 186.394531 167.4375 L 186.402344 167.382812 L 186.417969 167.324219 L 186.425781 167.257812 L 186.441406 167.203125 L 186.457031 167.144531 L 186.46875 167.089844 L 186.484375 167.03125 L 186.492188 166.964844 L 186.507812 166.910156 L 186.523438 166.851562 L 186.53125 166.792969 L 186.546875 166.730469 L 186.566406 166.671875 L 186.582031 166.605469 L 186.597656 166.550781 L 186.628906 166.417969 L 186.644531 166.355469 L 186.664062 166.289062 L 186.679688 166.214844 L 186.703125 166.152344 L 186.71875 166.078125 L 186.742188 166.003906 L 186.757812 165.921875 L 186.785156 165.847656 L 186.808594 165.769531 L 186.832031 165.6875 L 186.855469 165.597656 L 186.882812 165.507812 L 186.914062 165.417969 L 186.9375 165.328125 L 186.972656 165.230469 L 187.035156 165.035156 L 187.0625 164.929688 L 187.09375 164.820312 L 187.125 164.714844 L 187.160156 164.609375 L 187.222656 164.398438 L 187.257812 164.285156 L 187.289062 164.179688 L 187.320312 164.0625 L 187.355469 163.949219 L 187.386719 163.835938 L 187.417969 163.730469 L 187.453125 163.617188 L 187.484375 163.5 L 187.507812 163.386719 L 187.539062 163.273438 L 187.574219 163.167969 L 187.605469 163.054688 L 187.636719 162.949219 L 187.671875 162.832031 L 187.703125 162.726562 L 187.726562 162.621094 L 187.761719 162.515625 L 187.792969 162.410156 L 187.816406 162.304688 L 187.851562 162.199219 L 187.875 162.097656 L 187.90625 162 L 187.929688 161.902344 L 187.957031 161.8125 L 187.988281 161.722656 L 188.011719 161.636719 L 188.035156 161.546875 L 188.0625 161.464844 L 188.109375 161.300781 L 188.125 161.226562 L 188.152344 161.152344 L 188.175781 161.082031 L 188.191406 161.015625 L 188.214844 160.949219 L 188.230469 160.886719 L 188.257812 160.820312 L 188.273438 160.753906 L 188.296875 160.6875 L 188.3125 160.632812 L 188.335938 160.566406 L 188.355469 160.511719 L 188.371094 160.453125 L 188.394531 160.386719 L 188.410156 160.332031 L 188.433594 160.273438 L 188.453125 160.207031 L 188.476562 160.152344 L 188.492188 160.09375 L 188.515625 160.027344 L 188.53125 159.972656 L 188.558594 159.914062 L 188.582031 159.851562 L 188.597656 159.785156 L 188.621094 159.726562 L 188.648438 159.664062 L 188.695312 159.53125 L 188.71875 159.457031 L 188.746094 159.394531 L 188.769531 159.320312 L 188.792969 159.253906 L 188.84375 159.101562 L 188.875 159.027344 L 188.898438 158.945312 L 188.933594 158.863281 L 188.957031 158.78125 L 188.988281 158.691406 L 189.019531 158.609375 L 189.054688 158.511719 L 189.085938 158.421875 L 189.117188 158.324219 L 189.152344 158.226562 L 189.191406 158.136719 L 189.222656 158.03125 L 189.257812 157.933594 L 189.296875 157.835938 L 189.332031 157.738281 L 189.371094 157.632812 L 189.410156 157.535156 L 189.445312 157.429688 L 189.484375 157.332031 L 189.527344 157.226562 L 189.558594 157.117188 L 189.597656 157.019531 L 189.640625 156.914062 L 189.671875 156.816406 L 189.710938 156.710938 L 189.753906 156.613281 L 189.792969 156.507812 L 189.828125 156.410156 L 189.90625 156.214844 L 189.941406 156.117188 L 189.980469 156.019531 L 190.011719 155.921875 L 190.054688 155.824219 L 190.085938 155.734375 L 190.128906 155.644531 L 190.160156 155.546875 L 190.191406 155.457031 L 190.234375 155.375 L 190.265625 155.285156 L 190.296875 155.203125 L 190.332031 155.121094 L 190.394531 154.957031 L 190.421875 154.886719 L 190.484375 154.738281 L 190.507812 154.671875 L 190.535156 154.609375 L 190.566406 154.542969 L 190.589844 154.476562 L 190.617188 154.414062 L 190.640625 154.347656 L 190.671875 154.289062 L 190.695312 154.226562 L 190.722656 154.167969 L 190.746094 154.109375 L 190.769531 154.046875 L 190.800781 153.988281 L 190.828125 153.929688 L 190.851562 153.875 L 190.875 153.808594 L 190.898438 153.753906 L 190.925781 153.695312 L 190.957031 153.636719 L 190.980469 153.582031 L 191.007812 153.523438 L 191.03125 153.457031 L 191.0625 153.402344 L 191.085938 153.335938 L 191.144531 153.214844 L 191.167969 153.15625 L 191.203125 153.09375 L 191.226562 153.027344 L 191.257812 152.960938 L 191.28125 152.894531 L 191.316406 152.832031 L 191.378906 152.683594 L 191.414062 152.621094 L 191.445312 152.546875 L 191.476562 152.464844 L 191.511719 152.390625 L 191.574219 152.226562 L 191.617188 152.144531 L 191.648438 152.066406 L 191.6875 151.976562 L 191.722656 151.894531 L 191.761719 151.804688 L 191.804688 151.714844 L 191.882812 151.535156 L 191.925781 151.4375 L 191.964844 151.347656 L 192.007812 151.257812 L 192.054688 151.160156 L 192.097656 151.070312 L 192.136719 150.972656 L 192.183594 150.882812 L 192.226562 150.785156 L 192.265625 150.695312 L 192.316406 150.597656 L 192.355469 150.507812 L 192.40625 150.417969 L 192.445312 150.320312 L 192.496094 150.230469 L 192.535156 150.140625 L 192.585938 150.050781 L 192.664062 149.871094 L 192.714844 149.78125 L 192.753906 149.691406 L 192.796875 149.609375 L 192.835938 149.523438 L 192.875 149.441406 L 192.917969 149.359375 L 192.957031 149.277344 L 193 149.203125 L 193.03125 149.121094 L 193.070312 149.050781 L 193.113281 148.976562 L 193.144531 148.902344 L 193.179688 148.835938 L 193.277344 148.640625 L 193.332031 148.519531 L 193.363281 148.460938 L 193.390625 148.40625 L 193.421875 148.347656 L 193.445312 148.289062 L 193.480469 148.242188 L 193.503906 148.183594 L 193.527344 148.128906 L 193.558594 148.078125 L 193.585938 148.023438 L 193.609375 147.972656 L 193.640625 147.914062 L 193.664062 147.867188 L 193.691406 147.808594 L 193.722656 147.761719 L 193.746094 147.703125 L 193.773438 147.65625 L 193.804688 147.597656 L 193.828125 147.550781 L 193.859375 147.492188 L 193.886719 147.433594 L 193.917969 147.378906 L 193.941406 147.320312 L 193.976562 147.261719 L 194.007812 147.207031 L 194.039062 147.148438 L 194.074219 147.085938 L 194.105469 147.027344 L 194.136719 146.960938 L 194.171875 146.898438 L 194.210938 146.832031 L 194.242188 146.765625 L 194.285156 146.691406 L 194.324219 146.621094 L 194.367188 146.546875 L 194.445312 146.398438 L 194.488281 146.316406 L 194.535156 146.238281 L 194.585938 146.15625 L 194.625 146.074219 L 194.675781 145.992188 L 194.722656 145.910156 L 194.765625 145.828125 L 194.8125 145.746094 L 194.855469 145.664062 L 194.902344 145.585938 L 194.953125 145.503906 L 194.992188 145.421875 L 195.039062 145.347656 L 195.089844 145.265625 L 195.128906 145.183594 L 195.179688 145.101562 L 195.226562 145.03125 L 195.269531 144.949219 L 195.316406 144.867188 L 195.367188 144.785156 L 195.40625 144.710938 L 195.457031 144.628906 L 195.503906 144.550781 L 195.554688 144.476562 L 195.59375 144.394531 L 195.644531 144.320312 L 195.738281 144.15625 L 195.78125 144.085938 L 195.828125 144.003906 L 195.878906 143.921875 L 195.925781 143.847656 L 195.976562 143.765625 L 196.023438 143.691406 L 196.066406 143.613281 L 196.113281 143.53125 L 196.164062 143.457031 L 196.210938 143.375 L 196.261719 143.292969 L 196.308594 143.210938 L 196.359375 143.140625 L 196.40625 143.058594 L 197.789062 140.855469 L 197.839844 140.78125 L 197.894531 140.703125 L 197.945312 140.628906 L 198 140.554688 L 198.050781 140.472656 L 198.097656 140.398438 L 198.15625 140.328125 L 198.203125 140.253906 L 198.253906 140.171875 L 198.3125 140.097656 L 198.359375 140.023438 L 198.417969 139.953125 L 198.464844 139.878906 L 198.515625 139.796875 L 198.570312 139.722656 L 198.621094 139.648438 L 198.675781 139.578125 L 198.726562 139.503906 L 198.78125 139.429688 L 198.832031 139.355469 L 198.886719 139.28125 L 198.9375 139.203125 L 198.992188 139.128906 L 199.042969 139.054688 L 199.101562 138.980469 L 199.148438 138.910156 L 199.207031 138.835938 L 199.253906 138.761719 L 199.3125 138.6875 L 199.359375 138.613281 L 199.417969 138.542969 L 199.472656 138.46875 L 199.523438 138.394531 L 199.578125 138.320312 L 199.628906 138.246094 L 199.683594 138.175781 L 199.800781 138.027344 L 199.847656 137.953125 L 199.90625 137.882812 L 201.371094 135.882812 L 201.425781 135.8125 L 201.492188 135.746094 L 201.546875 135.671875 L 201.613281 135.597656 L 201.671875 135.515625 L 201.734375 135.445312 L 201.867188 135.296875 L 201.929688 135.214844 L 201.996094 135.140625 L 202.0625 135.0625 L 202.125 134.988281 L 202.191406 134.914062 L 202.265625 134.832031 L 202.328125 134.757812 L 202.394531 134.675781 L 202.460938 134.605469 L 202.523438 134.53125 L 202.589844 134.449219 L 202.65625 134.375 L 202.71875 134.300781 L 202.785156 134.230469 L 202.851562 134.15625 L 202.90625 134.082031 L 202.972656 134.007812 L 203.027344 133.945312 L 203.09375 133.871094 L 203.152344 133.804688 L 203.207031 133.738281 L 203.265625 133.675781 L 203.3125 133.609375 L 203.371094 133.542969 L 203.417969 133.488281 L 203.46875 133.421875 L 203.515625 133.363281 L 203.566406 133.316406 L 203.605469 133.257812 L 203.648438 133.210938 L 203.6875 133.160156 L 203.726562 133.113281 L 203.761719 133.0625 L 203.800781 133.023438 L 203.835938 132.980469 L 203.898438 132.902344 L 203.933594 132.859375 L 203.957031 132.820312 L 203.988281 132.785156 L 204.019531 132.746094 L 204.046875 132.714844 L 204.078125 132.679688 L 204.109375 132.640625 L 204.136719 132.605469 L 204.167969 132.574219 L 204.191406 132.535156 L 204.222656 132.5 L 204.25 132.46875 L 204.28125 132.425781 L 204.3125 132.394531 L 204.347656 132.363281 L 204.378906 132.320312 L 204.402344 132.28125 L 204.445312 132.25 L 204.476562 132.207031 L 204.507812 132.167969 L 204.550781 132.125 L 204.582031 132.078125 L 204.625 132.035156 L 204.664062 131.988281 L 204.703125 131.945312 L 204.753906 131.898438 L 204.792969 131.839844 L 204.84375 131.792969 L 204.890625 131.734375 L 204.941406 131.675781 L 204.996094 131.621094 L 205.054688 131.554688 L 205.109375 131.5 L 205.167969 131.425781 L 205.234375 131.359375 L 205.296875 131.285156 L 205.363281 131.222656 L 205.429688 131.148438 L 205.492188 131.082031 L 205.558594 131.007812 L 205.625 130.945312 L 205.6875 130.871094 L 205.753906 130.804688 L 205.820312 130.730469 L 206.023438 130.527344 L 206.085938 130.453125 L 206.152344 130.390625 L 206.226562 130.316406 L 206.289062 130.25 L 206.355469 130.1875 L 206.421875 130.113281 L 206.492188 130.046875 L 206.558594 129.980469 L 206.625 129.910156 L 206.699219 129.84375 L 206.761719 129.777344 L 206.835938 129.703125 L 206.902344 129.640625 L 206.964844 129.574219 L 207.039062 129.5 L 207.105469 129.4375 L 207.167969 129.371094 L 207.308594 129.230469 L 207.378906 129.167969 L 207.511719 129.035156 L 207.585938 128.964844 L 207.648438 128.898438 L 207.917969 128.628906 L 209.339844 127.203125 L 209.421875 127.128906 L 209.503906 127.046875 L 209.585938 126.972656 L 209.675781 126.902344 L 209.757812 126.820312 L 209.835938 126.746094 L 209.917969 126.664062 L 210.007812 126.589844 L 210.089844 126.519531 L 210.171875 126.4375 L 210.261719 126.363281 L 210.339844 126.289062 L 210.421875 126.207031 L 210.511719 126.132812 L 210.59375 126.0625 L 210.675781 125.980469 L 210.765625 125.90625 L 210.847656 125.832031 L 210.933594 125.75 L 211.015625 125.679688 L 211.105469 125.605469 L 211.1875 125.53125 L 211.277344 125.449219 L 211.359375 125.375 L 211.449219 125.304688 L 211.539062 125.230469 L 211.617188 125.148438 L 211.796875 125 L 211.878906 124.929688 L 212.058594 124.78125 L 212.140625 124.699219 L 212.230469 124.625 L 212.316406 124.554688 L 212.40625 124.480469 L 212.488281 124.40625 L 212.667969 124.257812 L 212.757812 124.1875 L 213.613281 123.453125 L 213.839844 123.273438 L 213.953125 123.175781 L 214.066406 123.085938 L 214.171875 122.996094 L 214.285156 122.90625 L 214.402344 122.816406 L 214.855469 122.457031 L 214.96875 122.375 L 215.074219 122.285156 L 215.191406 122.199219 L 215.417969 122.019531 L 215.53125 121.9375 L 215.757812 121.757812 L 215.875 121.675781 L 215.980469 121.585938 L 216.09375 121.503906 L 216.207031 121.414062 L 216.320312 121.332031 L 216.433594 121.242188 L 216.546875 121.164062 L 216.664062 121.074219 L 216.769531 120.992188 L 216.882812 120.910156 L 216.996094 120.820312 L 217.222656 120.65625 L 217.335938 120.566406 L 217.453125 120.484375 L 217.566406 120.402344 L 217.679688 120.324219 L 217.785156 120.234375 L 218.125 119.988281 L 218.898438 119.5 L 218.996094 119.433594 L 219.085938 119.367188 L 219.183594 119.296875 L 219.28125 119.230469 L 219.371094 119.164062 L 219.46875 119.101562 L 219.566406 119.027344 L 219.664062 118.960938 L 219.753906 118.894531 L 219.851562 118.832031 L 219.949219 118.757812 L 220.046875 118.691406 L 220.144531 118.628906 L 220.234375 118.5625 L 220.429688 118.429688 L 220.527344 118.367188 L 220.625 118.292969 L 220.722656 118.226562 L 220.820312 118.164062 L 220.917969 118.097656 L 221.007812 118.03125 L 221.105469 117.964844 L 221.203125 117.902344 L 221.296875 117.835938 L 221.394531 117.769531 L 221.492188 117.707031 L 221.589844 117.640625 L 221.6875 117.582031 L 221.785156 117.519531 L 221.980469 117.386719 L 222.078125 117.324219 L 222.175781 117.265625 L 222.273438 117.199219 L 222.371094 117.136719 L 222.46875 117.078125 L 222.566406 117.011719 L 222.664062 116.957031 L 222.761719 116.890625 L 224.308594 115.992188 L 227.480469 114.160156 L 229.269531 113.183594 L 232.238281 111.671875 L 233.988281 110.777344 L 236.835938 109.472656 L 238.828125 108.699219 L 241.636719 107.558594 L 242.609375 107.191406 L 88.871094 107.191406 L 85.558594 107.261719 Z M 284.136719 107.214844 L 282.84375 107.253906 L 281.324219 107.328125 L 279.582031 107.425781 L 277.65625 107.574219 L 275.539062 107.769531 L 273.253906 108.011719 L 270.8125 108.324219 L 268.226562 108.699219 L 265.507812 109.148438 L 262.679688 109.675781 L 259.742188 110.296875 L 256.722656 111.011719 L 253.625 111.820312 L 250.46875 112.742188 L 247.265625 113.777344 L 244.027344 114.933594 L 240.765625 116.214844 L 237.503906 117.632812 L 234.242188 119.191406 L 231.003906 120.894531 L 227.796875 122.75 L 224.640625 124.773438 L 221.550781 126.957031 L 218.523438 129.3125 L 215.597656 131.855469 L 212.765625 134.578125 L 210.058594 137.496094 L 207.46875 140.621094 L 205.03125 143.945312 L 202.753906 147.484375 L 200.636719 151.242188 L 198.710938 155.226562 L 196.976562 159.441406 L 195.464844 163.902344 L 194.164062 168.605469 L 193.113281 173.5625 L 192.308594 178.777344 L 191.769531 184.265625 L 191.769531 185.070312 L 191.761719 185.242188 L 191.761719 185.421875 L 191.753906 185.59375 L 191.753906 185.765625 L 191.746094 185.933594 L 191.746094 186.113281 L 191.730469 186.457031 L 191.730469 186.628906 L 191.722656 186.800781 L 191.714844 186.96875 L 191.699219 187.3125 L 191.6875 187.484375 L 191.679688 187.65625 L 191.671875 187.824219 L 191.671875 187.996094 L 191.640625 188.683594 L 191.632812 188.84375 L 191.617188 189.1875 L 191.609375 189.351562 L 191.609375 189.523438 L 191.601562 189.691406 L 191.589844 189.855469 L 191.589844 190.027344 L 191.582031 190.191406 L 191.582031 190.359375 L 191.574219 190.523438 L 191.574219 190.695312 L 191.566406 190.859375 L 191.566406 191.394531 L 191.574219 191.414062 L 191.574219 191.566406 L 191.582031 191.582031 L 191.582031 191.699219 L 191.574219 191.714844 L 191.574219 191.871094 L 191.566406 191.886719 L 191.566406 191.925781 L 191.257812 195.308594 L 190.859375 198.59375 L 190.371094 201.796875 L 189.785156 204.902344 L 189.125 207.929688 L 188.378906 210.863281 L 187.546875 213.714844 L 186.644531 216.480469 L 185.660156 219.160156 L 184.613281 221.761719 L 183.488281 224.289062 L 182.300781 226.726562 L 181.050781 229.097656 L 179.738281 231.378906 L 178.363281 233.597656 L 176.933594 235.734375 L 175.453125 237.804688 L 173.914062 239.800781 L 172.335938 241.722656 L 170.710938 243.582031 L 169.035156 245.367188 L 167.328125 247.097656 L 165.578125 248.75 L 163.796875 250.347656 L 161.980469 251.875 L 160.136719 253.347656 L 158.265625 254.757812 L 156.359375 256.105469 L 154.449219 257.398438 L 152.503906 258.640625 L 150.554688 259.820312 L 148.585938 260.945312 L 146.609375 262.023438 L 144.625 263.050781 L 142.628906 264.019531 L 140.636719 264.949219 L 138.636719 265.820312 L 136.644531 266.652344 L 134.660156 267.441406 L 132.671875 268.183594 L 285.96875 268.183594 L 287.570312 268.175781 L 289.164062 268.136719 L 290.757812 268.070312 L 292.355469 267.964844 L 293.933594 267.824219 L 295.507812 267.664062 L 297.085938 267.46875 L 298.648438 267.238281 L 300.210938 266.976562 L 301.765625 266.691406 L 303.3125 266.367188 L 304.847656 266.015625 L 306.378906 265.632812 L 307.898438 265.226562 L 309.410156 264.785156 L 310.910156 264.3125 L 312.40625 263.816406 L 313.886719 263.285156 L 315.359375 262.722656 L 316.8125 262.136719 L 318.261719 261.523438 L 319.695312 260.871094 L 321.117188 260.203125 L 322.523438 259.503906 L 323.914062 258.769531 L 325.296875 258.011719 L 326.664062 257.230469 L 328.015625 256.414062 L 329.347656 255.574219 L 330.675781 254.710938 L 331.976562 253.8125 L 333.261719 252.890625 L 334.53125 251.945312 L 335.785156 250.976562 L 337.019531 249.972656 L 338.238281 248.945312 L 339.4375 247.894531 L 340.617188 246.820312 L 341.769531 245.710938 L 342.910156 244.585938 L 344.03125 243.445312 L 345.128906 242.285156 L 346.203125 241.113281 L 347.253906 239.914062 L 348.269531 238.699219 L 349.269531 237.46875 L 350.238281 236.214844 L 351.183594 234.941406 L 352.101562 233.664062 L 352.988281 232.359375 L 353.851562 231.039062 L 354.6875 229.699219 L 355.5 228.355469 L 356.28125 226.988281 L 357.039062 225.609375 L 357.761719 224.214844 L 358.460938 222.804688 L 359.136719 221.386719 L 359.78125 219.953125 L 360.390625 218.507812 L 360.976562 217.050781 L 361.539062 215.582031 L 362.066406 214.105469 L 362.5625 212.613281 L 363.035156 211.113281 L 363.472656 209.605469 L 363.886719 208.082031 L 364.269531 206.558594 L 364.621094 205.019531 L 364.945312 203.476562 L 365.230469 201.921875 L 365.492188 200.363281 L 365.726562 198.796875 L 365.921875 197.226562 L 366.09375 195.652344 L 366.230469 194.0625 L 366.335938 192.480469 L 366.410156 190.882812 L 366.449219 189.285156 L 366.457031 187.6875 L 366.386719 184.378906 L 366.183594 181.109375 L 365.847656 177.871094 L 365.394531 174.667969 L 364.808594 171.515625 L 364.109375 168.410156 L 363.285156 165.34375 L 362.34375 162.328125 L 361.292969 159.359375 L 360.128906 156.449219 L 358.859375 153.597656 L 357.488281 150.808594 L 356.007812 148.078125 L 354.429688 145.414062 L 352.753906 142.8125 L 350.980469 140.277344 L 349.117188 137.824219 L 347.15625 135.445312 L 345.113281 133.136719 L 342.984375 130.910156 L 340.769531 128.777344 L 338.484375 126.714844 L 336.109375 124.75 L 333.667969 122.875 L 331.148438 121.089844 L 328.558594 119.394531 L 325.910156 117.804688 L 323.183594 116.3125 L 320.402344 114.925781 L 317.5625 113.636719 L 314.667969 112.464844 L 311.714844 111.40625 L 308.703125 110.449219 L 305.644531 109.621094 L 302.546875 108.902344 L 299.398438 108.308594 L 296.210938 107.835938 L 292.980469 107.492188 L 289.71875 107.273438 L 286.414062 107.191406 L 286.007812 107.191406 L 285.203125 107.199219 Z M 86.371094 152.652344 L 86.511719 152.667969 L 86.640625 152.683594 L 86.777344 152.707031 L 86.910156 152.742188 L 87.039062 152.773438 L 87.167969 152.808594 L 87.300781 152.847656 L 87.421875 152.894531 L 87.542969 152.945312 L 87.664062 153.003906 L 87.789062 153.058594 L 87.910156 153.117188 L 88.023438 153.183594 L 88.136719 153.253906 L 88.25 153.328125 L 88.355469 153.402344 L 88.566406 153.566406 L 88.664062 153.644531 L 88.761719 153.734375 L 88.957031 153.929688 L 89.039062 154.03125 L 89.128906 154.128906 L 89.292969 154.339844 L 89.367188 154.453125 L 89.4375 154.566406 L 89.511719 154.679688 L 89.578125 154.804688 L 89.640625 154.925781 L 89.699219 155.046875 L 89.746094 155.179688 L 89.796875 155.300781 L 89.886719 155.570312 L 102.292969 198.164062 L 114.859375 155.570312 L 114.90625 155.40625 L 114.964844 155.253906 L 115.03125 155.105469 L 115.101562 154.957031 L 115.175781 154.8125 L 115.25 154.671875 L 115.339844 154.535156 L 115.429688 154.40625 L 115.519531 154.273438 L 115.617188 154.152344 L 115.722656 154.03125 L 115.828125 153.914062 L 115.941406 153.800781 L 116.054688 153.695312 L 116.296875 153.5 L 116.421875 153.410156 L 116.550781 153.320312 L 116.679688 153.238281 L 116.820312 153.164062 L 116.957031 153.09375 L 117.097656 153.027344 L 117.242188 152.960938 L 117.390625 152.914062 L 117.535156 152.855469 L 117.683594 152.816406 L 117.835938 152.773438 L 117.992188 152.742188 L 118.144531 152.71875 L 118.300781 152.699219 L 118.453125 152.683594 L 118.78125 152.667969 L 118.933594 152.675781 L 119.097656 152.683594 L 119.257812 152.699219 L 119.421875 152.726562 L 119.578125 152.757812 L 119.738281 152.796875 L 119.902344 152.839844 L 120.066406 152.886719 L 120.21875 152.945312 L 120.375 153.011719 L 120.519531 153.074219 L 120.667969 153.148438 L 120.804688 153.230469 L 120.945312 153.3125 L 121.082031 153.402344 L 121.203125 153.492188 L 121.335938 153.589844 L 121.457031 153.695312 L 121.570312 153.800781 L 121.683594 153.914062 L 121.789062 154.03125 L 121.886719 154.144531 L 121.984375 154.265625 L 122.082031 154.394531 L 122.171875 154.527344 L 122.253906 154.65625 L 122.328125 154.796875 L 122.398438 154.933594 L 122.472656 155.074219 L 122.53125 155.21875 L 122.585938 155.367188 L 122.636719 155.511719 L 122.683594 155.660156 L 122.726562 155.816406 L 122.757812 155.96875 L 122.804688 156.28125 L 122.824219 156.441406 L 122.832031 156.597656 L 122.832031 156.921875 L 122.816406 157.078125 L 122.796875 157.242188 L 122.78125 157.402344 L 122.75 157.566406 L 122.707031 157.730469 L 122.667969 157.894531 L 106.195312 213.691406 L 106.164062 213.789062 L 106.128906 213.886719 L 106.097656 213.984375 L 106.058594 214.082031 L 106.015625 214.179688 L 105.976562 214.269531 L 105.933594 214.367188 L 105.886719 214.457031 L 105.835938 214.546875 L 105.789062 214.636719 L 105.730469 214.71875 L 105.675781 214.808594 L 105.617188 214.890625 L 105.5625 214.972656 L 105.503906 215.050781 L 105.4375 215.132812 L 105.375 215.207031 L 105.308594 215.289062 L 105.234375 215.363281 L 105.171875 215.4375 L 105.097656 215.5 L 105.023438 215.574219 L 104.941406 215.640625 L 104.871094 215.703125 L 104.789062 215.769531 L 104.707031 215.828125 L 104.625 215.882812 L 104.542969 215.941406 L 104.453125 215.996094 L 104.375 216.054688 L 104.285156 216.105469 L 104.195312 216.152344 L 104.105469 216.203125 L 104.007812 216.242188 L 103.917969 216.285156 L 103.722656 216.363281 L 103.625 216.398438 L 103.429688 216.460938 L 103.265625 216.503906 L 103.105469 216.542969 L 102.941406 216.578125 L 102.777344 216.59375 L 102.617188 216.609375 L 102.460938 216.625 L 102.136719 216.625 L 101.980469 216.617188 L 101.820312 216.601562 L 101.664062 216.578125 L 101.511719 216.550781 L 101.355469 216.519531 L 101.203125 216.480469 L 101.054688 216.429688 L 100.910156 216.382812 L 100.761719 216.324219 L 100.617188 216.265625 L 100.476562 216.195312 L 100.339844 216.121094 L 100.199219 216.046875 L 100.070312 215.964844 L 99.941406 215.875 L 99.808594 215.777344 L 99.6875 215.679688 L 99.574219 215.582031 L 99.460938 215.476562 L 99.347656 215.363281 L 99.242188 215.25 L 99.136719 215.125 L 99.039062 214.996094 L 98.949219 214.875 L 98.859375 214.734375 L 98.777344 214.597656 L 98.695312 214.457031 L 98.621094 214.3125 L 98.558594 214.164062 L 98.492188 214.007812 L 98.433594 213.855469 L 98.386719 213.691406 L 85.820312 171.097656 L 73.25 213.691406 L 73.21875 213.789062 L 73.1875 213.878906 L 73.152344 213.976562 L 73.113281 214.066406 L 73.070312 214.15625 L 72.992188 214.335938 L 72.941406 214.425781 L 72.894531 214.507812 L 72.84375 214.597656 L 72.796875 214.675781 L 72.738281 214.757812 L 72.683594 214.839844 L 72.625 214.921875 L 72.566406 214.996094 L 72.503906 215.078125 L 72.445312 215.148438 L 72.378906 215.222656 L 72.308594 215.296875 L 72.105469 215.5 L 71.957031 215.632812 L 71.875 215.6875 L 71.804688 215.746094 L 71.722656 215.800781 L 71.558594 215.917969 L 71.476562 215.964844 L 71.386719 216.015625 L 71.308594 216.0625 L 71.21875 216.113281 L 71.128906 216.152344 L 71.039062 216.195312 L 70.859375 216.273438 L 70.761719 216.308594 L 70.671875 216.339844 L 70.574219 216.371094 L 70.414062 216.421875 L 70.25 216.460938 L 70.085938 216.496094 L 69.925781 216.519531 L 69.769531 216.535156 L 69.605469 216.550781 L 69.445312 216.558594 L 69.28125 216.558594 L 69.125 216.550781 L 68.964844 216.535156 L 68.808594 216.519531 L 68.65625 216.496094 L 68.5 216.460938 L 68.347656 216.429688 L 68.199219 216.390625 L 68.046875 216.339844 L 67.898438 216.285156 L 67.753906 216.226562 L 67.613281 216.160156 L 67.476562 216.085938 L 67.335938 216.015625 L 67.199219 215.933594 L 67.070312 215.851562 L 66.945312 215.753906 L 66.816406 215.664062 L 66.703125 215.558594 L 66.582031 215.453125 L 66.46875 215.347656 L 66.359375 215.230469 L 66.253906 215.109375 L 66.15625 214.988281 L 66.058594 214.855469 L 65.972656 214.726562 L 65.890625 214.585938 L 65.726562 214.3125 L 65.660156 214.15625 L 65.597656 214.007812 L 65.539062 213.855469 L 65.484375 213.691406 L 48.929688 157.894531 L 48.886719 157.730469 L 48.847656 157.566406 L 48.816406 157.402344 L 48.789062 157.242188 L 48.773438 157.078125 L 48.765625 156.921875 L 48.757812 156.761719 L 48.757812 156.597656 L 48.765625 156.433594 L 48.78125 156.28125 L 48.808594 156.125 L 48.832031 155.96875 L 48.863281 155.816406 L 48.90625 155.660156 L 48.945312 155.503906 L 48.992188 155.359375 L 49.050781 155.210938 L 49.117188 155.066406 L 49.179688 154.925781 L 49.253906 154.789062 L 49.328125 154.648438 L 49.410156 154.519531 L 49.5 154.386719 L 49.597656 154.257812 L 49.683594 154.136719 L 49.792969 154.011719 L 49.898438 153.898438 L 50.011719 153.792969 L 50.125 153.679688 L 50.367188 153.484375 L 50.5 153.386719 L 50.628906 153.296875 L 50.765625 153.214844 L 50.914062 153.132812 L 51.058594 153.058594 L 51.207031 152.984375 L 51.359375 152.929688 L 51.515625 152.871094 L 51.671875 152.824219 L 51.832031 152.773438 L 51.996094 152.734375 L 52.160156 152.707031 L 52.320312 152.683594 L 52.484375 152.667969 L 52.644531 152.652344 L 52.964844 152.652344 L 53.125 152.660156 L 53.289062 152.675781 L 53.445312 152.691406 L 53.597656 152.726562 L 53.753906 152.757812 L 53.90625 152.789062 L 54.054688 152.839844 L 54.199219 152.886719 L 54.347656 152.945312 L 54.492188 153.003906 L 54.640625 153.066406 L 54.777344 153.140625 L 54.90625 153.222656 L 55.046875 153.304688 L 55.175781 153.394531 L 55.296875 153.484375 L 55.421875 153.582031 L 55.542969 153.6875 L 55.769531 153.898438 L 55.875 154.019531 L 55.980469 154.136719 L 56.078125 154.265625 L 56.167969 154.394531 L 56.257812 154.527344 L 56.347656 154.664062 L 56.429688 154.804688 L 56.503906 154.949219 L 56.566406 155.097656 L 56.632812 155.253906 L 56.6875 155.40625 L 56.738281 155.570312 L 69.144531 198.164062 L 70.25 194.414062 L 73.277344 184.191406 L 81.75 155.570312 L 81.839844 155.300781 L 81.890625 155.179688 L 81.9375 155.046875 L 81.996094 154.925781 L 82.0625 154.804688 L 82.125 154.679688 L 82.273438 154.453125 L 82.34375 154.339844 L 82.507812 154.128906 L 82.597656 154.03125 L 82.679688 153.929688 L 82.875 153.734375 L 82.972656 153.644531 L 83.070312 153.566406 L 83.28125 153.402344 L 83.386719 153.328125 L 83.5 153.253906 L 83.613281 153.183594 L 83.726562 153.117188 L 83.851562 153.058594 L 83.972656 153.003906 L 84.09375 152.945312 L 84.214844 152.894531 L 84.339844 152.847656 L 84.46875 152.808594 L 84.597656 152.773438 L 84.730469 152.742188 L 84.859375 152.707031 L 84.996094 152.683594 L 85.128906 152.667969 L 85.265625 152.652344 L 85.402344 152.644531 L 85.542969 152.636719 L 86.09375 152.636719 L 86.234375 152.644531 Z M 304.792969 152.675781 L 304.988281 152.71875 L 305.171875 152.757812 L 305.359375 152.808594 L 305.546875 152.871094 L 305.726562 152.9375 L 305.90625 153.011719 L 306.078125 153.101562 L 306.238281 153.191406 L 306.566406 153.402344 L 306.710938 153.515625 L 306.855469 153.636719 L 306.996094 153.761719 L 307.132812 153.898438 L 307.257812 154.039062 L 307.378906 154.183594 L 307.492188 154.332031 L 307.597656 154.492188 L 307.703125 154.65625 L 307.792969 154.820312 L 307.882812 154.992188 L 307.957031 155.171875 L 308.019531 155.351562 L 308.085938 155.539062 L 308.132812 155.726562 L 308.175781 155.914062 L 308.214844 156.109375 L 308.238281 156.304688 L 308.25 156.507812 L 308.257812 156.710938 L 308.257812 212.507812 L 308.25 212.714844 L 308.238281 212.917969 L 308.214844 213.113281 L 308.175781 213.308594 L 308.132812 213.496094 L 308.085938 213.683594 L 308.019531 213.871094 L 307.957031 214.050781 L 307.882812 214.230469 L 307.792969 214.398438 L 307.703125 214.5625 L 307.492188 214.890625 L 307.378906 215.035156 L 307.257812 215.183594 L 307.132812 215.320312 L 306.996094 215.460938 L 306.855469 215.582031 L 306.710938 215.703125 L 306.566406 215.820312 L 306.238281 216.03125 L 306.078125 216.121094 L 305.90625 216.210938 L 305.726562 216.285156 L 305.546875 216.347656 L 305.359375 216.414062 L 305.171875 216.460938 L 304.988281 216.503906 L 304.792969 216.542969 L 304.597656 216.570312 L 304.394531 216.578125 L 304.1875 216.585938 L 303.78125 216.570312 L 303.585938 216.542969 L 303.390625 216.503906 L 303.203125 216.460938 L 303.019531 216.414062 L 302.832031 216.347656 L 302.652344 216.285156 L 302.472656 216.210938 L 302.300781 216.121094 L 302.140625 216.03125 L 301.8125 215.820312 L 301.667969 215.703125 L 301.519531 215.582031 L 301.382812 215.460938 L 301.246094 215.320312 L 301.121094 215.183594 L 301 215.035156 L 300.886719 214.890625 L 300.675781 214.5625 L 300.585938 214.398438 L 300.496094 214.230469 L 300.421875 214.050781 L 300.359375 213.871094 L 300.292969 213.683594 L 300.242188 213.496094 L 300.203125 213.308594 L 300.164062 213.113281 L 300.136719 212.917969 L 300.128906 212.714844 L 300.121094 212.507812 L 300.121094 156.710938 L 300.136719 156.304688 L 300.164062 156.109375 L 300.203125 155.914062 L 300.242188 155.726562 L 300.292969 155.539062 L 300.359375 155.351562 L 300.421875 155.171875 L 300.496094 154.992188 L 300.585938 154.820312 L 300.675781 154.65625 L 300.78125 154.492188 L 300.886719 154.332031 L 301 154.183594 L 301.121094 154.039062 L 301.246094 153.898438 L 301.382812 153.761719 L 301.519531 153.636719 L 301.667969 153.515625 L 301.8125 153.402344 L 302.140625 153.191406 L 302.300781 153.101562 L 302.472656 153.011719 L 302.652344 152.9375 L 302.832031 152.871094 L 303.019531 152.808594 L 303.203125 152.757812 L 303.390625 152.71875 L 303.585938 152.675781 L 303.78125 152.652344 L 304.1875 152.636719 L 304.394531 152.644531 L 304.597656 152.652344 Z M 147.429688 152.675781 L 147.625 152.71875 L 147.8125 152.757812 L 148 152.808594 L 148.1875 152.871094 L 148.363281 152.9375 L 148.542969 153.011719 L 148.714844 153.101562 L 148.878906 153.191406 L 149.039062 153.296875 L 149.203125 153.402344 L 149.347656 153.515625 L 149.496094 153.636719 L 149.632812 153.761719 L 149.773438 153.898438 L 149.894531 154.039062 L 150.015625 154.183594 L 150.128906 154.332031 L 150.234375 154.492188 L 150.339844 154.65625 L 150.429688 154.820312 L 150.519531 154.992188 L 150.59375 155.171875 L 150.660156 155.351562 L 150.722656 155.539062 L 150.773438 155.726562 L 150.8125 155.914062 L 150.855469 156.109375 L 150.878906 156.304688 L 150.894531 156.710938 L 150.894531 212.507812 L 150.886719 212.714844 L 150.878906 212.917969 L 150.855469 213.113281 L 150.8125 213.308594 L 150.773438 213.496094 L 150.722656 213.683594 L 150.660156 213.871094 L 150.59375 214.050781 L 150.519531 214.230469 L 150.429688 214.398438 L 150.339844 214.5625 L 150.128906 214.890625 L 150.015625 215.035156 L 149.894531 215.183594 L 149.773438 215.320312 L 149.632812 215.460938 L 149.496094 215.582031 L 149.347656 215.703125 L 149.203125 215.820312 L 149.039062 215.925781 L 148.878906 216.03125 L 148.714844 216.121094 L 148.542969 216.210938 L 148.363281 216.285156 L 148.1875 216.347656 L 148 216.414062 L 147.8125 216.460938 L 147.625 216.503906 L 147.429688 216.542969 L 147.234375 216.570312 L 146.828125 216.585938 L 146.421875 216.570312 L 146.226562 216.542969 L 146.03125 216.503906 L 145.84375 216.460938 L 145.65625 216.414062 L 145.46875 216.347656 L 145.289062 216.285156 L 145.109375 216.210938 L 144.941406 216.121094 L 144.777344 216.03125 L 144.613281 215.925781 L 144.453125 215.820312 L 144.304688 215.703125 L 144.160156 215.582031 L 144.019531 215.460938 L 143.882812 215.320312 L 143.761719 215.183594 L 143.640625 215.035156 L 143.523438 214.890625 L 143.3125 214.5625 L 143.222656 214.398438 L 143.132812 214.230469 L 143.0625 214.050781 L 142.996094 213.871094 L 142.929688 213.683594 L 142.882812 213.496094 L 142.839844 213.308594 L 142.800781 213.113281 L 142.777344 212.917969 L 142.769531 212.714844 L 142.761719 212.507812 L 142.761719 156.710938 L 142.777344 156.304688 L 142.800781 156.109375 L 142.839844 155.914062 L 142.882812 155.726562 L 142.929688 155.539062 L 142.996094 155.351562 L 143.0625 155.171875 L 143.132812 154.992188 L 143.222656 154.820312 L 143.3125 154.65625 L 143.417969 154.492188 L 143.523438 154.332031 L 143.640625 154.183594 L 143.761719 154.039062 L 143.882812 153.898438 L 144.019531 153.761719 L 144.160156 153.636719 L 144.304688 153.515625 L 144.453125 153.402344 L 144.613281 153.296875 L 144.777344 153.191406 L 144.941406 153.101562 L 145.109375 153.011719 L 145.289062 152.9375 L 145.46875 152.871094 L 145.65625 152.808594 L 145.84375 152.757812 L 146.03125 152.71875 L 146.226562 152.675781 L 146.421875 152.652344 L 146.828125 152.636719 L 147.234375 152.652344 Z M 281.828125 152.667969 L 281.988281 152.691406 L 282.152344 152.71875 L 282.308594 152.757812 L 282.460938 152.796875 L 282.617188 152.839844 L 282.769531 152.894531 L 282.917969 152.953125 L 283.054688 153.019531 L 283.203125 153.09375 L 283.339844 153.164062 L 283.472656 153.246094 L 283.609375 153.328125 L 283.730469 153.417969 L 283.859375 153.515625 L 283.976562 153.613281 L 284.097656 153.71875 L 284.210938 153.824219 L 284.316406 153.941406 L 284.421875 154.0625 L 284.519531 154.175781 L 284.617188 154.304688 L 284.707031 154.429688 L 284.789062 154.566406 L 284.871094 154.699219 L 284.941406 154.835938 L 285.015625 154.984375 L 285.082031 155.121094 L 285.136719 155.269531 L 285.195312 155.421875 L 285.234375 155.578125 L 285.277344 155.734375 L 285.316406 155.886719 L 285.339844 156.050781 L 285.367188 156.214844 L 285.382812 156.378906 L 285.398438 156.539062 L 285.398438 156.882812 L 285.382812 157.046875 L 285.367188 157.207031 L 285.339844 157.371094 L 285.316406 157.535156 L 285.277344 157.691406 L 285.234375 157.84375 L 285.195312 158 L 285.136719 158.152344 L 285.082031 158.300781 L 285.015625 158.441406 L 284.941406 158.585938 L 284.871094 158.726562 L 284.789062 158.855469 L 284.707031 158.992188 L 284.617188 159.117188 L 284.519531 159.246094 L 284.421875 159.359375 L 284.316406 159.484375 L 284.210938 159.597656 L 284.097656 159.703125 L 283.976562 159.808594 L 283.859375 159.90625 L 283.730469 160.003906 L 283.609375 160.09375 L 283.472656 160.175781 L 283.339844 160.257812 L 283.203125 160.332031 L 283.054688 160.402344 L 282.917969 160.46875 L 282.769531 160.527344 L 282.617188 160.582031 L 282.460938 160.625 L 282.308594 160.664062 L 282.152344 160.707031 L 281.988281 160.730469 L 281.828125 160.753906 L 281.664062 160.769531 L 281.503906 160.789062 L 252.574219 160.789062 L 252.574219 180.554688 L 271.539062 180.554688 L 271.699219 180.570312 L 271.863281 180.585938 L 272.027344 180.613281 L 272.1875 180.636719 L 272.34375 180.675781 L 272.496094 180.71875 L 272.652344 180.757812 L 272.804688 180.816406 L 272.953125 180.871094 L 273.089844 180.9375 L 273.238281 181.011719 L 273.375 181.085938 L 273.507812 181.167969 L 273.644531 181.246094 L 273.765625 181.335938 L 273.894531 181.433594 L 274.011719 181.53125 L 274.132812 181.640625 L 274.246094 181.746094 L 274.351562 181.859375 L 274.457031 181.980469 L 274.554688 182.09375 L 274.652344 182.226562 L 274.742188 182.347656 L 274.824219 182.488281 L 274.90625 182.617188 L 274.976562 182.753906 L 275.050781 182.902344 L 275.117188 183.042969 L 275.171875 183.1875 L 275.230469 183.34375 L 275.269531 183.496094 L 275.3125 183.652344 L 275.351562 183.808594 L 275.375 183.96875 L 275.402344 184.132812 L 275.433594 184.460938 L 275.433594 184.800781 L 275.402344 185.128906 L 275.375 185.289062 L 275.351562 185.453125 L 275.3125 185.609375 L 275.269531 185.765625 L 275.230469 185.917969 L 275.171875 186.074219 L 275.117188 186.21875 L 275.050781 186.359375 L 274.976562 186.503906 L 274.90625 186.644531 L 274.824219 186.773438 L 274.742188 186.914062 L 274.652344 187.035156 L 274.554688 187.164062 L 274.457031 187.28125 L 274.351562 187.402344 L 274.246094 187.515625 L 274.132812 187.621094 L 274.011719 187.726562 L 273.894531 187.824219 L 273.765625 187.925781 L 273.644531 188.011719 L 273.507812 188.09375 L 273.375 188.175781 L 273.238281 188.25 L 273.089844 188.324219 L 272.953125 188.386719 L 272.804688 188.445312 L 272.652344 188.503906 L 272.496094 188.542969 L 272.34375 188.585938 L 272.1875 188.625 L 272.027344 188.648438 L 271.863281 188.675781 L 271.699219 188.691406 L 271.539062 188.707031 L 252.574219 188.707031 L 252.574219 212.679688 L 252.542969 213.007812 L 252.519531 213.167969 L 252.496094 213.332031 L 252.453125 213.488281 L 252.414062 213.640625 L 252.371094 213.796875 L 252.316406 213.953125 L 252.257812 214.097656 L 252.195312 214.238281 L 252.121094 214.382812 L 252.046875 214.523438 L 251.964844 214.652344 L 251.882812 214.792969 L 251.796875 214.914062 L 251.699219 215.042969 L 251.601562 215.160156 L 251.492188 215.28125 L 251.386719 215.394531 L 251.273438 215.5 L 251.152344 215.605469 L 251.039062 215.703125 L 250.910156 215.800781 L 250.785156 215.890625 L 250.648438 215.972656 L 250.519531 216.054688 L 250.378906 216.128906 L 250.234375 216.203125 L 250.09375 216.265625 L 249.949219 216.324219 L 249.792969 216.382812 L 249.640625 216.421875 L 249.484375 216.460938 L 249.332031 216.503906 L 249.003906 216.550781 L 248.84375 216.570312 L 248.679688 216.585938 L 248.335938 216.585938 L 248.175781 216.570312 L 248.011719 216.550781 L 247.851562 216.527344 L 247.6875 216.503906 L 247.53125 216.460938 L 247.378906 216.421875 L 247.222656 216.382812 L 247.070312 216.324219 L 246.921875 216.265625 L 246.785156 216.203125 L 246.636719 216.128906 L 246.5 216.054688 L 246.371094 215.972656 L 246.230469 215.890625 L 246.109375 215.800781 L 245.980469 215.703125 L 245.863281 215.605469 L 245.742188 215.5 L 245.628906 215.394531 L 245.523438 215.28125 L 245.417969 215.160156 L 245.320312 215.042969 L 245.222656 214.914062 L 245.132812 214.792969 L 245.050781 214.652344 L 244.96875 214.523438 L 244.898438 214.382812 L 244.824219 214.238281 L 244.757812 214.097656 L 244.703125 213.953125 L 244.644531 213.796875 L 244.605469 213.640625 L 244.5625 213.488281 L 244.523438 213.332031 L 244.5 213.167969 L 244.472656 213.007812 L 244.441406 212.679688 L 244.441406 156.539062 L 244.457031 156.378906 L 244.472656 156.214844 L 244.5 156.050781 L 244.523438 155.886719 L 244.5625 155.734375 L 244.605469 155.578125 L 244.644531 155.421875 L 244.703125 155.269531 L 244.757812 155.121094 L 244.824219 154.984375 L 244.898438 154.835938 L 244.96875 154.699219 L 245.050781 154.566406 L 245.132812 154.429688 L 245.222656 154.304688 L 245.320312 154.175781 L 245.417969 154.0625 L 245.523438 153.941406 L 245.628906 153.824219 L 245.742188 153.71875 L 245.863281 153.613281 L 245.980469 153.515625 L 246.109375 153.417969 L 246.230469 153.328125 L 246.371094 153.246094 L 246.5 153.164062 L 246.636719 153.09375 L 246.785156 153.019531 L 246.921875 152.953125 L 247.070312 152.894531 L 247.222656 152.839844 L 247.378906 152.796875 L 247.53125 152.757812 L 247.6875 152.71875 L 247.851562 152.691406 L 248.011719 152.667969 L 248.175781 152.652344 L 248.335938 152.636719 L 281.503906 152.636719 L 281.664062 152.652344 Z M 281.828125 152.667969 " clip-rule="nonzero"/></clipPath><linearGradient x1="250" gradientTransform="matrix(0.813449, 0, 0, 0.815161, -15.862251, -19.15976)" y1="145.00002" x2="250" gradientUnits="userSpaceOnUse" y2="362.500022" id="1ce0fb8d33"><stop stop-opacity="1" stop-color="rgb(17.298889%, 92.498779%, 100%)" offset="0"/><stop stop-opacity="1" stop-color="rgb(17.611694%, 92.3172%, 100%)" offset="0.00390625"/><stop stop-opacity="1" stop-color="rgb(17.926025%, 92.13562%, 100%)" offset="0.0078125"/><stop stop-opacity="1" stop-color="rgb(18.240356%, 91.952515%, 100%)" offset="0.0117188"/><stop stop-opacity="1" stop-color="rgb(18.554688%, 91.770935%, 100%)" offset="0.015625"/><stop stop-opacity="1" stop-color="rgb(18.867493%, 91.589355%, 100%)" offset="0.0195312"/><stop stop-opacity="1" stop-color="rgb(19.181824%, 91.407776%, 100%)" offset="0.0234375"/><stop stop-opacity="1" stop-color="rgb(19.494629%, 91.22467%, 100%)" offset="0.0273438"/><stop stop-opacity="1" stop-color="rgb(19.80896%, 91.043091%, 100%)" offset="0.03125"/><stop stop-opacity="1" stop-color="rgb(20.121765%, 90.859985%, 100%)" offset="0.0351562"/><stop stop-opacity="1" stop-color="rgb(20.436096%, 90.678406%, 100%)" offset="0.0390625"/><stop stop-opacity="1" stop-color="rgb(20.748901%, 90.496826%, 100%)" offset="0.0429687"/><stop stop-opacity="1" stop-color="rgb(21.063232%, 90.315247%, 100%)" offset="0.046875"/><stop stop-opacity="1" stop-color="rgb(21.376038%, 90.132141%, 100%)" offset="0.0507812"/><stop stop-opacity="1" stop-color="rgb(21.690369%, 89.950562%, 100%)" offset="0.0546875"/><stop stop-opacity="1" stop-color="rgb(22.003174%, 89.768982%, 100%)" offset="0.0585937"/><stop stop-opacity="1" stop-color="rgb(22.317505%, 89.587402%, 100%)" offset="0.0625"/><stop stop-opacity="1" stop-color="rgb(22.63031%, 89.404297%, 100%)" offset="0.0664062"/><stop stop-opacity="1" stop-color="rgb(22.944641%, 89.222717%, 100%)" offset="0.0703125"/><stop stop-opacity="1" stop-color="rgb(23.258972%, 89.039612%, 100%)" offset="0.0742187"/><stop stop-opacity="1" stop-color="rgb(23.573303%, 88.858032%, 100%)" offset="0.078125"/><stop stop-opacity="1" stop-color="rgb(23.886108%, 88.676453%, 100%)" offset="0.0820312"/><stop stop-opacity="1" stop-color="rgb(24.200439%, 88.494873%, 100%)" offset="0.0859375"/><stop stop-opacity="1" stop-color="rgb(24.513245%, 88.311768%, 100%)" offset="0.0898437"/><stop stop-opacity="1" stop-color="rgb(24.827576%, 88.130188%, 100%)" offset="0.09375"/><stop stop-opacity="1" stop-color="rgb(25.140381%, 87.948608%, 100%)" offset="0.0976562"/><stop stop-opacity="1" stop-color="rgb(25.454712%, 87.767029%, 100%)" offset="0.101562"/><stop stop-opacity="1" stop-color="rgb(25.767517%, 87.583923%, 100%)" offset="0.105469"/><stop stop-opacity="1" stop-color="rgb(26.081848%, 87.402344%, 100%)" offset="0.109375"/><stop stop-opacity="1" stop-color="rgb(26.394653%, 87.219238%, 100%)" offset="0.113281"/><stop stop-opacity="1" stop-color="rgb(26.708984%, 87.037659%, 100%)" offset="0.117187"/><stop stop-opacity="1" stop-color="rgb(27.02179%, 86.856079%, 100%)" offset="0.121094"/><stop stop-opacity="1" stop-color="rgb(27.336121%, 86.6745%, 100%)" offset="0.125"/><stop stop-opacity="1" stop-color="rgb(27.650452%, 86.491394%, 100%)" offset="0.128906"/><stop stop-opacity="1" stop-color="rgb(27.964783%, 86.309814%, 100%)" offset="0.132812"/><stop stop-opacity="1" stop-color="rgb(28.277588%, 86.128235%, 100%)" offset="0.136719"/><stop stop-opacity="1" stop-color="rgb(28.591919%, 85.946655%, 100%)" offset="0.140625"/><stop stop-opacity="1" stop-color="rgb(28.904724%, 85.76355%, 100%)" offset="0.144531"/><stop stop-opacity="1" stop-color="rgb(29.219055%, 85.58197%, 100%)" offset="0.148438"/><stop stop-opacity="1" stop-color="rgb(29.53186%, 85.398865%, 100%)" offset="0.152344"/><stop stop-opacity="1" stop-color="rgb(29.846191%, 85.217285%, 100%)" offset="0.15625"/><stop stop-opacity="1" stop-color="rgb(30.158997%, 85.035706%, 100%)" offset="0.160156"/><stop stop-opacity="1" stop-color="rgb(30.473328%, 84.854126%, 100%)" offset="0.164062"/><stop stop-opacity="1" stop-color="rgb(30.786133%, 84.671021%, 100%)" offset="0.167969"/><stop stop-opacity="1" stop-color="rgb(31.100464%, 84.489441%, 100%)" offset="0.171875"/><stop stop-opacity="1" stop-color="rgb(31.413269%, 84.307861%, 100%)" offset="0.175781"/><stop stop-opacity="1" stop-color="rgb(31.7276%, 84.126282%, 100%)" offset="0.179688"/><stop stop-opacity="1" stop-color="rgb(32.040405%, 83.943176%, 100%)" offset="0.183594"/><stop stop-opacity="1" stop-color="rgb(32.354736%, 83.761597%, 100%)" offset="0.1875"/><stop stop-opacity="1" stop-color="rgb(32.669067%, 83.578491%, 100%)" offset="0.191406"/><stop stop-opacity="1" stop-color="rgb(32.983398%, 83.396912%, 100%)" offset="0.195312"/><stop stop-opacity="1" stop-color="rgb(33.296204%, 83.215332%, 100%)" offset="0.199219"/><stop stop-opacity="1" stop-color="rgb(33.610535%, 83.033752%, 100%)" offset="0.203125"/><stop stop-opacity="1" stop-color="rgb(33.92334%, 82.850647%, 100%)" offset="0.207031"/><stop stop-opacity="1" stop-color="rgb(34.237671%, 82.669067%, 100%)" offset="0.210938"/><stop stop-opacity="1" stop-color="rgb(34.550476%, 82.487488%, 100%)" offset="0.214844"/><stop stop-opacity="1" stop-color="rgb(34.864807%, 82.305908%, 100%)" offset="0.21875"/><stop stop-opacity="1" stop-color="rgb(35.177612%, 82.122803%, 100%)" offset="0.222656"/><stop stop-opacity="1" stop-color="rgb(35.491943%, 81.941223%, 100%)" offset="0.226562"/><stop stop-opacity="1" stop-color="rgb(35.804749%, 81.759644%, 100%)" offset="0.230469"/><stop stop-opacity="1" stop-color="rgb(36.11908%, 81.578064%, 100%)" offset="0.234375"/><stop stop-opacity="1" stop-color="rgb(36.431885%, 81.394958%, 100%)" offset="0.238281"/><stop stop-opacity="1" stop-color="rgb(36.746216%, 81.213379%, 100%)" offset="0.242188"/><stop stop-opacity="1" stop-color="rgb(37.060547%, 81.030273%, 100%)" offset="0.246094"/><stop stop-opacity="1" stop-color="rgb(37.374878%, 80.848694%, 100%)" offset="0.25"/><stop stop-opacity="1" stop-color="rgb(37.687683%, 80.667114%, 100%)" offset="0.253906"/><stop stop-opacity="1" stop-color="rgb(38.002014%, 80.485535%, 100%)" offset="0.257812"/><stop stop-opacity="1" stop-color="rgb(38.314819%, 80.302429%, 100%)" offset="0.261719"/><stop stop-opacity="1" stop-color="rgb(38.62915%, 80.12085%, 100%)" offset="0.265625"/><stop stop-opacity="1" stop-color="rgb(38.941956%, 79.93927%, 100%)" offset="0.269531"/><stop stop-opacity="1" stop-color="rgb(39.256287%, 79.75769%, 100%)" offset="0.273438"/><stop stop-opacity="1" stop-color="rgb(39.569092%, 79.574585%, 100%)" offset="0.277344"/><stop stop-opacity="1" stop-color="rgb(39.883423%, 79.393005%, 100%)" offset="0.28125"/><stop stop-opacity="1" stop-color="rgb(40.196228%, 79.2099%, 100%)" offset="0.285156"/><stop stop-opacity="1" stop-color="rgb(40.510559%, 79.02832%, 100%)" offset="0.289062"/><stop stop-opacity="1" stop-color="rgb(40.823364%, 78.846741%, 100%)" offset="0.292969"/><stop stop-opacity="1" stop-color="rgb(41.137695%, 78.665161%, 100%)" offset="0.296875"/><stop stop-opacity="1" stop-color="rgb(41.452026%, 78.482056%, 100%)" offset="0.300781"/><stop stop-opacity="1" stop-color="rgb(41.766357%, 78.300476%, 100%)" offset="0.304688"/><stop stop-opacity="1" stop-color="rgb(42.079163%, 78.118896%, 100%)" offset="0.308594"/><stop stop-opacity="1" stop-color="rgb(42.393494%, 77.937317%, 100%)" offset="0.3125"/><stop stop-opacity="1" stop-color="rgb(42.706299%, 77.754211%, 100%)" offset="0.316406"/><stop stop-opacity="1" stop-color="rgb(43.02063%, 77.572632%, 100%)" offset="0.320312"/><stop stop-opacity="1" stop-color="rgb(43.333435%, 77.389526%, 100%)" offset="0.324219"/><stop stop-opacity="1" stop-color="rgb(43.647766%, 77.207947%, 100%)" offset="0.328125"/><stop stop-opacity="1" stop-color="rgb(43.960571%, 77.026367%, 100%)" offset="0.332031"/><stop stop-opacity="1" stop-color="rgb(44.274902%, 76.844788%, 100%)" offset="0.335938"/><stop stop-opacity="1" stop-color="rgb(44.587708%, 76.661682%, 100%)" offset="0.339844"/><stop stop-opacity="1" stop-color="rgb(44.902039%, 76.480103%, 100%)" offset="0.34375"/><stop stop-opacity="1" stop-color="rgb(45.214844%, 76.298523%, 100%)" offset="0.347656"/><stop stop-opacity="1" stop-color="rgb(45.529175%, 76.116943%, 100%)" offset="0.351562"/><stop stop-opacity="1" stop-color="rgb(45.84198%, 75.933838%, 100%)" offset="0.355469"/><stop stop-opacity="1" stop-color="rgb(46.156311%, 75.752258%, 100%)" offset="0.359375"/><stop stop-opacity="1" stop-color="rgb(46.470642%, 75.569153%, 100%)" offset="0.363281"/><stop stop-opacity="1" stop-color="rgb(46.784973%, 75.387573%, 100%)" offset="0.367188"/><stop stop-opacity="1" stop-color="rgb(47.097778%, 75.205994%, 100%)" offset="0.371094"/><stop stop-opacity="1" stop-color="rgb(47.412109%, 75.024414%, 100%)" offset="0.375"/><stop stop-opacity="1" stop-color="rgb(47.724915%, 74.841309%, 100%)" offset="0.378906"/><stop stop-opacity="1" stop-color="rgb(48.039246%, 74.659729%, 100%)" offset="0.382812"/><stop stop-opacity="1" stop-color="rgb(48.352051%, 74.478149%, 100%)" offset="0.386719"/><stop stop-opacity="1" stop-color="rgb(48.666382%, 74.29657%, 100%)" offset="0.390625"/><stop stop-opacity="1" stop-color="rgb(48.979187%, 74.113464%, 100%)" offset="0.394531"/><stop stop-opacity="1" stop-color="rgb(49.293518%, 73.931885%, 100%)" offset="0.398438"/><stop stop-opacity="1" stop-color="rgb(49.606323%, 73.750305%, 100%)" offset="0.402344"/><stop stop-opacity="1" stop-color="rgb(49.920654%, 73.568726%, 100%)" offset="0.40625"/><stop stop-opacity="1" stop-color="rgb(50.233459%, 73.38562%, 100%)" offset="0.410156"/><stop stop-opacity="1" stop-color="rgb(50.547791%, 73.204041%, 100%)" offset="0.414062"/><stop stop-opacity="1" stop-color="rgb(50.862122%, 73.020935%, 100%)" offset="0.417969"/><stop stop-opacity="1" stop-color="rgb(51.176453%, 72.839355%, 100%)" offset="0.421875"/><stop stop-opacity="1" stop-color="rgb(51.489258%, 72.657776%, 100%)" offset="0.425781"/><stop stop-opacity="1" stop-color="rgb(51.803589%, 72.476196%, 100%)" offset="0.429688"/><stop stop-opacity="1" stop-color="rgb(52.116394%, 72.293091%, 100%)" offset="0.433594"/><stop stop-opacity="1" stop-color="rgb(52.430725%, 72.111511%, 100%)" offset="0.4375"/><stop stop-opacity="1" stop-color="rgb(52.74353%, 71.929932%, 100%)" offset="0.441406"/><stop stop-opacity="1" stop-color="rgb(53.057861%, 71.748352%, 100%)" offset="0.445312"/><stop stop-opacity="1" stop-color="rgb(53.370667%, 71.565247%, 100%)" offset="0.449219"/><stop stop-opacity="1" stop-color="rgb(53.684998%, 71.383667%, 100%)" offset="0.453125"/><stop stop-opacity="1" stop-color="rgb(53.997803%, 71.200562%, 100%)" offset="0.457031"/><stop stop-opacity="1" stop-color="rgb(54.312134%, 71.018982%, 100%)" offset="0.460938"/><stop stop-opacity="1" stop-color="rgb(54.624939%, 70.837402%, 100%)" offset="0.464844"/><stop stop-opacity="1" stop-color="rgb(54.93927%, 70.655823%, 100%)" offset="0.46875"/><stop stop-opacity="1" stop-color="rgb(55.253601%, 70.472717%, 100%)" offset="0.472656"/><stop stop-opacity="1" stop-color="rgb(55.567932%, 70.291138%, 100%)" offset="0.476562"/><stop stop-opacity="1" stop-color="rgb(55.880737%, 70.109558%, 100%)" offset="0.480469"/><stop stop-opacity="1" stop-color="rgb(56.195068%, 69.927979%, 100%)" offset="0.484375"/><stop stop-opacity="1" stop-color="rgb(56.507874%, 69.744873%, 100%)" offset="0.488281"/><stop stop-opacity="1" stop-color="rgb(56.822205%, 69.563293%, 100%)" offset="0.492188"/><stop stop-opacity="1" stop-color="rgb(57.13501%, 69.380188%, 100%)" offset="0.496094"/><stop stop-opacity="1" stop-color="rgb(57.449341%, 69.198608%, 100%)" offset="0.5"/><stop stop-opacity="1" stop-color="rgb(57.762146%, 69.017029%, 100%)" offset="0.503906"/><stop stop-opacity="1" stop-color="rgb(58.076477%, 68.835449%, 100%)" offset="0.507812"/><stop stop-opacity="1" stop-color="rgb(58.389282%, 68.652344%, 100%)" offset="0.511719"/><stop stop-opacity="1" stop-color="rgb(58.703613%, 68.470764%, 100%)" offset="0.515625"/><stop stop-opacity="1" stop-color="rgb(59.016418%, 68.289185%, 100%)" offset="0.519531"/><stop stop-opacity="1" stop-color="rgb(59.33075%, 68.107605%, 100%)" offset="0.523437"/><stop stop-opacity="1" stop-color="rgb(59.643555%, 67.9245%, 100%)" offset="0.527344"/><stop stop-opacity="1" stop-color="rgb(59.957886%, 67.74292%, 100%)" offset="0.53125"/><stop stop-opacity="1" stop-color="rgb(60.272217%, 67.559814%, 100%)" offset="0.535156"/><stop stop-opacity="1" stop-color="rgb(60.586548%, 67.378235%, 100%)" offset="0.539062"/><stop stop-opacity="1" stop-color="rgb(60.899353%, 67.196655%, 100%)" offset="0.542969"/><stop stop-opacity="1" stop-color="rgb(61.213684%, 67.015076%, 100%)" offset="0.546875"/><stop stop-opacity="1" stop-color="rgb(61.526489%, 66.83197%, 100%)" offset="0.550781"/><stop stop-opacity="1" stop-color="rgb(61.84082%, 66.650391%, 100%)" offset="0.554687"/><stop stop-opacity="1" stop-color="rgb(62.153625%, 66.468811%, 100%)" offset="0.558594"/><stop stop-opacity="1" stop-color="rgb(62.467957%, 66.287231%, 100%)" offset="0.5625"/><stop stop-opacity="1" stop-color="rgb(62.780762%, 66.104126%, 100%)" offset="0.566406"/><stop stop-opacity="1" stop-color="rgb(63.095093%, 65.922546%, 100%)" offset="0.570312"/><stop stop-opacity="1" stop-color="rgb(63.407898%, 65.739441%, 100%)" offset="0.574219"/><stop stop-opacity="1" stop-color="rgb(63.722229%, 65.557861%, 100%)" offset="0.578125"/><stop stop-opacity="1" stop-color="rgb(64.035034%, 65.376282%, 100%)" offset="0.582031"/><stop stop-opacity="1" stop-color="rgb(64.349365%, 65.194702%, 100%)" offset="0.585937"/><stop stop-opacity="1" stop-color="rgb(64.663696%, 65.011597%, 100%)" offset="0.589844"/><stop stop-opacity="1" stop-color="rgb(64.978027%, 64.830017%, 100%)" offset="0.59375"/><stop stop-opacity="1" stop-color="rgb(65.290833%, 64.648438%, 100%)" offset="0.597656"/><stop stop-opacity="1" stop-color="rgb(65.605164%, 64.466858%, 100%)" offset="0.601562"/><stop stop-opacity="1" stop-color="rgb(65.917969%, 64.283752%, 100%)" offset="0.605469"/><stop stop-opacity="1" stop-color="rgb(66.2323%, 64.102173%, 100%)" offset="0.609375"/><stop stop-opacity="1" stop-color="rgb(66.545105%, 63.920593%, 100%)" offset="0.613281"/><stop stop-opacity="1" stop-color="rgb(66.859436%, 63.739014%, 100%)" offset="0.617187"/><stop stop-opacity="1" stop-color="rgb(67.172241%, 63.555908%, 100%)" offset="0.621094"/><stop stop-opacity="1" stop-color="rgb(67.486572%, 63.374329%, 100%)" offset="0.625"/><stop stop-opacity="1" stop-color="rgb(67.799377%, 63.191223%, 100%)" offset="0.628906"/><stop stop-opacity="1" stop-color="rgb(68.113708%, 63.009644%, 100%)" offset="0.632812"/><stop stop-opacity="1" stop-color="rgb(68.426514%, 62.828064%, 100%)" offset="0.636719"/><stop stop-opacity="1" stop-color="rgb(68.740845%, 62.646484%, 100%)" offset="0.640625"/><stop stop-opacity="1" stop-color="rgb(69.055176%, 62.463379%, 100%)" offset="0.644531"/><stop stop-opacity="1" stop-color="rgb(69.369507%, 62.281799%, 100%)" offset="0.648437"/><stop stop-opacity="1" stop-color="rgb(69.682312%, 62.10022%, 100%)" offset="0.652344"/><stop stop-opacity="1" stop-color="rgb(69.996643%, 61.91864%, 100%)" offset="0.65625"/><stop stop-opacity="1" stop-color="rgb(70.309448%, 61.735535%, 100%)" offset="0.660156"/><stop stop-opacity="1" stop-color="rgb(70.623779%, 61.553955%, 100%)" offset="0.664062"/><stop stop-opacity="1" stop-color="rgb(70.936584%, 61.37085%, 100%)" offset="0.667969"/><stop stop-opacity="1" stop-color="rgb(71.250916%, 61.18927%, 100%)" offset="0.671875"/><stop stop-opacity="1" stop-color="rgb(71.563721%, 61.00769%, 100%)" offset="0.675781"/><stop stop-opacity="1" stop-color="rgb(71.878052%, 60.826111%, 100%)" offset="0.679687"/><stop stop-opacity="1" stop-color="rgb(72.190857%, 60.643005%, 100%)" offset="0.683594"/><stop stop-opacity="1" stop-color="rgb(72.505188%, 60.461426%, 100%)" offset="0.6875"/><stop stop-opacity="1" stop-color="rgb(72.817993%, 60.279846%, 100%)" offset="0.691406"/><stop stop-opacity="1" stop-color="rgb(73.132324%, 60.098267%, 100%)" offset="0.695312"/><stop stop-opacity="1" stop-color="rgb(73.445129%, 59.915161%, 100%)" offset="0.699219"/><stop stop-opacity="1" stop-color="rgb(73.75946%, 59.733582%, 100%)" offset="0.703125"/><stop stop-opacity="1" stop-color="rgb(74.073792%, 59.550476%, 100%)" offset="0.707031"/><stop stop-opacity="1" stop-color="rgb(74.388123%, 59.368896%, 100%)" offset="0.710937"/><stop stop-opacity="1" stop-color="rgb(74.700928%, 59.187317%, 100%)" offset="0.714844"/><stop stop-opacity="1" stop-color="rgb(75.015259%, 59.005737%, 100%)" offset="0.71875"/><stop stop-opacity="1" stop-color="rgb(75.328064%, 58.822632%, 100%)" offset="0.722656"/><stop stop-opacity="1" stop-color="rgb(75.642395%, 58.641052%, 100%)" offset="0.726562"/><stop stop-opacity="1" stop-color="rgb(75.9552%, 58.459473%, 100%)" offset="0.730469"/><stop stop-opacity="1" stop-color="rgb(76.269531%, 58.277893%, 100%)" offset="0.734375"/><stop stop-opacity="1" stop-color="rgb(76.582336%, 58.094788%, 100%)" offset="0.738281"/><stop stop-opacity="1" stop-color="rgb(76.896667%, 57.913208%, 100%)" offset="0.742187"/><stop stop-opacity="1" stop-color="rgb(77.209473%, 57.730103%, 100%)" offset="0.746094"/><stop stop-opacity="1" stop-color="rgb(77.523804%, 57.548523%, 100%)" offset="0.75"/><stop stop-opacity="1" stop-color="rgb(77.836609%, 57.366943%, 100%)" offset="0.753906"/><stop stop-opacity="1" stop-color="rgb(78.15094%, 57.185364%, 100%)" offset="0.757812"/><stop stop-opacity="1" stop-color="rgb(78.465271%, 57.002258%, 100%)" offset="0.761719"/><stop stop-opacity="1" stop-color="rgb(78.779602%, 56.820679%, 100%)" offset="0.765625"/><stop stop-opacity="1" stop-color="rgb(79.092407%, 56.639099%, 100%)" offset="0.769531"/><stop stop-opacity="1" stop-color="rgb(79.406738%, 56.45752%, 100%)" offset="0.773437"/><stop stop-opacity="1" stop-color="rgb(79.719543%, 56.274414%, 100%)" offset="0.777344"/><stop stop-opacity="1" stop-color="rgb(80.033875%, 56.092834%, 100%)" offset="0.78125"/><stop stop-opacity="1" stop-color="rgb(80.34668%, 55.911255%, 100%)" offset="0.785156"/><stop stop-opacity="1" stop-color="rgb(80.661011%, 55.729675%, 100%)" offset="0.789062"/><stop stop-opacity="1" stop-color="rgb(80.973816%, 55.54657%, 100%)" offset="0.792969"/><stop stop-opacity="1" stop-color="rgb(81.288147%, 55.36499%, 100%)" offset="0.796875"/><stop stop-opacity="1" stop-color="rgb(81.600952%, 55.181885%, 100%)" offset="0.800781"/><stop stop-opacity="1" stop-color="rgb(81.915283%, 55.000305%, 100%)" offset="0.804687"/><stop stop-opacity="1" stop-color="rgb(82.228088%, 54.818726%, 100%)" offset="0.808594"/><stop stop-opacity="1" stop-color="rgb(82.542419%, 54.637146%, 100%)" offset="0.8125"/><stop stop-opacity="1" stop-color="rgb(82.85675%, 54.454041%, 100%)" offset="0.816406"/><stop stop-opacity="1" stop-color="rgb(83.171082%, 54.272461%, 100%)" offset="0.820312"/><stop stop-opacity="1" stop-color="rgb(83.483887%, 54.090881%, 100%)" offset="0.824219"/><stop stop-opacity="1" stop-color="rgb(83.798218%, 53.909302%, 100%)" offset="0.828125"/><stop stop-opacity="1" stop-color="rgb(84.111023%, 53.726196%, 100%)" offset="0.832031"/><stop stop-opacity="1" stop-color="rgb(84.425354%, 53.544617%, 100%)" offset="0.835937"/><stop stop-opacity="1" stop-color="rgb(84.738159%, 53.361511%, 100%)" offset="0.839844"/><stop stop-opacity="1" stop-color="rgb(85.05249%, 53.179932%, 100%)" offset="0.84375"/><stop stop-opacity="1" stop-color="rgb(85.365295%, 52.998352%, 100%)" offset="0.847656"/><stop stop-opacity="1" stop-color="rgb(85.679626%, 52.816772%, 100%)" offset="0.851562"/><stop stop-opacity="1" stop-color="rgb(85.992432%, 52.633667%, 100%)" offset="0.855469"/><stop stop-opacity="1" stop-color="rgb(86.306763%, 52.452087%, 100%)" offset="0.859375"/><stop stop-opacity="1" stop-color="rgb(86.619568%, 52.270508%, 100%)" offset="0.863281"/><stop stop-opacity="1" stop-color="rgb(86.933899%, 52.088928%, 100%)" offset="0.867187"/><stop stop-opacity="1" stop-color="rgb(87.246704%, 51.905823%, 100%)" offset="0.871094"/><stop stop-opacity="1" stop-color="rgb(87.561035%, 51.724243%, 100%)" offset="0.875"/><stop stop-opacity="1" stop-color="rgb(87.875366%, 51.541138%, 100%)" offset="0.878906"/><stop stop-opacity="1" stop-color="rgb(88.189697%, 51.359558%, 100%)" offset="0.882812"/><stop stop-opacity="1" stop-color="rgb(88.502502%, 51.177979%, 100%)" offset="0.886719"/><stop stop-opacity="1" stop-color="rgb(88.816833%, 50.996399%, 100%)" offset="0.890625"/><stop stop-opacity="1" stop-color="rgb(89.129639%, 50.813293%, 100%)" offset="0.894531"/><stop stop-opacity="1" stop-color="rgb(89.44397%, 50.631714%, 100%)" offset="0.898437"/><stop stop-opacity="1" stop-color="rgb(89.756775%, 50.450134%, 100%)" offset="0.902344"/><stop stop-opacity="1" stop-color="rgb(90.071106%, 50.268555%, 100%)" offset="0.90625"/><stop stop-opacity="1" stop-color="rgb(90.383911%, 50.085449%, 100%)" offset="0.910156"/><stop stop-opacity="1" stop-color="rgb(90.698242%, 49.90387%, 100%)" offset="0.914062"/><stop stop-opacity="1" stop-color="rgb(91.011047%, 49.720764%, 100%)" offset="0.917969"/><stop stop-opacity="1" stop-color="rgb(91.325378%, 49.539185%, 100%)" offset="0.921875"/><stop stop-opacity="1" stop-color="rgb(91.638184%, 49.357605%, 100%)" offset="0.925781"/><stop stop-opacity="1" stop-color="rgb(91.952515%, 49.176025%, 100%)" offset="0.929687"/><stop stop-opacity="1" stop-color="rgb(92.266846%, 48.99292%, 100%)" offset="0.933594"/><stop stop-opacity="1" stop-color="rgb(92.581177%, 48.81134%, 100%)" offset="0.9375"/><stop stop-opacity="1" stop-color="rgb(92.893982%, 48.629761%, 100%)" offset="0.941406"/><stop stop-opacity="1" stop-color="rgb(93.208313%, 48.448181%, 100%)" offset="0.945312"/><stop stop-opacity="1" stop-color="rgb(93.521118%, 48.265076%, 100%)" offset="0.949219"/><stop stop-opacity="1" stop-color="rgb(93.835449%, 48.083496%, 100%)" offset="0.953125"/><stop stop-opacity="1" stop-color="rgb(94.148254%, 47.900391%, 100%)" offset="0.957031"/><stop stop-opacity="1" stop-color="rgb(94.462585%, 47.718811%, 100%)" offset="0.960937"/><stop stop-opacity="1" stop-color="rgb(94.775391%, 47.537231%, 100%)" offset="0.964844"/><stop stop-opacity="1" stop-color="rgb(95.089722%, 47.355652%, 100%)" offset="0.96875"/><stop stop-opacity="1" stop-color="rgb(95.402527%, 47.172546%, 100%)" offset="0.972656"/><stop stop-opacity="1" stop-color="rgb(95.716858%, 46.990967%, 100%)" offset="0.976562"/><stop stop-opacity="1" stop-color="rgb(96.029663%, 46.809387%, 100%)" offset="0.980469"/><stop stop-opacity="1" stop-color="rgb(96.343994%, 46.627808%, 100%)" offset="0.984375"/><stop stop-opacity="1" stop-color="rgb(96.658325%, 46.444702%, 100%)" offset="0.988281"/><stop stop-opacity="1" stop-color="rgb(96.972656%, 46.263123%, 100%)" offset="0.992187"/><stop stop-opacity="1" stop-color="rgb(97.285461%, 46.081543%, 100%)" offset="0.996094"/><stop stop-opacity="1" stop-color="rgb(97.599792%, 45.899963%, 100%)" offset="1"/></linearGradient></defs><g clip-path="url(#ffa4b95b9f)"><g clip-path="url(#415975cd20)"><path fill="url(#1ce0fb8d33)" d="M 0.40625 99.039062 L 0.40625 276.335938 L 374.59375 276.335938 L 374.59375 99.039062 Z M 0.40625 99.039062 " fill-rule="nonzero"/></g></g></svg>