<svg xmlns="http://www.w3.org/2000/svg" xmlns:xlink="http://www.w3.org/1999/xlink" width="500" zoomAndPan="magnify" viewBox="0 0 375 374.999991" height="500" preserveAspectRatio="xMidYMid meet" version="1.0"><defs><clipPath id="e1a0685f86"><path d="M 162 285 L 214 285 L 214 336.421875 L 162 336.421875 Z M 162 285 " clip-rule="nonzero"/></clipPath></defs><path fill="#000000" d="M 96.96875 237.914062 L 120.996094 261.953125 C 157.796875 225.101562 217.710938 225.136719 254.519531 261.953125 L 278.546875 237.914062 C 228.46875 187.863281 147.027344 187.847656 96.96875 237.914062 Z M 96.96875 237.914062 " fill-opacity="1" fill-rule="nonzero"/><path fill="#000000" d="M 48.921875 189.835938 L 72.941406 213.863281 C 136.257812 150.566406 239.238281 150.550781 302.570312 213.863281 L 326.59375 189.835938 C 250.023438 113.261719 125.472656 113.277344 48.921875 189.835938 Z M 48.921875 189.835938 " fill-opacity="1" fill-rule="nonzero"/><path fill="#000000" d="M 0.867188 141.773438 L 24.894531 165.808594 C 114.703125 75.988281 260.824219 75.988281 350.613281 165.808594 L 374.640625 141.773438 C 271.441406 38.550781 104.121094 38.503906 0.867188 141.773438 Z M 0.867188 141.773438 " fill-opacity="1" fill-rule="nonzero"/><g clip-path="url(#e1a0685f86)"><path fill="#000000" d="M 213.238281 310.757812 C 213.238281 311.589844 213.199219 312.425781 213.117188 313.253906 C 213.035156 314.085938 212.914062 314.910156 212.75 315.730469 C 212.585938 316.546875 212.382812 317.355469 212.140625 318.15625 C 211.898438 318.957031 211.617188 319.742188 211.300781 320.511719 C 210.980469 321.28125 210.625 322.035156 210.230469 322.773438 C 209.835938 323.507812 209.40625 324.226562 208.945312 324.917969 C 208.480469 325.613281 207.984375 326.28125 207.453125 326.929688 C 206.925781 327.574219 206.363281 328.191406 205.773438 328.78125 C 205.183594 329.371094 204.566406 329.933594 203.921875 330.460938 C 203.277344 330.992188 202.605469 331.488281 201.914062 331.953125 C 201.21875 332.417969 200.503906 332.84375 199.769531 333.238281 C 199.03125 333.632812 198.277344 333.988281 197.507812 334.308594 C 196.734375 334.628906 195.953125 334.910156 195.152344 335.152344 C 194.355469 335.394531 193.546875 335.597656 192.726562 335.757812 C 191.90625 335.921875 191.082031 336.042969 190.253906 336.125 C 189.421875 336.207031 188.589844 336.25 187.753906 336.25 C 186.921875 336.25 186.085938 336.207031 185.257812 336.125 C 184.425781 336.042969 183.601562 335.921875 182.78125 335.757812 C 181.964844 335.597656 181.15625 335.394531 180.355469 335.152344 C 179.558594 334.910156 178.773438 334.628906 178.003906 334.308594 C 177.230469 333.988281 176.476562 333.632812 175.742188 333.238281 C 175.003906 332.84375 174.289062 332.417969 173.597656 331.953125 C 172.902344 331.488281 172.234375 330.992188 171.585938 330.460938 C 170.941406 329.933594 170.324219 329.371094 169.734375 328.78125 C 169.144531 328.191406 168.585938 327.574219 168.054688 326.929688 C 167.527344 326.28125 167.027344 325.613281 166.566406 324.917969 C 166.101562 324.226562 165.671875 323.507812 165.28125 322.773438 C 164.886719 322.035156 164.53125 321.28125 164.210938 320.511719 C 163.890625 319.742188 163.609375 318.957031 163.367188 318.15625 C 163.125 317.355469 162.921875 316.546875 162.761719 315.730469 C 162.597656 314.910156 162.476562 314.085938 162.394531 313.253906 C 162.3125 312.425781 162.269531 311.589844 162.269531 310.757812 C 162.269531 309.921875 162.3125 309.089844 162.394531 308.257812 C 162.476562 307.425781 162.597656 306.601562 162.761719 305.78125 C 162.921875 304.964844 163.125 304.15625 163.367188 303.355469 C 163.609375 302.558594 163.890625 301.773438 164.210938 301 C 164.53125 300.230469 164.886719 299.476562 165.28125 298.738281 C 165.671875 298.003906 166.101562 297.289062 166.566406 296.59375 C 167.027344 295.898438 167.527344 295.230469 168.054688 294.585938 C 168.585938 293.9375 169.144531 293.320312 169.734375 292.730469 C 170.324219 292.140625 170.941406 291.578125 171.585938 291.050781 C 172.234375 290.519531 172.902344 290.023438 173.597656 289.558594 C 174.289062 289.097656 175.003906 288.667969 175.742188 288.273438 C 176.476562 287.878906 177.230469 287.523438 178.003906 287.203125 C 178.773438 286.886719 179.558594 286.605469 180.355469 286.363281 C 181.15625 286.121094 181.964844 285.917969 182.78125 285.753906 C 183.601562 285.589844 184.425781 285.46875 185.257812 285.386719 C 186.085938 285.304688 186.921875 285.265625 187.753906 285.265625 C 188.589844 285.265625 189.421875 285.304688 190.253906 285.386719 C 191.082031 285.46875 191.90625 285.589844 192.726562 285.753906 C 193.546875 285.917969 194.355469 286.121094 195.152344 286.363281 C 195.953125 286.605469 196.734375 286.886719 197.507812 287.203125 C 198.277344 287.523438 199.03125 287.878906 199.769531 288.273438 C 200.503906 288.667969 201.21875 289.097656 201.914062 289.558594 C 202.605469 290.023438 203.277344 290.519531 203.921875 291.050781 C 204.566406 291.578125 205.183594 292.140625 205.773438 292.730469 C 206.363281 293.320312 206.925781 293.9375 207.453125 294.585938 C 207.984375 295.230469 208.480469 295.898438 208.945312 296.59375 C 209.40625 297.289062 209.835938 298.003906 210.230469 298.738281 C 210.625 299.476562 210.980469 300.230469 211.300781 301 C 211.617188 301.773438 211.898438 302.558594 212.140625 303.355469 C 212.382812 304.15625 212.585938 304.964844 212.75 305.78125 C 212.914062 306.601562 213.035156 307.425781 213.117188 308.257812 C 213.199219 309.089844 213.238281 309.921875 213.238281 310.757812 Z M 213.238281 310.757812 " fill-opacity="1" fill-rule="nonzero"/></g></svg>